<svg width="698" height="698" viewBox="0 0 698 698" fill="none" xmlns="http://www.w3.org/2000/svg">
<g opacity="0.7">
<path opacity="0.7" d="M574.356 136.808C574.356 136.808 506.371 66.5613 398.74 69.9257C291.108 73.2901 199.335 141.261 123.42 194.519C47.5059 247.776 27.1382 330.503 71.3216 395.068C115.505 459.633 185.794 432.467 275.235 474.375C364.677 516.283 381.68 540.099 481.439 529.908C581.197 519.717 657.055 415.436 645.72 304.44C634.384 193.444 574.356 136.808 574.356 136.808Z" fill="#FF6B6C"/>
<path opacity="0.4" d="M574.356 136.808C574.356 136.808 506.371 66.5613 398.74 69.9257C291.108 73.2901 199.335 141.261 123.42 194.519C47.5059 247.776 27.1382 330.503 71.3216 395.068C115.505 459.633 185.794 432.467 275.235 474.375C364.677 516.283 381.68 540.099 481.439 529.908C581.197 519.717 657.055 415.436 645.72 304.44C634.384 193.444 574.356 136.808 574.356 136.808Z" fill="white"/>
</g>
<path d="M554.491 162.662H189.647C177.211 162.662 167.129 172.744 167.129 185.18V422.22C167.129 434.656 177.211 444.738 189.647 444.738H554.491C566.927 444.738 577.009 434.656 577.009 422.22V185.18C577.009 172.744 566.927 162.662 554.491 162.662Z" fill="white"/>
<path d="M210.028 162.662V444.738H189.647C183.675 444.738 177.947 442.365 173.724 438.143C169.502 433.92 167.129 428.192 167.129 422.22V185.18C167.129 179.208 169.502 173.48 173.724 169.257C177.947 165.034 183.675 162.662 189.647 162.662H210.028Z" fill="#FF6B6C"/>
<path opacity="0.2" d="M210.028 162.662V444.738H189.647C183.675 444.738 177.947 442.365 173.724 438.143C169.502 433.92 167.129 428.192 167.129 422.22V185.18C167.129 179.208 169.502 173.48 173.724 169.257C177.947 165.034 183.675 162.662 189.647 162.662H210.028Z" fill="black"/>
<path d="M554.491 162.662H189.647C177.211 162.662 167.129 172.744 167.129 185.18V422.22C167.129 434.656 177.211 444.738 189.647 444.738H554.491C566.927 444.738 577.009 434.656 577.009 422.22V185.18C577.009 172.744 566.927 162.662 554.491 162.662Z" stroke="#263238" stroke-miterlimit="10"/>
<path d="M310.596 340.038V338.781" stroke="#263238" stroke-linecap="round" stroke-linejoin="round"/>
<path d="M448.409 340.038V338.781" stroke="#263238" stroke-linecap="round" stroke-linejoin="round"/>
<path d="M317.381 340.038V289.712" stroke="#263238" stroke-linecap="round" stroke-linejoin="round"/>
<path d="M317.381 333.756H320.829" stroke="#263238" stroke-linecap="round" stroke-linejoin="round"/>
<path d="M317.381 327.46H320.829" stroke="#263238" stroke-linecap="round" stroke-linejoin="round"/>
<path d="M317.381 321.164H320.829" stroke="#263238" stroke-linecap="round" stroke-linejoin="round"/>
<path d="M317.381 314.868H320.829" stroke="#263238" stroke-linecap="round" stroke-linejoin="round"/>
<path d="M317.381 308.586H320.829" stroke="#263238" stroke-linecap="round" stroke-linejoin="round"/>
<path d="M317.381 302.29H320.829" stroke="#263238" stroke-linecap="round" stroke-linejoin="round"/>
<path d="M317.381 296.008H320.829" stroke="#263238" stroke-linecap="round" stroke-linejoin="round"/>
<path d="M317.381 289.712H320.829" stroke="#263238" stroke-linecap="round" stroke-linejoin="round"/>
<path d="M434.198 302.29H426.562V340.038H434.198V302.29Z" fill="#263238"/>
<path d="M425.724 330.601H418.088V340.038H425.724V330.601Z" fill="#FF6B6C"/>
<path d="M417.251 328.716H409.615V340.038H417.251V328.716Z" fill="#263238"/>
<path d="M408.763 308.586H401.127V340.052H408.763V308.586Z" fill="#FF6B6C"/>
<path d="M400.289 321.164H392.653V340.038H400.289V321.164Z" fill="#263238"/>
<path d="M391.801 324.319H384.165V340.038H391.801V324.319Z" fill="#FF6B6C"/>
<path d="M383.314 327.46H375.677V340.038H383.314V327.46Z" fill="#263238"/>
<path d="M374.84 296.008H367.204V340.052H374.84V296.008Z" fill="#FF6B6C"/>
<path d="M366.366 333.756H358.73V340.052H366.366V333.756Z" fill="#263238"/>
<path d="M357.879 321.164H350.242V340.038H357.879V321.164Z" fill="#FF6B6C"/>
<path d="M349.405 308.753H341.769V340.219H349.405V308.753Z" fill="#263238"/>
<path d="M340.917 314.868H333.281V340.038H340.917V314.868Z" fill="#FF6B6C"/>
<path d="M332.444 327.46H324.807V340.038H332.444V327.46Z" fill="#263238"/>
<path d="M310.596 340.038H448.409" stroke="#263238" stroke-linecap="round" stroke-linejoin="round"/>
<path d="M300.028 188.46C300.25 188.46 300.47 188.504 300.675 188.589C300.88 188.673 301.066 188.798 301.223 188.955C301.38 189.112 301.504 189.298 301.589 189.503C301.674 189.708 301.717 189.927 301.717 190.149C301.717 190.371 301.674 190.591 301.589 190.796C301.504 191 301.38 191.187 301.223 191.344C301.066 191.5 300.88 191.625 300.675 191.71C300.47 191.795 300.25 191.838 300.028 191.838C299.581 191.835 299.154 191.655 298.838 191.34C298.522 191.024 298.343 190.596 298.339 190.149C298.339 189.701 298.517 189.271 298.834 188.955C299.151 188.638 299.58 188.46 300.028 188.46Z" fill="white" stroke="#263238" stroke-linecap="round" stroke-linejoin="round"/>
<path d="M237.976 261.29H419.386" stroke="#263238" stroke-linecap="round" stroke-linejoin="round"/>
<path d="M237.976 261.289V259.502" stroke="#263238" stroke-linecap="round" stroke-linejoin="round"/>
<path d="M247.525 261.289V259.502" stroke="#263238" stroke-linecap="round" stroke-linejoin="round"/>
<path d="M257.059 261.289V259.502" stroke="#263238" stroke-linecap="round" stroke-linejoin="round"/>
<path d="M266.608 261.289V259.502" stroke="#263238" stroke-linecap="round" stroke-linejoin="round"/>
<path d="M276.157 261.289V259.502" stroke="#263238" stroke-linecap="round" stroke-linejoin="round"/>
<path d="M285.705 261.289V259.502" stroke="#263238" stroke-linecap="round" stroke-linejoin="round"/>
<path d="M295.254 261.289V259.502" stroke="#263238" stroke-linecap="round" stroke-linejoin="round"/>
<path d="M304.803 261.289V259.502" stroke="#263238" stroke-linecap="round" stroke-linejoin="round"/>
<path d="M314.351 261.289V259.502" stroke="#263238" stroke-linecap="round" stroke-linejoin="round"/>
<path d="M323.9 261.289V259.502" stroke="#263238" stroke-linecap="round" stroke-linejoin="round"/>
<path d="M333.448 261.289V259.502" stroke="#263238" stroke-linecap="round" stroke-linejoin="round"/>
<path d="M342.997 261.289V259.502" stroke="#263238" stroke-linecap="round" stroke-linejoin="round"/>
<path d="M352.546 261.289V259.502" stroke="#263238" stroke-linecap="round" stroke-linejoin="round"/>
<path d="M362.094 261.289V259.502" stroke="#263238" stroke-linecap="round" stroke-linejoin="round"/>
<path d="M371.643 261.289V259.502" stroke="#263238" stroke-linecap="round" stroke-linejoin="round"/>
<path d="M381.192 261.289V259.502" stroke="#263238" stroke-linecap="round" stroke-linejoin="round"/>
<path d="M390.74 261.289V259.502" stroke="#263238" stroke-linecap="round" stroke-linejoin="round"/>
<path d="M400.289 261.289V259.502" stroke="#263238" stroke-linecap="round" stroke-linejoin="round"/>
<path d="M409.838 261.289V259.502" stroke="#263238" stroke-linecap="round" stroke-linejoin="round"/>
<path d="M419.386 261.289V259.502" stroke="#263238" stroke-linecap="round" stroke-linejoin="round"/>
<path d="M237.976 261.289V190.135" stroke="#263238" stroke-linecap="round" stroke-linejoin="round"/>
<path d="M237.976 247.064H242.513" stroke="#263238" stroke-linecap="round" stroke-linejoin="round"/>
<path d="M237.976 232.825H242.513" stroke="#263238" stroke-linecap="round" stroke-linejoin="round"/>
<path d="M237.976 218.6H242.513" stroke="#263238" stroke-linecap="round" stroke-linejoin="round"/>
<path d="M237.976 204.361H242.513" stroke="#263238" stroke-linecap="round" stroke-linejoin="round"/>
<path d="M237.976 190.135H242.513" stroke="#263238" stroke-linecap="round" stroke-linejoin="round"/>
<path d="M252.299 204.361L242.75 247.064" stroke="#263238" stroke-linecap="round" stroke-linejoin="round"/>
<path d="M261.848 228.554L252.299 204.361" stroke="#263238" stroke-linecap="round" stroke-linejoin="round"/>
<path d="M271.396 218.6L261.848 228.553" stroke="#263238" stroke-linecap="round" stroke-linejoin="round"/>
<path d="M280.945 244.216L271.396 218.6" stroke="#263238" stroke-linecap="round" stroke-linejoin="round"/>
<path d="M290.48 204.361L280.945 244.217" stroke="#263238" stroke-linecap="round" stroke-linejoin="round"/>
<path d="M300.028 190.135L290.48 204.361" stroke="#263238" stroke-linecap="round" stroke-linejoin="round"/>
<path d="M309.577 254.17L300.028 190.135" stroke="#263238" stroke-linecap="round" stroke-linejoin="round"/>
<path d="M319.126 249.898L309.577 254.17" stroke="#263238" stroke-linecap="round" stroke-linejoin="round"/>
<path d="M328.674 248.474L319.126 249.898" stroke="#263238" stroke-linecap="round" stroke-linejoin="round"/>
<path d="M338.223 244.216L328.674 248.474" stroke="#263238" stroke-linecap="round" stroke-linejoin="round"/>
<path d="M347.771 238.521L338.223 244.216" stroke="#263238" stroke-linecap="round" stroke-linejoin="round"/>
<path d="M357.32 241.368L347.771 238.521" stroke="#263238" stroke-linecap="round" stroke-linejoin="round"/>
<path d="M366.869 247.064L357.32 241.369" stroke="#263238" stroke-linecap="round" stroke-linejoin="round"/>
<path d="M376.418 217.176L366.869 247.064" stroke="#263238" stroke-linecap="round" stroke-linejoin="round"/>
<path d="M385.966 212.904L376.417 217.176" stroke="#263238" stroke-linecap="round" stroke-linejoin="round"/>
<path d="M395.515 207.208L385.966 212.904" stroke="#263238" stroke-linecap="round" stroke-linejoin="round"/>
<path d="M405.064 212.904L395.515 207.208" stroke="#263238" stroke-linecap="round" stroke-linejoin="round"/>
<path d="M414.598 218.6L405.063 212.904" stroke="#263238" stroke-linecap="round" stroke-linejoin="round"/>
<path d="M242.75 245.375C242.975 245.375 243.197 245.42 243.403 245.506C243.61 245.593 243.798 245.72 243.955 245.88C244.112 246.039 244.236 246.229 244.319 246.437C244.402 246.645 244.443 246.868 244.44 247.092C244.436 247.538 244.256 247.964 243.94 248.277C243.624 248.591 243.196 248.767 242.75 248.767C242.305 248.767 241.877 248.591 241.561 248.277C241.245 247.964 241.065 247.538 241.061 247.092C241.058 246.868 241.099 246.645 241.182 246.437C241.265 246.229 241.389 246.039 241.546 245.88C241.703 245.72 241.891 245.593 242.098 245.506C242.304 245.42 242.526 245.375 242.75 245.375Z" fill="white" stroke="#263238" stroke-linecap="round" stroke-linejoin="round"/>
<path d="M252.299 202.671C252.521 202.671 252.741 202.715 252.946 202.8C253.151 202.885 253.337 203.009 253.494 203.166C253.65 203.323 253.775 203.509 253.86 203.714C253.945 203.919 253.988 204.139 253.988 204.361C253.988 204.582 253.945 204.802 253.86 205.007C253.775 205.212 253.65 205.398 253.494 205.555C253.337 205.712 253.151 205.836 252.946 205.921C252.741 206.006 252.521 206.05 252.299 206.05C252.077 206.05 251.858 206.006 251.653 205.921C251.448 205.836 251.262 205.712 251.105 205.555C250.948 205.398 250.823 205.212 250.739 205.007C250.654 204.802 250.61 204.582 250.61 204.361C250.61 203.913 250.788 203.483 251.105 203.166C251.422 202.849 251.851 202.671 252.299 202.671Z" fill="white" stroke="#263238" stroke-linecap="round" stroke-linejoin="round"/>
<path d="M261.848 226.864C262.07 226.864 262.289 226.908 262.494 226.993C262.699 227.078 262.885 227.202 263.042 227.359C263.199 227.516 263.323 227.702 263.408 227.907C263.493 228.112 263.537 228.332 263.537 228.553C263.537 229.001 263.359 229.431 263.042 229.748C262.725 230.065 262.296 230.243 261.848 230.243C261.4 230.243 260.97 230.065 260.653 229.748C260.337 229.431 260.159 229.001 260.159 228.553C260.159 228.332 260.202 228.112 260.287 227.907C260.372 227.702 260.496 227.516 260.653 227.359C260.81 227.202 260.996 227.078 261.201 226.993C261.406 226.908 261.626 226.864 261.848 226.864Z" fill="white" stroke="#263238" stroke-linecap="round" stroke-linejoin="round"/>
<path d="M271.396 216.911C271.842 216.911 272.269 217.087 272.586 217.401C272.902 217.714 273.082 218.14 273.086 218.586C273.086 219.034 272.908 219.464 272.591 219.78C272.274 220.097 271.844 220.275 271.396 220.275C270.948 220.275 270.519 220.097 270.202 219.78C269.885 219.464 269.707 219.034 269.707 218.586C269.707 218.365 269.751 218.146 269.836 217.942C269.921 217.737 270.046 217.552 270.203 217.396C270.36 217.241 270.546 217.118 270.751 217.034C270.956 216.951 271.175 216.909 271.396 216.911Z" fill="white" stroke="#263238" stroke-linecap="round" stroke-linejoin="round"/>
<path d="M280.945 242.527C281.393 242.527 281.823 242.705 282.139 243.022C282.456 243.339 282.634 243.769 282.634 244.217C282.63 244.662 282.451 245.088 282.134 245.402C281.818 245.716 281.391 245.892 280.945 245.892C280.499 245.892 280.072 245.716 279.756 245.402C279.439 245.088 279.26 244.662 279.256 244.217C279.256 243.769 279.434 243.339 279.751 243.022C280.067 242.705 280.497 242.527 280.945 242.527Z" fill="white" stroke="#263238" stroke-linecap="round" stroke-linejoin="round"/>
<path d="M290.508 202.671C290.956 202.671 291.385 202.849 291.702 203.166C292.019 203.483 292.197 203.913 292.197 204.361C292.197 204.582 292.153 204.802 292.068 205.007C291.983 205.212 291.859 205.398 291.702 205.555C291.545 205.712 291.359 205.836 291.154 205.921C290.949 206.006 290.729 206.05 290.508 206.05C290.286 206.05 290.066 206.006 289.861 205.921C289.656 205.836 289.47 205.712 289.313 205.555C289.156 205.398 289.032 205.212 288.947 205.007C288.862 204.802 288.818 204.582 288.818 204.361C288.818 203.913 288.996 203.483 289.313 203.166C289.63 202.849 290.06 202.671 290.508 202.671Z" fill="white" stroke="#263238" stroke-linecap="round" stroke-linejoin="round"/>
<path d="M309.577 252.48C310.025 252.48 310.455 252.658 310.771 252.975C311.088 253.292 311.266 253.722 311.266 254.17C311.266 254.618 311.088 255.047 310.771 255.364C310.455 255.681 310.025 255.859 309.577 255.859C309.355 255.859 309.136 255.815 308.931 255.73C308.726 255.645 308.54 255.521 308.383 255.364C308.226 255.207 308.101 255.021 308.017 254.816C307.932 254.611 307.888 254.391 307.888 254.17C307.888 253.948 307.932 253.728 308.017 253.523C308.101 253.318 308.226 253.132 308.383 252.975C308.54 252.818 308.726 252.694 308.931 252.609C309.136 252.524 309.355 252.48 309.577 252.48Z" fill="white" stroke="#263238" stroke-linecap="round" stroke-linejoin="round"/>
<path d="M319.126 248.223C319.347 248.221 319.566 248.263 319.771 248.347C319.976 248.43 320.162 248.553 320.319 248.709C320.476 248.865 320.601 249.05 320.686 249.254C320.771 249.458 320.815 249.677 320.815 249.898C320.815 250.346 320.637 250.776 320.32 251.093C320.003 251.41 319.574 251.588 319.126 251.588C318.678 251.588 318.248 251.41 317.931 251.093C317.614 250.776 317.437 250.346 317.437 249.898C317.44 249.453 317.62 249.027 317.936 248.713C318.253 248.399 318.68 248.223 319.126 248.223Z" fill="white" stroke="#263238" stroke-linecap="round" stroke-linejoin="round"/>
<path d="M328.674 246.799C328.895 246.797 329.115 246.839 329.32 246.922C329.525 247.006 329.711 247.129 329.868 247.285C330.025 247.44 330.15 247.626 330.235 247.83C330.32 248.034 330.364 248.253 330.363 248.474C330.363 248.696 330.32 248.916 330.235 249.121C330.15 249.325 330.026 249.512 329.869 249.669C329.712 249.825 329.526 249.95 329.321 250.035C329.116 250.12 328.896 250.163 328.674 250.163C328.226 250.163 327.797 249.985 327.48 249.669C327.163 249.352 326.985 248.922 326.985 248.474C326.989 248.029 327.168 247.602 327.485 247.289C327.801 246.975 328.229 246.799 328.674 246.799Z" fill="white" stroke="#263238" stroke-linecap="round" stroke-linejoin="round"/>
<path d="M338.223 242.527C338.671 242.527 339.1 242.705 339.417 243.022C339.734 243.339 339.912 243.769 339.912 244.217C339.908 244.662 339.729 245.088 339.412 245.402C339.096 245.716 338.668 245.892 338.223 245.892C337.777 245.892 337.35 245.716 337.033 245.402C336.717 245.088 336.537 244.662 336.534 244.217C336.534 243.995 336.577 243.775 336.662 243.57C336.747 243.365 336.872 243.179 337.028 243.022C337.185 242.865 337.371 242.741 337.576 242.656C337.781 242.571 338.001 242.527 338.223 242.527Z" fill="white" stroke="#263238" stroke-linecap="round" stroke-linejoin="round"/>
<path d="M347.771 236.832C348.219 236.832 348.649 237.01 348.966 237.326C349.283 237.643 349.461 238.073 349.461 238.521C349.457 238.966 349.277 239.392 348.961 239.706C348.645 240.02 348.217 240.196 347.771 240.196C347.326 240.196 346.898 240.02 346.582 239.706C346.266 239.392 346.086 238.966 346.082 238.521C346.082 238.073 346.26 237.643 346.577 237.326C346.894 237.01 347.323 236.832 347.771 236.832Z" fill="white" stroke="#263238" stroke-linecap="round" stroke-linejoin="round"/>
<path d="M357.376 239.679C357.824 239.679 358.254 239.857 358.57 240.174C358.887 240.491 359.065 240.92 359.065 241.368C359.061 241.814 358.882 242.24 358.565 242.554C358.249 242.868 357.822 243.044 357.376 243.044C356.93 243.044 356.503 242.868 356.186 242.554C355.87 242.24 355.69 241.814 355.687 241.368C355.687 241.147 355.73 240.927 355.815 240.722C355.9 240.517 356.025 240.331 356.182 240.174C356.338 240.017 356.525 239.893 356.73 239.808C356.934 239.723 357.154 239.679 357.376 239.679Z" fill="white" stroke="#263238" stroke-linecap="round" stroke-linejoin="round"/>
<path d="M366.869 245.375C367.092 245.377 367.312 245.423 367.518 245.51C367.723 245.598 367.908 245.725 368.064 245.885C368.22 246.044 368.343 246.233 368.425 246.44C368.507 246.648 368.548 246.869 368.544 247.092C368.54 247.538 368.361 247.964 368.044 248.277C367.728 248.591 367.301 248.767 366.855 248.767C366.409 248.767 365.982 248.591 365.665 248.277C365.349 247.964 365.169 247.538 365.166 247.092C365.166 246.644 365.344 246.214 365.661 245.898C365.977 245.581 366.407 245.403 366.855 245.403L366.869 245.375Z" fill="white" stroke="#263238" stroke-linecap="round" stroke-linejoin="round"/>
<path d="M376.417 215.473C376.865 215.473 377.295 215.651 377.612 215.967C377.929 216.284 378.107 216.714 378.107 217.162C378.107 217.61 377.929 218.039 377.612 218.356C377.295 218.673 376.865 218.851 376.417 218.851C375.969 218.851 375.54 218.673 375.223 218.356C374.906 218.039 374.728 217.61 374.728 217.162C374.728 216.714 374.906 216.284 375.223 215.967C375.54 215.651 375.969 215.473 376.417 215.473Z" fill="white" stroke="#263238" stroke-linecap="round" stroke-linejoin="round"/>
<path d="M385.966 211.215C386.414 211.215 386.844 211.393 387.16 211.71C387.477 212.026 387.655 212.456 387.655 212.904C387.655 213.352 387.477 213.782 387.16 214.098C386.844 214.415 386.414 214.593 385.966 214.593C385.518 214.593 385.088 214.415 384.772 214.098C384.455 213.782 384.277 213.352 384.277 212.904C384.277 212.456 384.455 212.026 384.772 211.71C385.088 211.393 385.518 211.215 385.966 211.215Z" fill="white" stroke="#263238" stroke-linecap="round" stroke-linejoin="round"/>
<path d="M395.515 205.52C395.736 205.52 395.956 205.563 396.161 205.648C396.366 205.733 396.552 205.857 396.709 206.014C396.866 206.171 396.99 206.357 397.075 206.562C397.16 206.767 397.204 206.987 397.204 207.209C397.2 207.656 397.021 208.083 396.705 208.399C396.389 208.715 395.961 208.894 395.515 208.898C395.067 208.898 394.637 208.72 394.32 208.403C394.003 208.086 393.825 207.657 393.825 207.209C393.825 206.987 393.869 206.767 393.954 206.562C394.039 206.357 394.163 206.171 394.32 206.014C394.477 205.857 394.663 205.733 394.868 205.648C395.073 205.563 395.293 205.52 395.515 205.52Z" fill="white" stroke="#263238" stroke-linecap="round" stroke-linejoin="round"/>
<path d="M405.063 211.215C405.511 211.215 405.941 211.393 406.258 211.71C406.575 212.026 406.753 212.456 406.753 212.904C406.749 213.351 406.57 213.778 406.254 214.094C405.938 214.41 405.51 214.589 405.063 214.593C404.615 214.593 404.186 214.415 403.869 214.098C403.552 213.782 403.374 213.352 403.374 212.904C403.374 212.456 403.552 212.026 403.869 211.71C404.186 211.393 404.615 211.215 405.063 211.215Z" fill="white" stroke="#263238" stroke-linecap="round" stroke-linejoin="round"/>
<path d="M414.612 216.911C415.06 216.911 415.49 217.089 415.806 217.405C416.123 217.722 416.301 218.152 416.301 218.6C416.301 219.048 416.123 219.477 415.806 219.794C415.49 220.111 415.06 220.289 414.612 220.289C414.168 220.282 413.744 220.101 413.431 219.785C413.118 219.47 412.94 219.044 412.937 218.6C412.937 218.154 413.113 217.727 413.427 217.41C413.74 217.094 414.166 216.914 414.612 216.911Z" fill="white" stroke="#263238" stroke-linecap="round" stroke-linejoin="round"/>
<path d="M451.299 380.871H247.623C242.264 380.871 237.92 385.215 237.92 390.573V418.451C237.92 423.81 242.264 428.154 247.623 428.154H451.299C456.657 428.154 461.001 423.81 461.001 418.451V390.573C461.001 385.215 456.657 380.871 451.299 380.871Z" fill="#FF6B6C"/>
<path d="M562.755 186.911H492.271V189.731H562.755V186.911Z" fill="#263238"/>
<path d="M562.755 197.129H492.271V199.949H562.755V197.129Z" fill="#263238"/>
<path d="M562.755 207.348H492.271V210.168H562.755V207.348Z" fill="#263238"/>
<path d="M562.755 217.553H492.271V220.373H562.755V217.553Z" fill="#263238"/>
<path d="M562.755 227.771H492.271V230.591H562.755V227.771Z" fill="#263238"/>
<path d="M562.755 287.716H492.271V290.536H562.755V287.716Z" fill="#263238"/>
<path d="M562.755 297.935H492.271V300.755H562.755V297.935Z" fill="#263238"/>
<path d="M562.755 308.153H492.271V310.973H562.755V308.153Z" fill="#263238"/>
<path d="M562.755 318.372H492.271V321.192H562.755V318.372Z" fill="#263238"/>
<path d="M562.755 328.591H492.271V331.411H562.755V328.591Z" fill="#263238"/>
<path d="M562.755 385.924H492.271V388.744H562.755V385.924Z" fill="#263238"/>
<path d="M562.755 396.143H492.271V398.963H562.755V396.143Z" fill="#263238"/>
<path d="M562.755 406.362H492.271V409.182H562.755V406.362Z" fill="#263238"/>
<path d="M562.755 416.581H492.271V419.4H562.755V416.581Z" fill="#263238"/>
<path d="M562.755 426.799H492.271V429.619H562.755V426.799Z" fill="#263238"/>
<path opacity="0.3" d="M562.755 186.911H492.271V189.731H562.755V186.911Z" fill="white"/>
<path opacity="0.3" d="M562.755 197.129H492.271V199.949H562.755V197.129Z" fill="white"/>
<path opacity="0.3" d="M562.755 207.348H492.271V210.168H562.755V207.348Z" fill="white"/>
<path opacity="0.3" d="M562.755 217.553H492.271V220.373H562.755V217.553Z" fill="white"/>
<path opacity="0.3" d="M562.755 227.771H492.271V230.591H562.755V227.771Z" fill="white"/>
<path opacity="0.3" d="M562.755 287.716H492.271V290.536H562.755V287.716Z" fill="white"/>
<path opacity="0.3" d="M562.755 297.935H492.271V300.755H562.755V297.935Z" fill="white"/>
<path opacity="0.3" d="M562.755 308.153H492.271V310.973H562.755V308.153Z" fill="white"/>
<path opacity="0.3" d="M562.755 318.372H492.271V321.192H562.755V318.372Z" fill="white"/>
<path opacity="0.3" d="M562.755 328.591H492.271V331.411H562.755V328.591Z" fill="white"/>
<path opacity="0.3" d="M562.755 385.924H492.271V388.744H562.755V385.924Z" fill="white"/>
<path opacity="0.3" d="M562.755 396.143H492.271V398.963H562.755V396.143Z" fill="white"/>
<path opacity="0.3" d="M562.755 406.362H492.271V409.182H562.755V406.362Z" fill="white"/>
<path opacity="0.3" d="M562.755 416.581H492.271V419.4H562.755V416.581Z" fill="white"/>
<path opacity="0.3" d="M562.755 426.799H492.271V429.619H562.755V426.799Z" fill="white"/>
<path d="M455.766 392.597H243.951V395.417H455.766V392.597Z" fill="white"/>
<path d="M455.766 403.193H243.951V406.013H455.766V403.193Z" fill="white"/>
<path d="M455.766 413.802H243.951V416.622H455.766V413.802Z" fill="white"/>
<path d="M259.502 317.032L242.904 332.527C240.869 330.346 239.283 327.785 238.237 324.991C237.192 322.197 236.707 319.224 236.811 316.242C236.914 313.26 237.605 310.328 238.842 307.613C240.079 304.898 241.839 302.454 244.021 300.419C248.182 296.426 253.75 294.234 259.516 294.319L259.502 317.032Z" fill="#263238"/>
<path d="M259.502 317.032L279.926 307.12C282.259 312.007 282.771 317.567 281.368 322.797C279.966 328.028 276.741 332.586 272.276 335.65C267.811 338.715 262.399 340.084 257.014 339.511C251.629 338.939 246.625 336.462 242.904 332.527L259.502 317.032Z" fill="#FF6B6C"/>
<path d="M259.502 317.032V294.305C263.785 294.221 267.998 295.389 271.626 297.666C275.254 299.942 278.139 303.228 279.926 307.12L259.502 317.032Z" fill="#263238"/>
<path opacity="0.3" d="M259.502 317.032L242.904 332.527C240.869 330.346 239.283 327.785 238.237 324.991C237.192 322.197 236.707 319.224 236.811 316.242C236.914 313.26 237.605 310.328 238.842 307.613C240.079 304.898 241.839 302.454 244.021 300.419C248.182 296.426 253.75 294.234 259.516 294.319L259.502 317.032Z" fill="white"/>
<path d="M470.633 609.842C470.633 609.842 473.425 617.702 471.89 616.823C470.131 615.737 468.777 614.103 468.037 612.174C467.299 610.419 466.085 608.906 464.533 607.804L460.931 605.012C460.931 605.012 464.295 603.616 466.376 604.607C468.456 605.599 470.633 609.842 470.633 609.842Z" fill="white" stroke="#263238" stroke-miterlimit="10" stroke-linecap="round"/>
<path d="M472.462 606.687C472.462 606.687 477.292 616.055 476.427 616.808C475.561 617.562 475.031 617.478 473.216 615.789C471.401 614.1 469.196 608.809 469.196 608.809L465.245 604.621C465.245 604.621 470.954 602.695 472.462 606.687Z" fill="white" stroke="#263238" stroke-miterlimit="10" stroke-linecap="round"/>
<path d="M451.913 594.445C451.913 594.445 461.992 596.148 464.31 596.483C466.627 596.818 469.572 599.652 471.918 601.439C474.263 603.226 481.69 609.159 480.95 610.876C480.21 612.593 477.418 611.029 474.891 609.103C472.364 607.176 470.48 605.18 466.864 605.836C464.424 606.343 462.088 607.258 459.954 608.544C461.552 610.387 463.298 612.096 465.175 613.654C467.506 615.441 470.424 619.084 469.237 619.88C468.051 620.676 466.334 621.081 463.723 618.484C461.113 615.887 452.471 612.621 450.126 609.564C444.696 602.458 438.065 602.193 438.065 602.193L449.624 592.979L451.913 594.445Z" fill="white" stroke="#263238" stroke-linecap="round" stroke-linejoin="round"/>
<path d="M450.126 592.686L402.523 571.927L402.369 571.857L401.755 571.578C401.755 571.578 401.573 563.398 401.224 553.528V553.291C400.973 545.501 400.61 536.72 400.177 530.145C400.177 529.88 400.177 529.614 400.108 529.335C399.996 527.73 399.884 526.278 399.745 525.022L399.577 523.332C399.047 518.67 398.181 511.187 397.008 503.035C396.939 502.546 396.855 502.071 396.771 501.639C395.236 491.336 393.142 480.14 390.405 472.169C390.412 472.109 390.412 472.048 390.405 471.988C389.926 470.528 389.362 469.097 388.716 467.702C388.605 467.409 388.451 467.143 388.325 466.864L384.626 466.055C383.383 465.775 381.834 465.454 380.228 465.119H380.103C373.947 463.793 365.794 462.146 361.033 461.476H360.698C360.112 461.392 359.582 461.336 359.121 461.294H358.8C358.8 461.169 358.604 460.694 358.339 460.024C357.348 457.581 354.738 452.444 349.726 450.392C348.029 449.694 346.195 449.398 344.365 449.526C344.338 449.515 344.308 449.515 344.281 449.526C344.281 449.526 344.184 449.526 344.142 449.526L342.495 449.652L339.228 449.903C333.351 450.364 328.898 450.657 326.762 450.796H326.05H325.547H325.268C325.072 450.856 324.88 450.931 324.696 451.02C323.146 451.787 318.972 454.859 317.046 465.943C316.92 466.613 316.864 467.032 316.864 467.032L315.384 467.437L309.912 468.833L274.663 478.605C274.663 478.605 272.499 486.981 269.358 499.419L269.274 499.768L263.383 523.109L262.964 524.84C255.887 552.914 247.888 585.105 245.919 594.64C245.797 595.213 245.843 595.808 246.051 596.355C246.259 596.903 246.62 597.378 247.092 597.725C251.699 601.146 267.46 610.736 303.225 614.729C303.225 614.729 301.731 626.134 302.401 626.706H391.229L390.07 612.537L389.484 608.712L388.786 604.217L387.697 597.237L386.748 591.164L387.348 591.276L387.865 591.36L438.637 602.346L450.126 592.686ZM324.053 576.925C322.806 580.66 321.217 584.272 319.307 587.716C318.246 589.712 317.45 591.108 317.45 591.108L278.362 580.652H278.181L295.826 526.208L295.91 526.027L324.081 576.897C324.081 576.897 324.053 576.897 324.053 576.925Z" fill="#FF6B6C"/>
<path opacity="0.3" d="M392.332 541.69V578.949L443.663 599.512L438.511 602.29L386.622 591.122L385.128 575.766L386.58 550.945L392.332 541.69Z" fill="black"/>
<path d="M391.592 493.57L391.829 512.165C391.829 512.165 395.682 527.088 394.928 532.253C394.175 537.418 389.344 547.846 386.552 550.945L385.156 575.766L387.334 599.038" stroke="#263238" stroke-linecap="round" stroke-linejoin="round"/>
<path d="M356.58 368.823C360.291 371.164 363.21 374.57 364.956 378.595C366.383 382.541 367.184 386.686 367.33 390.88C367.89 396.94 368.067 403.029 367.86 409.112C367.357 420.28 364.873 431.629 367.302 442.616C368.907 449.875 373.723 454.384 373.723 462.969L358.772 461.127C358.772 461.127 354.151 451.355 344.016 449.303L343.332 447.558C343.332 447.558 351.248 448.2 357.292 433.221C363.337 418.242 361.704 401.615 361.704 401.615V384.793L356.58 368.823Z" fill="#263238"/>
<path d="M325.352 440.285L326.371 461.127C326.371 461.127 343.444 491.071 349.154 491.937C354.863 492.802 349.154 461.225 346.766 456.841C344.379 452.458 342.578 442.016 342.578 442.016L325.352 440.285Z" fill="white"/>
<path d="M323.202 374.868C321.722 373.961 308.111 373.36 306.241 378.121C303.532 385.101 307.958 404.645 307.274 404.561C304.021 404.463 298.898 403.277 299.638 409.084C300.377 414.891 304.817 420.489 308.014 420.978L311.182 421.467C312.22 425.495 314.042 429.28 316.542 432.604C319.043 435.929 322.174 438.729 325.757 440.843C338.321 448.912 347.618 449.931 351.974 442.839C356.739 435.936 359.905 428.058 361.243 419.777C365.431 378.805 354.947 369.619 354.947 369.619C354.947 369.619 324.668 375.776 323.202 374.868Z" fill="white"/>
<path d="M342.188 372.132C342.188 372.132 335.557 400.331 314.672 406.585C314.672 406.585 314.924 438.847 338.781 445.924C338.781 445.924 342.048 468.26 328.158 464.198L325.366 458.46V440.312C325.366 440.312 312.872 430.848 312.285 421.313C312.285 421.313 305.85 421.313 303.211 417.125C300.573 412.937 298.87 407.506 300.21 404.491C301.55 401.476 310.624 401.476 310.624 401.476L342.188 372.132Z" fill="#FF6B6C"/>
<path opacity="0.5" d="M342.188 372.132C342.188 372.132 335.557 400.331 314.672 406.585C314.672 406.585 314.924 438.847 338.781 445.924C338.781 445.924 342.048 468.26 328.158 464.198L325.366 458.46V440.312C325.366 440.312 312.872 430.848 312.285 421.313C312.285 421.313 305.85 421.313 303.211 417.125C300.573 412.937 298.87 407.506 300.21 404.491C301.55 401.476 310.624 401.476 310.624 401.476L342.188 372.132Z" fill="white"/>
<path d="M308.851 405.44C308.851 405.44 340.261 390.601 342.188 372.132C342.188 372.132 351.024 391.787 364.942 399.256C364.942 399.256 375.301 364.593 343.262 366.617C343.262 366.617 320.117 353.104 304.914 366.771C289.712 380.438 293.551 417.962 282.411 439.935C271.271 461.908 232.853 477.236 265.561 513.421L274.454 479.666L316.808 466.92C316.808 466.92 318.358 455.18 326.678 452.262L326.273 441.234C326.273 441.234 315.021 433.835 311.168 421.466C311.168 421.466 304.3 421.271 300.573 412.713C296.845 404.156 302.932 401.88 308.851 405.44Z" fill="#263238"/>
<g opacity="0.2">
<path opacity="0.2" d="M334.635 368.684C328.813 382.426 318.758 393.953 305.933 401.587" stroke="#263238" stroke-linecap="round" stroke-linejoin="round"/>
<path opacity="0.2" d="M323.146 364.998C317.141 377.406 310.049 389.257 301.955 400.415" stroke="#263238" stroke-linecap="round" stroke-linejoin="round"/>
<path opacity="0.2" d="M297.739 418.27C296.985 427.567 292.56 436.166 287.534 444.026C282.509 451.885 276.771 459.382 272.904 467.841C269.037 476.301 267.166 486.227 270.307 495.008" stroke="#263238" stroke-linecap="round" stroke-linejoin="round"/>
<path opacity="0.2" d="M303.546 420.88C304.99 438 303.011 455.236 297.725 471.583" stroke="#263238" stroke-linecap="round" stroke-linejoin="round"/>
</g>
<path d="M274.454 479.666L274.97 479.512L274.468 479.694L266.259 515.32L258.26 547.33L266.636 512.96L274.454 479.666Z" fill="#FF6B6C"/>
<path opacity="0.5" d="M274.454 479.666L274.97 479.512L274.468 479.694L266.259 515.32L258.26 547.33L266.636 512.96L274.454 479.666Z" fill="white"/>
<path d="M350.675 491.029C350.524 491.205 350.335 491.343 350.122 491.432C349.909 491.522 349.677 491.561 349.447 491.546H349.363C345.44 491.35 334.16 475.841 332.876 474.068C326.12 464.785 325.896 463.905 325.198 456.883L325.073 455.487C324.64 451.369 324.402 447.349 324.277 444.389C324.277 443.482 324.277 442.7 324.207 442.03C324.863 442.365 325.603 442.658 326.175 442.951C326.175 443.412 326.175 443.914 326.175 444.459C326.175 444.71 326.175 444.989 326.175 445.282C326.301 448.074 326.524 451.69 326.901 455.348L327.041 456.744C327.697 463.5 327.753 463.724 334.37 472.993C341.88 483.421 347.716 489.284 349.321 489.633C349.485 489.501 349.69 489.428 349.9 489.428C350.111 489.428 350.316 489.501 350.48 489.633C350.59 489.708 350.683 489.805 350.753 489.917C350.824 490.03 350.869 490.156 350.888 490.288C350.906 490.419 350.897 490.553 350.86 490.681C350.824 490.809 350.761 490.928 350.675 491.029Z" fill="#263238"/>
<path d="M351.276 487.665C351.255 487.899 351.148 488.118 350.975 488.278C350.802 488.438 350.576 488.528 350.34 488.53C350.083 488.502 349.848 488.373 349.685 488.172C349.523 487.97 349.447 487.713 349.475 487.455C349.475 487.33 350.871 473.495 348.539 464.338C347.534 460.373 345.954 456.578 343.849 453.072C343.01 451.96 342.485 450.644 342.327 449.261C342.327 449.037 342.327 448.8 342.327 448.577C342.327 448.353 342.327 448.298 342.327 448.158C342.327 447.6 342.327 447.069 342.243 446.539C342.88 446.587 343.519 446.587 344.156 446.539C344.156 446.902 344.156 447.278 344.24 447.641C344.323 448.004 344.24 448.284 344.24 448.605C344.24 448.926 344.24 449.149 344.24 449.428C344.462 450.384 344.855 451.292 345.398 452.109C347.617 455.756 349.269 459.719 350.298 463.863C352.713 473.314 351.345 487.092 351.276 487.665Z" fill="#263238"/>
<path d="M336.436 483.533C336.37 483.415 336.281 483.312 336.173 483.231C336.066 483.149 335.942 483.091 335.811 483.06C335.68 483.028 335.544 483.024 335.411 483.048C335.278 483.072 335.152 483.123 335.04 483.198C333.233 484.7 331.694 486.499 330.489 488.516C328.492 491.689 326.897 495.098 325.743 498.665L315.566 475.771C315.775 474.277 317.255 467.702 318.567 462.104C319.69 458.158 321.989 454.647 325.156 452.039C325.251 451.949 325.326 451.841 325.378 451.721C325.429 451.601 325.456 451.471 325.456 451.341C325.456 451.21 325.429 451.081 325.378 450.961C325.326 450.841 325.251 450.733 325.156 450.643C325.076 450.54 324.976 450.454 324.862 450.39C324.748 450.325 324.623 450.284 324.493 450.269C324.363 450.253 324.232 450.263 324.106 450.299C323.98 450.334 323.863 450.394 323.76 450.475C320.246 453.357 317.714 457.26 316.515 461.643C315.021 467.981 313.458 475.673 313.458 475.673V476.036L325.77 503.677H326.175L326.72 501.695C327.974 497.498 329.747 493.475 331.997 489.717C333.082 487.939 334.417 486.327 335.961 484.929C336.092 484.878 336.21 484.799 336.308 484.697C336.405 484.596 336.478 484.474 336.524 484.341C336.569 484.208 336.584 484.067 336.569 483.927C336.554 483.788 336.509 483.653 336.436 483.533Z" fill="#263238"/>
<path d="M369.144 495.859L369.451 495.748L368.879 492.258C368.739 491.392 365.487 471.108 358.088 459.507C350.689 447.907 344.979 448.339 344.728 448.339C344.505 448.405 344.311 448.546 344.182 448.74C344.052 448.933 343.995 449.166 344.02 449.397C344.045 449.629 344.15 449.844 344.318 450.005C344.486 450.167 344.705 450.264 344.937 450.28C344.937 450.28 349.81 450.084 356.468 460.499C361.522 468.428 364.761 481.439 366.157 488.307C364.219 485.525 361.865 483.058 359.177 480.992C358.308 480.407 357.327 480.007 356.297 479.818C355.267 479.628 354.208 479.652 353.188 479.889C352.966 479.986 352.789 480.163 352.692 480.385C352.594 480.607 352.584 480.858 352.664 481.087C352.743 481.316 352.906 481.506 353.119 481.621C353.333 481.735 353.582 481.765 353.816 481.704C355.371 481.44 356.968 481.791 358.269 482.681C360.67 484.077 365.487 490.582 367.134 492.9L369.144 495.859Z" fill="#263238"/>
<path d="M342.62 559.656C342.532 559.659 342.445 559.634 342.371 559.587C342.296 559.54 342.237 559.472 342.202 559.391C342.141 559.282 342.126 559.153 342.16 559.033C342.194 558.913 342.274 558.811 342.383 558.749L372.048 542.332C372.17 542.286 372.306 542.289 372.426 542.341C372.546 542.394 372.641 542.49 372.69 542.611C372.732 542.712 372.738 542.823 372.708 542.927C372.677 543.031 372.612 543.122 372.523 543.184L342.872 559.587C342.794 559.629 342.708 559.653 342.62 559.656Z" fill="#263238"/>
<path d="M358.046 554.728C357.962 554.721 357.881 554.692 357.811 554.646C357.74 554.6 357.682 554.537 357.641 554.463C357.61 554.41 357.591 554.35 357.584 554.289C357.577 554.227 357.583 554.165 357.601 554.106C357.619 554.047 357.65 553.993 357.69 553.946C357.731 553.899 357.781 553.861 357.837 553.835L373.933 545.459C373.987 545.425 374.048 545.402 374.111 545.393C374.174 545.384 374.239 545.388 374.301 545.405C374.362 545.422 374.42 545.452 374.469 545.492C374.519 545.533 374.56 545.583 374.589 545.64C374.62 545.698 374.639 545.761 374.646 545.826C374.652 545.891 374.645 545.957 374.626 546.02C374.606 546.082 374.574 546.14 374.532 546.19C374.49 546.24 374.438 546.281 374.379 546.31L358.297 554.687C358.218 554.721 358.132 554.736 358.046 554.728Z" fill="#263238"/>
<path d="M290.787 505.506C290.693 505.502 290.602 505.471 290.525 505.416C290.448 505.362 290.389 505.286 290.354 505.199C286.659 497.329 282.463 489.705 277.79 482.374C277.722 482.269 277.698 482.14 277.724 482.017C277.75 481.894 277.824 481.787 277.93 481.718C277.984 481.685 278.044 481.664 278.106 481.655C278.168 481.645 278.232 481.649 278.293 481.664C278.354 481.68 278.411 481.707 278.462 481.745C278.512 481.783 278.554 481.831 278.586 481.886C283.301 489.276 287.54 496.961 291.275 504.892C291.323 505.01 291.324 505.143 291.277 505.263C291.231 505.382 291.14 505.479 291.024 505.534L290.787 505.506Z" fill="#263238"/>
<path d="M357.865 518.265C357.754 518.278 357.643 518.249 357.553 518.185C357.463 518.12 357.4 518.024 357.376 517.916C355.331 509.235 352.485 500.762 348.874 492.606C348.823 492.492 348.818 492.361 348.863 492.243C348.907 492.125 348.997 492.03 349.112 491.978C349.226 491.926 349.357 491.922 349.475 491.967C349.593 492.011 349.688 492.101 349.74 492.215C353.405 500.449 356.279 509.013 358.325 517.79C358.345 517.914 358.316 518.041 358.242 518.143C358.169 518.245 358.058 518.314 357.934 518.335L357.865 518.265Z" fill="#263238"/>
<path d="M389.582 465.999C389.637 466.79 389.707 467.753 389.791 468.889C389.512 468.554 389.316 468.302 389.177 468.121C387.041 465.259 371.434 463.584 360.838 463.123C360.098 463.123 359.358 463.053 358.688 463.053C358.688 463.053 358.618 463.053 358.604 463.053C358.366 463.029 358.147 462.913 357.991 462.732C357.835 462.55 357.755 462.315 357.767 462.076C357.778 461.952 357.807 461.83 357.851 461.713C357.931 461.543 358.06 461.4 358.221 461.303C358.383 461.206 358.57 461.159 358.758 461.169L360.475 461.238C365.808 461.49 380.619 462.313 387.543 465.036C388.255 465.284 388.938 465.607 389.582 465.999Z" fill="#263238"/>
<path d="M395.068 525.859C395.194 526.543 395.277 527.255 395.389 527.884L394.901 527.59C394.785 527.522 394.684 527.431 394.606 527.322C394.527 527.213 394.472 527.089 394.445 526.957C394.417 526.826 394.417 526.69 394.445 526.559C394.473 526.427 394.529 526.303 394.607 526.194C394.607 526.194 394.677 526.083 394.719 526.069C394.805 525.958 394.93 525.883 395.068 525.859Z" fill="#263238"/>
<path d="M362.96 398.782C362.96 398.53 362.96 398.307 362.96 398.056C362.96 396.241 362.821 394.398 362.723 392.583V392.234L361.969 393.63L361.787 393.951L361.103 395.18C361.103 395.724 361.103 396.283 361.103 396.827C361.103 397.134 361.103 397.427 361.103 397.721C361.215 403.081 360.936 408.707 360.503 414.124C360.336 416.357 360.112 418.535 359.903 420.643C358.75 428.446 355.786 435.871 351.248 442.323C351.248 442.323 351.248 442.323 351.248 442.407C350.916 443.001 350.497 443.542 350.005 444.012C349.233 444.813 348.307 445.449 347.283 445.883L346.669 446.12C346.414 446.214 346.153 446.288 345.887 446.343C345.509 446.426 345.127 446.487 344.742 446.525C344.542 446.539 344.342 446.539 344.142 446.525H343.514C343.095 446.525 342.662 446.525 342.23 446.525C341.074 446.418 339.93 446.212 338.809 445.911C335.468 444.933 332.267 443.525 329.289 441.723C328.688 441.36 328.06 440.997 327.432 440.592C327.385 440.572 327.342 440.544 327.306 440.508L326.58 440.047C319.605 435.891 314.53 429.173 312.439 421.327L312.313 420.629L308.432 420.029C305.64 419.596 301.564 414.333 300.894 408.972C300.763 408.503 300.734 408.011 300.809 407.53C300.883 407.048 301.06 406.588 301.327 406.18C302.122 405.217 304.189 405.343 305.975 405.454C306.438 405.516 306.904 405.548 307.371 405.552C307.92 405.587 308.47 405.587 309.019 405.552L307.874 403.835H307.427L306.157 403.64C304.133 403.514 301.871 403.374 300.363 404.505C300.242 404.575 300.137 404.67 300.056 404.784C299.975 404.817 299.903 404.87 299.847 404.938C299.126 405.839 298.723 406.953 298.702 408.107V408.288C298.694 408.311 298.694 408.336 298.702 408.358C298.726 408.684 298.782 409.007 298.87 409.321C299.378 412.765 300.827 416.002 303.058 418.675C304.272 420.346 306.029 421.545 308.028 422.067L310.582 422.458C312.884 430.489 318.127 437.358 325.268 441.695L325.394 441.778H325.464C325.771 441.974 326.05 442.183 326.357 442.365L327.139 442.853L327.753 443.23C328.067 443.436 328.394 443.622 328.73 443.789L329.023 443.928L329.61 444.235C332.6 445.836 335.774 447.069 339.061 447.907C339.591 448.046 340.122 448.172 340.68 448.284C341.233 448.39 341.793 448.459 342.355 448.493H342.858C343.165 448.493 343.486 448.493 343.793 448.493H344.673H345.091C345.321 448.479 345.549 448.451 345.775 448.409H346.166C346.297 448.378 346.423 448.331 346.543 448.27C346.676 448.25 346.807 448.218 346.934 448.172C349.382 447.394 351.453 445.732 352.741 443.509C357.264 436.083 360.601 430.094 362.15 420.015C362.388 417.628 362.569 415.254 362.709 412.867C362.96 408.177 363.072 403.444 362.96 398.782Z" fill="#263238"/>
<path d="M340.624 403.737C340.624 405.301 340.024 406.529 339.228 406.529C338.432 406.529 337.832 405.259 337.832 403.737C337.832 402.216 338.446 400.945 339.228 400.945C340.01 400.945 340.624 402.188 340.624 403.737Z" fill="#263238"/>
<path d="M356.901 404.742C356.901 406.306 356.287 407.534 355.505 407.534C354.724 407.534 354.109 406.264 354.109 404.742C354.109 403.221 354.696 401.95 355.505 401.95C356.315 401.95 356.887 403.221 356.901 404.742Z" fill="#263238"/>
<path d="M329.456 395.417C329.283 395.389 329.119 395.317 328.981 395.208C328.78 395.039 328.653 394.797 328.629 394.536C328.606 394.274 328.687 394.013 328.856 393.812C330.209 392.329 331.917 391.215 333.82 390.575C335.722 389.935 337.757 389.791 339.731 390.154C339.856 390.173 339.977 390.216 340.086 390.282C340.195 390.348 340.29 390.434 340.365 390.537C340.441 390.639 340.495 390.756 340.525 390.879C340.555 391.003 340.56 391.131 340.54 391.257C340.499 391.509 340.36 391.735 340.154 391.887C339.948 392.038 339.691 392.103 339.437 392.067C337.805 391.766 336.123 391.887 334.55 392.417C332.977 392.947 331.565 393.869 330.447 395.096C330.324 395.231 330.168 395.332 329.994 395.388C329.82 395.445 329.635 395.455 329.456 395.417Z" fill="#263238"/>
<path d="M359.945 398.949C359.811 398.927 359.682 398.879 359.567 398.807C359.452 398.735 359.353 398.641 359.275 398.53C358.544 397.282 357.448 396.288 356.135 395.682C354.823 395.075 353.356 394.886 351.932 395.138C351.68 395.193 351.417 395.148 351.198 395.012C350.979 394.877 350.822 394.662 350.759 394.412C350.725 394.293 350.716 394.168 350.732 394.045C350.748 393.923 350.788 393.804 350.851 393.697C350.913 393.591 350.997 393.497 351.096 393.424C351.196 393.35 351.309 393.297 351.429 393.267C353.242 392.909 355.121 393.119 356.81 393.869C358.499 394.618 359.915 395.871 360.866 397.455C360.947 397.56 361.005 397.679 361.039 397.807C361.072 397.935 361.079 398.068 361.059 398.198C361.04 398.329 360.994 398.454 360.925 398.566C360.856 398.678 360.764 398.775 360.657 398.851C360.44 398.972 360.186 399.007 359.945 398.949Z" fill="#263238"/>
<path d="M345.677 420.266C345.445 420.209 345.241 420.069 345.105 419.872C344.969 419.675 344.91 419.435 344.939 419.197C344.969 418.96 345.084 418.741 345.264 418.583C345.444 418.425 345.675 418.338 345.915 418.34C345.915 418.34 348.455 418.647 349.223 416.944C349.614 416.134 349.377 415.548 348.888 414.64C348.269 413.458 347.93 412.149 347.897 410.815C347.983 408.191 348.3 405.58 348.846 403.011C348.873 402.888 348.924 402.77 348.995 402.666C349.067 402.562 349.159 402.473 349.265 402.404C349.372 402.336 349.49 402.288 349.615 402.266C349.74 402.243 349.867 402.245 349.991 402.272C350.115 402.298 350.232 402.349 350.336 402.421C350.441 402.493 350.53 402.584 350.598 402.691C350.667 402.797 350.714 402.916 350.737 403.04C350.76 403.165 350.758 403.293 350.731 403.416C350.213 405.847 349.909 408.318 349.824 410.801C349.851 411.856 350.128 412.89 350.633 413.817C351.014 414.416 351.241 415.101 351.295 415.809C351.348 416.518 351.227 417.229 350.94 417.879C349.6 420.713 345.859 420.294 345.677 420.266Z" fill="#263238"/>
<path d="M336.436 426.604C334.191 426.325 332.121 425.25 330.601 423.574C330.516 423.475 330.451 423.36 330.411 423.236C330.371 423.111 330.357 422.98 330.369 422.85C330.38 422.72 330.418 422.593 330.48 422.478C330.541 422.362 330.625 422.261 330.726 422.178C330.823 422.089 330.937 422.02 331.061 421.977C331.186 421.933 331.318 421.916 331.449 421.927C331.58 421.937 331.708 421.975 331.824 422.038C331.94 422.1 332.042 422.186 332.122 422.29C333.035 423.166 334.122 423.839 335.313 424.265C336.504 424.691 337.772 424.86 339.033 424.761C339.287 424.745 339.538 424.83 339.731 424.997C339.924 425.164 340.044 425.4 340.066 425.654C340.089 425.908 340.011 426.16 339.849 426.356C339.687 426.553 339.454 426.677 339.2 426.701C338.278 426.769 337.351 426.737 336.436 426.604Z" fill="#263238"/>
<path d="M388.856 466.906C388.856 466.906 403.207 508.689 401.043 571.299L450.126 592.686L438.511 602.304L386.622 591.136" stroke="#263238" stroke-linecap="round" stroke-linejoin="round"/>
<path d="M344.812 488.6L343.96 501.834L351.792 508.144L356.86 507.237L358.437 498.33L350.968 486.478C350.968 486.478 353.635 492.216 344.812 488.6Z" fill="#263238"/>
<path d="M351.722 508.158L355.924 577.707L367.26 587.786L373.081 572.235L355.91 502.909L351.722 508.158Z" fill="#263238"/>
<path d="M332.681 485.515L346.766 493.57V489.256L338.153 480.992C335.939 481.954 334.042 483.522 332.681 485.515Z" fill="#263238"/>
<path d="M348.874 491.867L350.452 480.698C350.452 480.698 356.399 478.758 358.367 481.62L351.178 495.412L348.874 491.867Z" fill="#263238"/>
<path d="M339.717 395.068C341.424 395.252 343.039 395.939 344.357 397.041C345.675 398.143 346.636 399.611 347.119 401.26C347.602 402.908 347.585 404.663 347.07 406.302C346.556 407.941 345.567 409.39 344.228 410.467C342.89 411.544 341.262 412.199 339.551 412.351C337.84 412.502 336.122 412.142 334.615 411.317C333.109 410.492 331.881 409.239 331.086 407.715C330.292 406.192 329.968 404.468 330.154 402.76C330.276 401.627 330.62 400.528 331.166 399.528C331.713 398.528 332.452 397.645 333.34 396.931C334.228 396.216 335.249 395.684 336.343 395.364C337.437 395.045 338.583 394.944 339.717 395.068V395.068Z" stroke="#263238" stroke-linecap="round" stroke-linejoin="round"/>
<path d="M359.233 397.232C363.504 397.678 366.562 401.922 366.045 406.683C365.529 411.443 361.648 414.947 357.376 414.486C353.104 414.026 350.047 409.782 350.564 405.021C351.08 400.261 354.961 396.771 359.233 397.232Z" stroke="#263238" stroke-linecap="round" stroke-linejoin="round"/>
<path d="M329.624 402.788L307.972 401.378" stroke="#263238" stroke-linecap="round" stroke-linejoin="round"/>
<path d="M347.674 402.048L351.248 402.425" stroke="#263238" stroke-linecap="round" stroke-linejoin="round"/>
<path d="M277.65 580.917C267.711 579.898 258.302 591.583 258.302 591.583" stroke="#263238" stroke-linecap="round" stroke-linejoin="round"/>
<path d="M255.957 583.346C255.957 583.346 269.33 575.878 280.763 581.713" stroke="#263238" stroke-linecap="round" stroke-linejoin="round"/>
<path d="M401.043 571.299C401.043 571.299 392.751 574.984 390.866 582.467" stroke="#263238" stroke-linecap="round" stroke-linejoin="round"/>
<path d="M313.234 359.233C318.818 354.752 337.553 354.919 343.095 368.209" stroke="#263238" stroke-linecap="round" stroke-linejoin="round"/>
<path opacity="0.3" d="M330.754 593.467L332.681 583.332L348.874 576.869H334.705L349.516 568.172L333.825 571.299C333.825 571.299 303.351 522.271 289.837 501.904C288.023 499.182 286.529 496.976 285.44 495.468L289.405 510.671L289.977 512.862L290.912 516.45L292.867 523.933L283.276 512.569L286.948 525.901L268.367 578.391L260.968 581.252H260.843L258.316 582.23L268.353 583.151L261.052 588.651L275.012 586.18L369.34 608.084L370.303 604.608L330.754 593.467ZM319.307 587.73C318.246 589.726 317.45 591.122 317.45 591.122L278.362 580.666H278.181L296.427 526.515C296.859 527.367 322.406 573.882 324.081 576.911L319.307 587.73Z" fill="black"/>
<path d="M251.113 572.835L272.932 486.492" stroke="#263238" stroke-linecap="round" stroke-linejoin="round"/>
<path d="M303.267 614.379L302.653 614.31" stroke="#263238" stroke-linecap="round" stroke-linejoin="round"/>
<path d="M405.678 602.681C400.736 599.233 395.194 599.498 390.489 599.666C387.111 599.778 379.209 602.919 371.322 604.887C370.826 604.985 370.318 605.009 369.814 604.957C369.814 605.725 368.418 611.825 367.818 615.064C368.646 615.066 369.471 614.967 370.275 614.771C370.954 614.638 371.656 614.681 372.313 614.896C374.092 615.455 375.92 615.848 377.772 616.069C380.885 616.516 386.79 615.873 388.94 618.498C390.775 620.578 392.867 622.417 395.166 623.97C397.008 625.366 399.186 626.874 401.587 626.567C403.57 626.315 401.071 624.71 400.498 624.18C398.798 622.379 397.261 620.431 395.906 618.358C395.431 617.73 393.853 615.148 393.044 614.994C393.837 615.15 394.639 615.262 395.445 615.329C396.534 615.413 397.637 616.39 399.061 617.507C400.268 618.52 401.541 619.453 402.872 620.299C403.458 620.732 410.438 624.682 410.061 621.695C409.935 620.773 408.358 619.643 407.758 619.028C404.713 615.922 401.317 613.181 397.637 610.862L403.332 612.397C404.336 612.992 405.301 613.649 406.222 614.366C406.739 614.799 407.325 615.273 407.953 615.762C409 616.571 411.876 618.219 413.202 617.577C415.338 616.557 408.777 610.262 407.744 609.452C406.711 608.642 400.875 605.18 400.596 604.957L399.382 604.342L399.186 604.189C402.048 605.309 404.805 606.683 407.423 608.293C409.559 609.954 411.862 612.886 414.235 611.295C416.608 609.703 410.619 606.129 405.678 602.681Z" fill="white" stroke="#263238" stroke-linecap="round" stroke-linejoin="round"/>
<path d="M296.399 526.459L277.65 580.904L370.275 604.636L367.148 615.762C346.213 617.247 325.187 616.827 304.328 614.505L303.379 614.38" stroke="#263238" stroke-linecap="round" stroke-linejoin="round"/>
<path d="M288.693 512.011L324.053 576.911L319.642 587.088" stroke="#263238" stroke-linecap="round" stroke-linejoin="round"/>
<path d="M592.979 626.734H105.021" stroke="#263238" stroke-linecap="round" stroke-linejoin="round"/>
<path d="M511.801 623.761H447.641V626.748H511.801V623.761Z" fill="white" stroke="#263238" stroke-linecap="round" stroke-linejoin="round"/>
<path d="M561.164 517.804H422.848V607.009H561.164V517.804Z" fill="white" stroke="#263238" stroke-linecap="round" stroke-linejoin="round"/>
<path d="M561.15 517.804H430.387V607.009H561.15V517.804Z" fill="#263238" stroke="#263238" stroke-linecap="round" stroke-linejoin="round"/>
<path d="M483.03 559.251H513.295L514.398 627.013H484.133L483.03 559.251Z" fill="white" stroke="#263238" stroke-linecap="round" stroke-linejoin="round"/>
<path d="M516.087 558.023H485.822V626.888H516.087V558.023Z" fill="#263238" stroke="#263238" stroke-linecap="round" stroke-linejoin="round"/>
<path d="M516.799 607.218V560.061H483.812" stroke="#263238" stroke-linecap="round" stroke-linejoin="round"/>
<path d="M421.885 622.169H329.233V627.013H421.885V622.169Z" fill="white" stroke="#263238" stroke-linecap="round" stroke-linejoin="round"/>
<path d="M469.126 622.169H353.188V627.013H469.126V622.169Z" fill="white" stroke="#263238" stroke-linecap="round" stroke-linejoin="round"/>
<path d="M147.027 560.815C148.38 557.755 149.079 554.445 149.079 551.099C149.079 547.753 148.38 544.443 147.027 541.383C142.434 530.801 129.312 530.215 129.312 530.215C129.312 530.215 133.192 534.124 133.332 543.295C133.472 552.467 138.497 559.796 147.027 560.815Z" fill="#FF6B6C"/>
<path d="M140.521 566.552C140.521 566.552 135.705 554.352 126.045 551.727C116.385 549.103 108.846 556.892 102.857 554.756C102.857 554.756 116.873 574.216 140.521 566.552Z" fill="#FF6B6C"/>
<path d="M177.069 553.961C177.069 553.961 181.131 535.519 159.772 532.713C159.772 532.713 161.769 534.109 163.095 540.308C164.421 546.506 165.063 553.193 177.069 553.961Z" fill="#FF6B6C"/>
<path d="M176.845 584.03C176.845 584.03 179.037 567.279 203.914 569.889C203.914 569.889 200.661 571.397 198.33 576.869C195.998 582.341 193.514 588.093 176.845 584.03Z" fill="#FF6B6C"/>
<path d="M188.348 546.953C188.348 546.953 193.625 529.712 212.08 533.174C212.094 533.174 210.112 552.327 188.348 546.953Z" fill="#FF6B6C"/>
<path opacity="0.3" d="M147.027 560.815C148.38 557.755 149.079 554.445 149.079 551.099C149.079 547.753 148.38 544.443 147.027 541.383C142.434 530.801 129.312 530.215 129.312 530.215C129.312 530.215 133.192 534.124 133.332 543.295C133.472 552.467 138.497 559.796 147.027 560.815Z" fill="white"/>
<path opacity="0.3" d="M140.521 566.552C140.521 566.552 135.705 554.352 126.045 551.727C116.385 549.103 108.846 556.892 102.857 554.756C102.857 554.756 116.873 574.216 140.521 566.552Z" fill="white"/>
<path opacity="0.3" d="M177.069 553.961C177.069 553.961 181.131 535.519 159.772 532.713C159.772 532.713 161.769 534.109 163.095 540.308C164.421 546.506 165.063 553.193 177.069 553.961Z" fill="white"/>
<path opacity="0.3" d="M176.845 584.03C176.845 584.03 179.037 567.279 203.914 569.889C203.914 569.889 200.661 571.397 198.33 576.869C195.998 582.341 193.514 588.093 176.845 584.03Z" fill="white"/>
<path opacity="0.3" d="M188.348 546.953C188.348 546.953 193.625 529.712 212.08 533.174C212.094 533.174 210.112 552.327 188.348 546.953Z" fill="white"/>
<path d="M147.767 597.572H184.802L179.833 625.911H152.82L147.767 597.572Z" fill="#263238"/>
<path d="M168.469 600.936L180.81 559.405L194.575 532.1" stroke="#263238" stroke-linecap="round" stroke-linejoin="round"/>
<path d="M203.914 539.331L187.567 545.989" stroke="#263238" stroke-linecap="round" stroke-linejoin="round"/>
<path d="M173.216 545.989L180.391 560.815" stroke="#263238" stroke-linecap="round" stroke-linejoin="round"/>
<path d="M186.073 579.773L172.601 587.032" stroke="#263238" stroke-linecap="round" stroke-linejoin="round"/>
<path d="M142.378 550.317L168.469 609.214" stroke="#263238" stroke-linecap="round" stroke-linejoin="round"/>
<path d="M151.396 570.671L124.188 559" stroke="#263238" stroke-linecap="round" stroke-linejoin="round"/>
</svg>
