<svg width="715" height="715" viewBox="0 0 715 715" fill="none" xmlns="http://www.w3.org/2000/svg">
<path d="M357.5 669.654C530.728 669.654 671.156 588.575 671.156 488.559C671.156 388.543 530.728 307.464 357.5 307.464C184.272 307.464 43.8438 388.543 43.8438 488.559C43.8438 588.575 184.272 669.654 357.5 669.654Z" fill="#EBEBEB"/>
<path d="M135.707 360.517C80.0802 392.635 49.7213 433.804 44.6162 475.818L379.579 669.24C452.338 666.294 523.666 648.762 579.293 616.644C643.5 579.564 673.988 530.53 670.928 481.91L368.94 307.607C284.928 305.834 199.871 323.466 135.707 360.517Z" fill="#F5F5F5"/>
<path opacity="0.02" d="M167.224 571.728L518.761 369.054C532.447 361.175 534.377 349.478 523.051 342.957C511.726 336.436 491.491 337.537 477.806 345.431L126.555 548.233C112.87 556.127 110.825 567.796 122.122 574.274C133.419 580.752 153.539 579.622 167.224 571.728Z" fill="black"/>
<path d="M453.725 588.946C453.153 582.453 447.648 577.606 442.285 573.873C406.335 548.805 339.439 537.137 327.599 535.893C315.759 534.648 296.911 534.663 287.001 538.467C282.964 540.316 279.58 543.341 277.292 547.147C274.246 552.867 274.432 560.732 279.036 565.222C287.616 573.502 302.86 577.005 314.472 579.736C326.083 582.468 338.009 583.812 349.435 587.201C364.994 591.82 379.193 600.071 394.48 605.548C409.767 611.025 427.37 613.256 441.799 605.891C448.348 602.559 454.354 596.31 453.725 588.946Z" fill="#EBEBEB"/>
<path d="M145.946 54.1829L132.647 61.862C132.647 61.2614 132.761 60.6751 132.761 60.1031V56.2421C132.761 49.3924 127.942 46.6182 122.008 50.0359C119.453 51.6041 117.267 53.7066 115.601 56.1992C114.629 47.6192 107.865 44.3731 99.6427 49.0492C90.7624 54.1829 83.5695 66.6525 83.5695 76.9056V82.6256C83.5304 84.9315 84.0196 87.2159 84.9995 89.3037L73.8884 95.8102C72.1506 96.9422 70.7047 98.4687 69.6685 100.265C68.6322 102.062 68.035 104.078 67.9253 106.149C67.9253 109.939 70.5851 111.483 73.8884 109.581L145.946 67.9824C147.681 66.8508 149.125 65.3264 150.161 63.5326C151.197 61.7388 151.796 59.7262 151.909 57.6578C151.909 53.8254 149.235 52.281 145.946 54.1829Z" fill="#EBEBEB"/>
<path d="M227.041 82.1252L217.031 87.8452C217.089 87.4041 217.117 86.9599 217.117 86.5153V83.6553C217.117 78.4787 213.485 76.3766 209.009 78.9649C207.085 80.1515 205.437 81.7361 204.176 83.6124C203.446 77.1202 198.341 74.6892 192.135 78.2642C185.428 82.1395 179.994 91.5489 179.994 99.2995V103.589C179.952 105.324 180.304 107.045 181.024 108.623L172.687 113.442C171.375 114.294 170.283 115.444 169.5 116.799C168.718 118.153 168.266 119.674 168.183 121.236C168.183 124.096 170.199 125.268 172.687 123.824L227.027 92.3639C228.334 91.5068 229.423 90.3555 230.205 89.0021C230.987 87.6487 231.441 86.131 231.532 84.5705C231.546 81.8535 229.53 80.6952 227.041 82.1252Z" fill="#EBEBEB"/>
<path d="M136.451 528.328C136.451 528.328 140.969 506.22 135.764 486.2C130.559 466.18 119.333 451.094 106.077 445.588C92.8213 440.083 77.7491 449.02 89.5037 462.348C101.258 475.675 124.267 492.892 125.697 528.914L136.451 528.328Z" fill="#FF6B6C"/>
<path opacity="0.15" d="M136.451 528.328C136.451 528.328 140.969 506.22 135.764 486.2C130.559 466.18 119.333 451.094 106.077 445.588C92.8213 440.083 77.7491 449.02 89.5037 462.348C101.258 475.675 124.267 492.892 125.697 528.914L136.451 528.328Z" fill="black"/>
<path d="M134.263 521.493H134.42C134.521 521.487 134.62 521.462 134.711 521.418C134.802 521.374 134.883 521.312 134.949 521.236C135.016 521.16 135.067 521.071 135.099 520.975C135.13 520.88 135.143 520.778 135.135 520.678C132.275 480.638 109.781 456.971 98.2555 450.05C98.1701 449.998 98.0753 449.963 97.9766 449.948C97.8778 449.933 97.777 449.938 97.68 449.961C97.583 449.985 97.4916 450.028 97.4112 450.088C97.3309 450.147 97.263 450.222 97.2116 450.307C97.1596 450.393 97.1251 450.487 97.1099 450.586C97.0947 450.685 97.0992 450.786 97.1231 450.883C97.147 450.98 97.1899 451.071 97.2493 451.152C97.3086 451.232 97.3833 451.3 97.469 451.351C108.752 458.144 130.817 481.381 133.605 520.792C133.619 520.966 133.692 521.13 133.812 521.257C133.931 521.384 134.09 521.467 134.263 521.493Z" fill="white"/>
<path d="M70.4418 493.35C69.0118 497.811 72.1435 500.915 75.1465 503.431C77.4488 505.348 79.9799 507.45 80.6091 510.396C81.8819 516.344 74.8891 521.836 76.3191 527.727C76.7295 528.939 77.3823 530.055 78.2379 531.006C79.0934 531.958 80.1338 532.725 81.2955 533.261C83.2293 534.172 85.2103 534.979 87.2301 535.678C88.1683 535.969 89.1234 536.203 90.0901 536.379C93.0734 536.666 95.8809 537.921 98.0837 539.954C101.33 543.486 100.944 548.905 102.088 553.567V553.725C102.684 555.981 103.823 558.057 105.406 559.772C106.989 561.487 108.968 562.789 111.169 563.563C113.371 564.337 115.729 564.561 118.037 564.215C120.345 563.868 122.533 562.962 124.41 561.575L140.841 549.878C147.347 541.112 145.703 525.411 135.264 520.291C133.047 519.204 130.516 518.561 128.757 516.831C126.612 514.743 126.083 511.525 125.897 508.536C125.711 505.548 125.897 502.43 124.682 499.699C122.98 495.881 118.962 493.564 114.815 492.849C110.01 492.02 105.205 493.979 100.643 492.32C96.0817 490.661 91.8633 488.03 87.1442 486.786C81.9533 485.499 76.0046 486.186 72.1436 490.376C71.3619 491.228 70.7805 492.244 70.4418 493.35Z" fill="#FF6B6C"/>
<path d="M118.576 519.562C118.534 519.451 118.459 519.357 118.361 519.29C106.149 501.93 86.9871 493.765 80.5235 492.32C80.4362 492.299 80.3454 492.296 80.2567 492.311C80.168 492.325 80.0832 492.358 80.0072 492.406C79.9312 492.454 79.8656 492.516 79.8143 492.59C79.763 492.664 79.727 492.747 79.7084 492.835C79.6875 492.922 79.6843 493.012 79.6991 493.099C79.7139 493.187 79.7463 493.271 79.7944 493.346C79.8425 493.421 79.9054 493.485 79.9791 493.535C80.0528 493.585 80.1358 493.619 80.2232 493.636C86.3579 495.066 104.147 502.602 116.116 518.489C111.238 516.845 106.074 516.226 100.945 516.671C95.8171 517.117 90.8362 518.617 86.315 521.078C86.1642 521.177 86.0586 521.332 86.0211 521.509C85.9837 521.685 86.0173 521.87 86.1148 522.022C86.1755 522.112 86.256 522.187 86.3502 522.242C86.4443 522.296 86.5497 522.329 86.6582 522.336C86.7949 522.334 86.9283 522.294 87.0443 522.222C91.6789 519.709 96.8073 518.242 102.069 517.924C107.331 517.605 112.599 518.442 117.503 520.377C124.637 530.59 128.215 542.865 127.685 555.312C127.677 555.482 127.735 555.648 127.847 555.776C127.959 555.904 128.116 555.984 128.286 555.998C128.375 556.002 128.464 555.988 128.548 555.957C128.632 555.926 128.709 555.878 128.774 555.817C128.84 555.756 128.892 555.682 128.928 555.6C128.965 555.518 128.984 555.43 128.986 555.341C129.546 542.594 125.887 530.019 118.576 519.562Z" fill="white"/>
<path d="M526.826 351.994V95.6241C526.825 91.6093 525.767 87.6657 523.759 84.1893C521.751 80.7128 518.863 77.8259 515.386 75.8186L457.3 42.2851C453.822 40.2769 449.876 39.2197 445.86 39.2197C441.843 39.2197 437.898 40.2769 434.42 42.2851L190.462 183.14C186.983 185.145 184.093 188.03 182.082 191.506L123.995 292.12C121.989 295.599 120.933 299.545 120.935 303.56V559.916C120.935 563.306 123.166 566.68 127.627 569.254C136.565 574.417 151.051 574.417 159.988 569.254C164.464 566.68 166.695 563.306 166.695 559.916V309.666L218.647 219.677L445.86 88.517L481.066 108.837V351.937C481.066 355.326 483.297 358.715 487.773 361.289C496.711 366.452 511.196 366.452 520.134 361.289C524.61 358.701 526.841 355.326 526.826 351.937V351.994Z" fill="#455A64"/>
<path d="M166.695 309.695C166.695 309.695 159.402 299.685 137.58 297.612C137.58 297.612 153.11 293.322 170.184 303.646L166.695 309.695Z" fill="#37474F"/>
<path d="M218.647 219.706C218.647 219.706 220.477 207.694 207.35 197.483C207.35 197.483 219.419 201.13 223.495 216.903L218.647 219.706Z" fill="#37474F"/>
<path d="M445.86 88.5166C450.15 84.1408 453.682 72.9153 452.795 62.8481C452.795 62.8481 457.872 73.4301 450.422 91.1478L445.86 88.5166Z" fill="#37474F"/>
<path d="M481.066 108.837C492.792 109.309 504.347 104.919 509.781 97.0542C509.781 97.0542 505.176 112.913 481.066 114.5V108.837Z" fill="#37474F"/>
<path d="M394.38 118.232V79.8511C394.38 77.8777 392.95 77.0769 391.291 78.0636L246.446 161.676C245.547 162.265 244.8 163.058 244.263 163.989C243.727 164.92 243.416 165.965 243.357 167.038V205.434L394.38 118.232Z" fill="#37474F"/>
<path d="M397.254 71.1426C396.901 70.978 396.511 70.911 396.124 70.9487C395.736 70.9864 395.366 71.1275 395.052 71.3571L250.25 154.969C249.347 155.556 248.595 156.347 248.056 157.279C247.517 158.211 247.205 159.257 247.147 160.332V213.556C247.106 213.941 247.169 214.33 247.33 214.683C247.491 215.035 247.744 215.337 248.062 215.558L253.868 218.905C254.218 219.07 254.606 219.137 254.991 219.099C255.377 219.061 255.744 218.92 256.056 218.69L400.858 135.064C401.761 134.477 402.512 133.686 403.052 132.754C403.591 131.822 403.902 130.776 403.961 129.701V76.4908C404.001 76.1022 403.936 75.7099 403.773 75.3551C403.609 75.0002 403.353 74.6961 403.031 74.4745L397.254 71.1426Z" fill="#FF6B6C"/>
<path d="M255.97 158.33L400.857 74.7032C402.573 73.7165 403.96 74.5173 403.96 76.4907V129.701C403.902 130.776 403.591 131.822 403.051 132.754C402.512 133.686 401.76 134.477 400.857 135.063L255.97 218.69C254.254 219.677 252.867 218.876 252.867 216.902V163.692C252.925 162.617 253.237 161.571 253.776 160.639C254.315 159.707 255.067 158.916 255.97 158.33Z" fill="#FF6B6C"/>
<path opacity="0.15" d="M252.924 216.902C252.896 217.252 252.947 217.603 253.073 217.929C253.199 218.256 253.398 218.55 253.653 218.79L248.019 215.544C247.704 215.321 247.454 215.018 247.295 214.666C247.137 214.314 247.076 213.926 247.118 213.542V160.332C247.153 159.254 247.469 158.204 248.033 157.286L253.839 160.632C253.274 161.555 252.959 162.61 252.924 163.692V216.902Z" fill="black"/>
<path opacity="0.4" d="M397.254 71.1424L402.874 74.3599C402.536 74.257 402.179 74.2319 401.83 74.2864C401.481 74.3409 401.148 74.4735 400.858 74.6745L255.97 158.329C255.056 158.897 254.303 159.69 253.782 160.632L248.034 157.3C248.554 156.354 249.307 155.556 250.222 154.983L395.052 71.3426C395.369 71.118 395.739 70.9812 396.126 70.9461C396.513 70.9109 396.902 70.9786 397.254 71.1424Z" fill="white"/>
<path d="M293.25 150.679C293.329 150.605 293.434 150.563 293.543 150.563C293.652 150.563 293.757 150.605 293.836 150.679C294.011 150.891 294.098 151.163 294.079 151.437V156.456C294.074 156.818 293.991 157.174 293.836 157.5C293.715 157.791 293.511 158.04 293.25 158.215L284.055 163.521V169.999L292.635 165.051C292.717 164.982 292.821 164.945 292.928 164.945C293.035 164.945 293.139 164.982 293.221 165.051C293.31 165.155 293.377 165.275 293.419 165.405C293.461 165.535 293.476 165.673 293.464 165.809V170.814C293.461 171.175 293.378 171.532 293.221 171.858C293.1 172.148 292.896 172.397 292.635 172.573L284.055 177.52V187.745C284.057 188.102 283.973 188.455 283.812 188.774C283.696 189.072 283.491 189.326 283.226 189.504L279.207 191.82C279.125 191.889 279.021 191.927 278.914 191.927C278.807 191.927 278.703 191.889 278.621 191.82C278.443 191.61 278.356 191.337 278.378 191.062V160.532C278.385 160.171 278.468 159.815 278.621 159.488C278.746 159.2 278.949 158.952 279.207 158.773L293.25 150.679Z" fill="#FAFAFA"/>
<path d="M298.169 180.952C298.088 181.023 297.984 181.063 297.876 181.063C297.768 181.063 297.664 181.023 297.583 180.952C297.492 180.849 297.423 180.729 297.382 180.598C297.34 180.468 297.326 180.33 297.34 180.194V149.592C297.338 149.23 297.421 148.872 297.583 148.548C297.699 148.254 297.904 148.004 298.169 147.833L302.188 145.516C302.27 145.448 302.374 145.41 302.481 145.41C302.588 145.41 302.692 145.448 302.774 145.516C302.949 145.728 303.036 146 303.017 146.274V176.833C303.013 177.195 302.93 177.551 302.774 177.877C302.653 178.168 302.449 178.417 302.188 178.592L298.169 180.952Z" fill="#FAFAFA"/>
<path d="M321.307 167.596C321.18 167.683 321.031 167.729 320.878 167.729C320.725 167.729 320.575 167.683 320.449 167.596C320.282 167.484 320.141 167.338 320.034 167.167L312.998 155.055V171.042C313 171.405 312.917 171.762 312.755 172.086C312.639 172.38 312.434 172.63 312.169 172.801L308.151 175.118C308.071 175.192 307.966 175.234 307.858 175.234C307.749 175.234 307.644 175.192 307.564 175.118C307.386 174.907 307.299 174.635 307.321 174.36V143.83C307.327 143.468 307.41 143.112 307.564 142.786C307.681 142.492 307.886 142.242 308.151 142.071L311.34 140.226C311.697 140.026 311.969 139.997 312.183 140.226C312.349 140.334 312.49 140.475 312.598 140.641L319.634 152.753V136.708C319.637 136.349 319.726 135.997 319.891 135.678C320.003 135.386 320.203 135.136 320.463 134.963L324.496 132.633C324.578 132.564 324.682 132.526 324.789 132.526C324.896 132.526 325 132.564 325.082 132.633C325.26 132.843 325.347 133.116 325.325 133.39V163.95C325.318 164.311 325.235 164.666 325.082 164.994C324.957 165.282 324.754 165.529 324.496 165.709L321.307 167.596Z" fill="#FAFAFA"/>
<path d="M330.459 162.305C330.378 162.376 330.274 162.416 330.166 162.416C330.058 162.416 329.954 162.376 329.873 162.305C329.782 162.202 329.713 162.082 329.671 161.951C329.629 161.821 329.615 161.683 329.629 161.547V130.945C329.629 130.583 329.712 130.226 329.873 129.901C329.989 129.607 330.194 129.357 330.459 129.186L334.477 126.869C334.559 126.801 334.663 126.763 334.77 126.763C334.877 126.763 334.981 126.801 335.063 126.869C335.152 126.973 335.219 127.094 335.261 127.224C335.303 127.354 335.318 127.491 335.307 127.627V158.186C335.301 158.543 335.218 158.895 335.063 159.216C334.947 159.51 334.742 159.76 334.477 159.931L330.459 162.305Z" fill="#FAFAFA"/>
<path d="M347.605 118.819C348.69 118.13 349.927 117.718 351.208 117.617C352.2 117.533 353.194 117.742 354.068 118.218C354.854 118.665 355.498 119.324 355.927 120.12C356.378 120.971 356.618 121.917 356.628 122.88C356.631 123.173 356.563 123.463 356.428 123.724C356.343 123.956 356.188 124.156 355.984 124.296L351.966 126.612C351.763 126.76 351.516 126.835 351.265 126.827C351.07 126.786 350.889 126.698 350.736 126.569C350.665 126.569 350.579 126.412 350.436 126.269C350.283 126.105 350.091 125.982 349.878 125.911C349.57 125.807 349.24 125.782 348.92 125.84C348.443 125.923 347.986 126.098 347.576 126.355C347.18 126.582 346.802 126.84 346.446 127.127C346.101 127.404 345.784 127.715 345.502 128.056C345.215 128.389 344.983 128.765 344.816 129.172C344.643 129.599 344.556 130.055 344.559 130.516C344.529 130.878 344.631 131.238 344.845 131.531C345.125 131.751 345.477 131.858 345.831 131.832C346.45 131.812 347.064 131.721 347.662 131.56L350.522 130.831C351.476 130.544 352.471 130.413 353.468 130.445C354.238 130.469 354.978 130.751 355.57 131.245C356.192 131.803 356.631 132.536 356.828 133.347C357.14 134.527 357.28 135.746 357.243 136.965C357.247 138.565 357.01 140.155 356.542 141.684C356.069 143.222 355.401 144.693 354.554 146.06C353.717 147.449 352.708 148.727 351.551 149.864C350.408 150.973 349.13 151.934 347.748 152.724C346.592 153.442 345.294 153.901 343.944 154.068C342.925 154.189 341.893 154 340.984 153.525C340.14 153.069 339.456 152.365 339.025 151.508C338.534 150.543 338.284 149.474 338.295 148.391C338.294 148.099 338.357 147.811 338.481 147.547C338.576 147.317 338.735 147.118 338.939 146.975L342.957 144.659C343.154 144.518 343.388 144.438 343.629 144.43C343.813 144.452 343.987 144.526 344.13 144.644L344.501 145.045C344.681 145.254 344.906 145.421 345.159 145.531C345.485 145.682 345.845 145.747 346.203 145.717C346.754 145.643 347.281 145.447 347.748 145.145C348.76 144.588 349.677 143.873 350.465 143.029C351.158 142.344 351.553 141.414 351.566 140.44C351.587 140.262 351.562 140.081 351.491 139.915C351.421 139.749 351.309 139.605 351.165 139.496C350.794 139.31 350.374 139.245 349.964 139.311C349.272 139.382 348.587 139.516 347.919 139.711C347.09 139.94 346.117 140.183 344.988 140.455C342.871 140.984 341.341 140.712 340.369 139.654C339.396 138.596 338.939 136.694 338.939 133.934C338.938 132.484 339.136 131.04 339.525 129.644C339.937 128.15 340.522 126.711 341.27 125.354C342.027 123.97 342.949 122.683 344.015 121.521C345.069 120.446 346.279 119.534 347.605 118.819Z" fill="#FAFAFA"/>
<path d="M377.677 101.93C377.759 101.861 377.863 101.824 377.97 101.824C378.078 101.824 378.181 101.861 378.264 101.93C378.352 102.034 378.42 102.154 378.461 102.284C378.503 102.415 378.518 102.552 378.507 102.688V133.276C378.503 133.637 378.42 133.993 378.264 134.319C378.147 134.613 377.942 134.863 377.677 135.034L373.659 137.365C373.578 137.437 373.474 137.476 373.366 137.476C373.258 137.476 373.154 137.437 373.073 137.365C372.982 137.263 372.913 137.143 372.871 137.012C372.829 136.882 372.815 136.744 372.83 136.607V124.967L366.08 128.914V140.497C366.078 140.86 365.99 141.218 365.823 141.541C365.706 141.835 365.501 142.085 365.236 142.256L361.218 144.587C361.135 144.653 361.031 144.689 360.925 144.689C360.818 144.689 360.715 144.653 360.632 144.587C360.54 144.482 360.47 144.359 360.429 144.226C360.387 144.093 360.373 143.953 360.389 143.815V113.227C360.394 112.866 360.477 112.51 360.632 112.183C360.753 111.892 360.956 111.644 361.218 111.468L365.236 109.151C365.317 109.08 365.421 109.041 365.529 109.041C365.637 109.041 365.742 109.08 365.823 109.151C365.915 109.254 365.985 109.374 366.029 109.504C366.073 109.634 366.091 109.772 366.08 109.909V121.349L372.901 117.403V105.963C372.901 105.601 372.984 105.243 373.144 104.919C373.26 104.625 373.465 104.375 373.73 104.204L377.677 101.93Z" fill="#FAFAFA"/>
<path d="M361.048 165.88C360.697 165.708 360.307 165.637 359.918 165.672C359.53 165.707 359.159 165.848 358.845 166.08L299.4 200.4C298.499 200.987 297.75 201.779 297.213 202.711C296.676 203.643 296.367 204.688 296.311 205.762V232.16C296.272 232.547 296.336 232.938 296.497 233.292C296.658 233.646 296.91 233.951 297.227 234.177L303.032 237.523C303.383 237.685 303.771 237.75 304.156 237.713C304.54 237.675 304.908 237.535 305.22 237.308L364.665 202.988C365.568 202.402 366.32 201.611 366.859 200.679C367.399 199.747 367.71 198.701 367.769 197.626V171.171C367.811 170.782 367.747 170.389 367.583 170.034C367.419 169.679 367.162 169.375 366.839 169.154L361.048 165.88Z" fill="#455A64"/>
<path d="M302.116 235.492C302.086 235.84 302.135 236.191 302.259 236.517C302.383 236.844 302.578 237.139 302.831 237.38L297.211 234.134C296.892 233.914 296.639 233.612 296.477 233.259C296.316 232.907 296.254 232.517 296.296 232.132V205.734C296.331 204.656 296.647 203.607 297.211 202.688L303.017 206.034C302.463 206.962 302.153 208.015 302.116 209.094V235.492Z" fill="#263238"/>
<path d="M361.047 165.88L366.667 169.126C366.328 169.023 365.971 168.998 365.622 169.052C365.273 169.107 364.941 169.239 364.65 169.44L305.205 203.76C304.298 204.336 303.546 205.127 303.017 206.063L297.211 202.716C297.732 201.766 298.491 200.968 299.414 200.4L358.844 166.08C359.161 165.855 359.532 165.719 359.919 165.683C360.305 165.648 360.694 165.716 361.047 165.88Z" fill="#37474F"/>
<path d="M311.74 207.35C312.229 207.041 312.781 206.846 313.356 206.778C313.737 206.716 314.127 206.792 314.457 206.993C314.746 207.198 314.977 207.473 315.129 207.793C315.303 208.105 315.423 208.443 315.487 208.794C315.544 209.115 315.572 209.441 315.573 209.767V217.975C315.569 218.334 315.54 218.692 315.487 219.047C315.411 219.534 315.292 220.013 315.129 220.477C314.958 221.023 314.733 221.55 314.457 222.05C313.816 223.205 312.878 224.168 311.74 224.839C311.366 225.062 310.961 225.231 310.539 225.339C310.234 225.415 309.915 225.415 309.609 225.339C309.353 225.305 309.111 225.201 308.909 225.039C308.714 224.885 308.549 224.696 308.422 224.481C308.303 224.257 308.202 224.022 308.122 223.781C308.054 223.537 308.001 223.288 307.965 223.037C307.951 222.813 307.951 222.589 307.965 222.365V214.157C307.952 213.914 307.952 213.67 307.965 213.428C307.965 213.156 308.051 212.856 308.122 212.498C308.194 212.141 308.308 211.797 308.422 211.44C308.565 211.06 308.727 210.687 308.909 210.324C309.107 209.936 309.341 209.567 309.609 209.223C309.887 208.852 310.198 208.508 310.539 208.194C310.909 207.872 311.312 207.589 311.74 207.35ZM311.74 223.909C312.065 223.711 312.359 223.465 312.612 223.18C312.851 222.908 313.053 222.605 313.213 222.279C313.358 221.965 313.477 221.64 313.571 221.307C313.66 221.008 313.722 220.702 313.756 220.392C313.776 220.139 313.776 219.886 313.756 219.634V210.21C313.778 209.977 313.778 209.742 313.756 209.509C313.726 209.268 313.664 209.033 313.571 208.809C313.488 208.598 313.361 208.408 313.199 208.251C313.035 208.113 312.826 208.042 312.612 208.051C312.303 208.064 312.002 208.158 311.74 208.322C311.41 208.509 311.119 208.756 310.882 209.052C310.64 209.317 310.438 209.615 310.282 209.938C310.133 210.251 310.013 210.576 309.924 210.911C309.835 211.214 309.772 211.525 309.738 211.84C309.717 212.092 309.717 212.346 309.738 212.598V222.079C309.716 222.312 309.716 222.547 309.738 222.78C309.765 223.021 309.827 223.258 309.924 223.48C310 223.691 310.122 223.881 310.282 224.038C310.45 224.178 310.663 224.254 310.882 224.253C311.189 224.236 311.485 224.138 311.74 223.967V223.909Z" fill="#FF6B6C"/>
<path d="M317.46 205.076L320.421 202.474V219.634L318.647 220.663V206.092C318.668 205.869 318.623 205.645 318.519 205.448C318.433 205.348 318.318 205.334 318.161 205.448L317.46 205.92V205.076Z" fill="#FF6B6C"/>
<path d="M324.167 204.79V206.606C324.176 206.701 324.176 206.797 324.167 206.892C324.147 206.964 324.108 207.028 324.052 207.078C323.965 207.179 323.858 207.262 323.738 207.321L322.865 207.836C322.665 207.95 322.551 207.979 322.494 207.95C322.436 207.921 322.494 207.807 322.494 207.635V205.633C322.494 205.633 322.494 205.548 322.494 205.476C322.524 205.402 322.573 205.338 322.637 205.29C322.716 205.219 322.802 205.157 322.894 205.104L323.766 204.604C323.981 204.489 324.095 204.447 324.152 204.489C324.21 204.532 324.167 204.632 324.167 204.79ZM324.167 215.658V217.474C324.176 217.569 324.176 217.665 324.167 217.76C324.147 217.832 324.108 217.896 324.052 217.946C323.965 218.047 323.858 218.13 323.738 218.189L322.865 218.704C322.665 218.818 322.551 218.847 322.494 218.818C322.436 218.789 322.494 218.675 322.494 218.503V216.501C322.494 216.501 322.494 216.416 322.494 216.344C322.527 216.273 322.576 216.209 322.637 216.158C322.716 216.087 322.802 216.025 322.894 215.972L323.766 215.472C323.981 215.357 324.095 215.315 324.152 215.357C324.21 215.4 324.167 215.5 324.167 215.658Z" fill="#FF6B6C"/>
<path d="M330.058 196.868C330.547 196.555 331.099 196.355 331.674 196.282C332.057 196.225 332.447 196.306 332.776 196.511C333.06 196.714 333.291 196.984 333.448 197.297C333.619 197.61 333.739 197.948 333.805 198.298C333.861 198.619 333.89 198.945 333.891 199.271V207.479C333.889 207.838 333.86 208.196 333.805 208.551C333.731 209.038 333.611 209.517 333.448 209.981C333.274 210.526 333.049 211.052 332.776 211.554C332.47 212.075 332.1 212.556 331.674 212.984C331.202 213.49 330.658 213.924 330.058 214.271C329.684 214.494 329.279 214.663 328.857 214.772C328.551 214.84 328.234 214.84 327.928 214.772C327.675 214.725 327.435 214.623 327.227 214.471C327.032 214.317 326.867 214.128 326.741 213.914C326.621 213.684 326.521 213.445 326.441 213.199C326.371 212.96 326.318 212.716 326.283 212.469C326.27 212.246 326.27 212.021 326.283 211.797V203.575C326.27 203.337 326.27 203.098 326.283 202.86C326.283 202.588 326.369 202.288 326.441 201.93C326.512 201.573 326.626 201.23 326.741 200.872C326.878 200.49 327.04 200.117 327.227 199.757C327.43 199.371 327.665 199.003 327.928 198.656C328.206 198.285 328.517 197.94 328.857 197.626C329.229 197.33 329.631 197.076 330.058 196.868ZM330.058 213.413C330.386 213.224 330.681 212.982 330.931 212.698C331.17 212.426 331.372 212.123 331.531 211.797C331.676 211.483 331.796 211.158 331.889 210.825C331.977 210.526 332.039 210.22 332.075 209.91C332.095 209.653 332.095 209.395 332.075 209.137V199.657C332.097 199.424 332.097 199.189 332.075 198.956C332.047 198.715 331.984 198.479 331.889 198.255C331.806 198.045 331.679 197.855 331.517 197.698C331.356 197.555 331.146 197.478 330.931 197.483C330.62 197.503 330.32 197.601 330.058 197.769C329.732 197.955 329.442 198.197 329.201 198.484C328.962 198.757 328.76 199.059 328.6 199.385C328.449 199.696 328.329 200.022 328.242 200.357C328.154 200.657 328.092 200.963 328.056 201.273C328.056 201.544 328.056 201.802 328.056 202.03V211.526C328.042 211.759 328.042 211.993 328.056 212.226C328.093 212.466 328.156 212.701 328.242 212.927C328.322 213.135 328.444 213.325 328.6 213.485C328.77 213.621 328.983 213.692 329.201 213.685C329.507 213.68 329.805 213.585 330.058 213.413Z" fill="#FF6B6C"/>
<path d="M335.664 194.48L338.61 191.877V209.108L336.837 210.124V195.552C336.858 195.33 336.813 195.106 336.708 194.909C336.622 194.808 336.508 194.794 336.35 194.909C336.193 195.023 336.079 195.109 335.664 195.466V194.48Z" fill="#FF6B6C"/>
<path d="M342.428 194.251V196.067C342.437 196.158 342.437 196.249 342.428 196.339C342.41 196.415 342.37 196.485 342.314 196.539C342.226 196.64 342.119 196.723 341.999 196.782L341.127 197.283C340.926 197.397 340.812 197.44 340.755 197.411C340.698 197.383 340.683 197.268 340.683 197.083V195.095C340.68 195.042 340.68 194.99 340.683 194.938C340.713 194.864 340.763 194.8 340.826 194.752C340.902 194.676 340.989 194.614 341.084 194.566L341.956 194.051C342.171 193.937 342.285 193.908 342.342 193.937C342.399 193.965 342.428 194.08 342.428 194.251ZM342.428 205.119V206.935C342.437 207.026 342.437 207.117 342.428 207.207C342.41 207.283 342.37 207.353 342.314 207.407C342.222 207.504 342.116 207.586 341.999 207.65L341.127 208.151C340.926 208.265 340.812 208.308 340.755 208.279C340.698 208.251 340.683 208.136 340.683 207.951V205.92C340.68 205.868 340.68 205.815 340.683 205.763C340.713 205.689 340.763 205.625 340.826 205.577C340.902 205.501 340.989 205.439 341.084 205.391L341.956 204.876C342.171 204.762 342.285 204.733 342.342 204.762C342.399 204.79 342.428 204.948 342.428 205.119Z" fill="#FF6B6C"/>
<path d="M348.32 186.315C348.812 186.012 349.362 185.817 349.935 185.743C350.318 185.676 350.712 185.758 351.037 185.971C351.325 186.171 351.556 186.442 351.709 186.758C351.882 187.07 352.003 187.408 352.066 187.759C352.122 188.08 352.151 188.405 352.152 188.731V196.94C352.149 197.299 352.12 197.657 352.066 198.012C351.992 198.499 351.872 198.978 351.709 199.442C351.535 199.982 351.31 200.504 351.037 201.001C350.738 201.552 350.367 202.062 349.935 202.517C349.463 203.018 348.918 203.447 348.32 203.789C347.945 204.016 347.541 204.19 347.118 204.304C346.812 204.365 346.496 204.365 346.189 204.304C345.935 204.253 345.695 204.145 345.488 203.989C345.297 203.837 345.132 203.653 345.002 203.446C344.882 203.216 344.782 202.977 344.702 202.731C344.63 202.488 344.578 202.239 344.544 201.987C344.53 201.764 344.53 201.539 344.544 201.315V193.107C344.532 192.864 344.532 192.621 344.544 192.378C344.544 192.12 344.63 191.806 344.702 191.463C344.773 191.119 344.888 190.762 345.002 190.404C345.284 189.606 345.684 188.854 346.189 188.174C346.467 187.808 346.778 187.468 347.118 187.158C347.489 186.837 347.892 186.554 348.32 186.315ZM348.32 202.874C348.654 202.688 348.949 202.44 349.192 202.145C349.437 201.877 349.64 201.573 349.792 201.244C349.946 200.933 350.066 200.607 350.15 200.271C350.239 199.973 350.302 199.666 350.336 199.356C350.357 199.104 350.357 198.851 350.336 198.598V189.117C350.358 188.88 350.358 188.64 350.336 188.402C350.307 188.166 350.245 187.935 350.15 187.716C350.072 187.503 349.945 187.312 349.778 187.158C349.7 187.085 349.607 187.028 349.507 186.992C349.406 186.955 349.299 186.939 349.192 186.944C348.882 186.957 348.582 187.051 348.32 187.216C347.993 187.407 347.703 187.653 347.462 187.945C347.219 188.215 347.017 188.518 346.861 188.846C346.585 189.444 346.402 190.08 346.318 190.733C346.304 190.986 346.304 191.239 346.318 191.491V200.972C346.303 201.21 346.303 201.449 346.318 201.687C346.354 201.927 346.417 202.162 346.503 202.388C346.587 202.594 346.708 202.784 346.861 202.946C347.031 203.082 347.244 203.153 347.462 203.146C347.767 203.134 348.063 203.04 348.32 202.874Z" fill="#FF6B6C"/>
<path d="M358.272 198.041C357.832 198.306 357.348 198.49 356.842 198.584C356.512 198.688 356.157 198.688 355.827 198.584C355.572 198.464 355.343 198.294 355.155 198.084C354.959 197.854 354.813 197.586 354.726 197.297C354.631 197.017 354.559 196.73 354.511 196.439C354.498 196.172 354.498 195.905 354.511 195.638V187.33C354.499 187.087 354.499 186.844 354.511 186.601C354.511 186.343 354.611 186.029 354.697 185.671C354.782 185.308 354.887 184.95 355.012 184.599C355.156 184.213 355.324 183.835 355.512 183.469C355.719 183.081 355.953 182.708 356.213 182.354C356.492 181.979 356.808 181.634 357.157 181.324C357.53 180.987 357.937 180.689 358.372 180.437L358.658 180.266C359.141 180.015 359.656 179.832 360.188 179.722C360.653 179.59 361.136 179.537 361.618 179.565L361.318 180.781L359.988 180.881C359.526 180.887 359.07 180.999 358.658 181.21C358.239 181.453 357.874 181.779 357.586 182.168C357.275 182.541 357.024 182.961 356.842 183.412C356.677 183.806 356.543 184.212 356.442 184.627C356.363 184.965 356.32 185.31 356.313 185.657V188.76L358.115 186.615C358.402 186.292 358.707 185.987 359.03 185.7C359.264 185.496 359.513 185.31 359.774 185.142C360.012 184.949 360.306 184.838 360.613 184.825C360.919 184.812 361.222 184.898 361.475 185.071C361.739 185.291 361.944 185.574 362.071 185.894C362.199 186.213 362.244 186.559 362.205 186.901V191.62C362.2 191.898 362.177 192.175 362.133 192.449C362.072 192.802 361.99 193.15 361.89 193.493C361.779 193.904 361.626 194.301 361.432 194.68C361.221 195.091 360.982 195.488 360.717 195.867C360.423 196.294 360.077 196.683 359.688 197.025C359.253 197.413 358.779 197.753 358.272 198.041ZM356.284 189.546V195.195C356.27 195.428 356.27 195.662 356.284 195.896C356.309 196.141 356.367 196.381 356.456 196.611C356.524 196.826 356.641 197.022 356.799 197.183C356.874 197.257 356.964 197.314 357.062 197.351C357.161 197.388 357.266 197.404 357.371 197.397C357.676 197.394 357.973 197.305 358.229 197.14C358.537 196.952 358.812 196.715 359.044 196.439C359.28 196.164 359.482 195.862 359.645 195.538C359.808 195.217 359.942 194.882 360.045 194.537C360.153 194.23 360.234 193.914 360.288 193.593C360.331 193.338 360.355 193.08 360.36 192.821V188.417C360.406 187.862 360.276 187.306 359.988 186.829C359.935 186.753 359.866 186.688 359.786 186.639C359.706 186.59 359.616 186.559 359.523 186.547C359.43 186.535 359.336 186.542 359.246 186.569C359.156 186.595 359.073 186.64 359.001 186.701C358.749 186.867 358.523 187.069 358.329 187.301L356.284 189.546Z" fill="#FF6B6C"/>
<path d="M389.703 378.063C375.403 381.695 368.125 379.15 356.985 375.79C354.354 398.14 349.435 430.773 344.973 458.815C336.178 456.899 330.344 457.872 322.222 459.602C318.461 460.417 313.642 461.604 309.781 462.133C305.92 462.662 300.128 464.035 297.812 463.091C294.952 461.904 293.336 459.788 289.989 460.117C288.626 460.25 287.308 460.676 286.126 461.368C284.943 462.059 283.924 462.998 283.14 464.121C280.852 467.524 281.081 472.014 279.479 475.789C278.02 478.767 275.914 481.381 273.316 483.44C272.53 484.095 271.794 484.807 271.113 485.571C270.015 487.057 269.23 488.752 268.808 490.552C268.385 492.351 268.332 494.218 268.654 496.038C269.111 498.812 270.556 505.305 274.631 503.989C275.721 503.577 276.646 502.818 277.262 501.83C277.853 500.848 278.383 499.83 278.85 498.784C279.363 497.8 279.932 496.845 280.551 495.924C283.174 492.308 286.266 489.057 289.746 486.257C291.348 484.827 292.95 483.612 294.551 482.253C295.981 481.08 298.14 479.264 300.042 479.179C306.45 479.013 312.861 479.204 319.247 479.751C329.143 480.523 339.711 481.795 346.146 482.611C359.016 484.255 363.306 484.169 368.439 475.189C373.873 465.765 380.28 449.32 384.756 434.377C390.511 416.195 392.2 396.97 389.703 378.063Z" fill="#F28F8F"/>
<path d="M391.52 393.779C392.135 400.786 389.847 422.236 384.37 440.84L347.905 439.625L349.063 395.981L391.52 393.779Z" fill="#37474F"/>
<path d="M300.944 463.492C300.944 462.219 299.156 461.647 297.798 462.062C297.09 462.29 296.398 462.562 295.724 462.877C297.336 463.693 299.186 463.911 300.944 463.492Z" fill="#FF6B6C"/>
<g opacity="0.3">
<path opacity="0.3" d="M300.944 463.492C300.944 462.219 299.156 461.647 297.798 462.062C297.09 462.29 296.398 462.562 295.724 462.877C297.336 463.693 299.186 463.911 300.944 463.492Z" fill="black"/>
</g>
<path d="M284.656 492.692C287.03 489.832 295.052 482.253 297.598 480.751C300.143 479.25 302.46 480.108 301.387 477.419C300.315 474.731 299.271 470.841 297.569 470.698C295.867 470.555 292.307 472.615 288.202 476.518C285.167 479.727 282.57 483.324 280.48 487.215L284.656 492.692Z" fill="#FF6B6C"/>
<path opacity="0.1" d="M284.656 492.692C287.03 489.832 295.052 482.253 297.598 480.751C300.143 479.25 302.46 480.108 301.387 477.419C300.315 474.731 299.271 470.841 297.569 470.698C295.867 470.555 292.307 472.615 288.202 476.518C285.167 479.727 282.57 483.324 280.48 487.215L284.656 492.692Z" fill="black"/>
<path d="M272.787 508.208C271.643 508.608 269.369 508.665 266.752 505.062C265.256 502.777 264.311 500.176 263.991 497.464C263.671 494.751 263.984 492.002 264.907 489.432C267.195 482.739 272.057 480.466 274.088 476.962C276.719 472.486 276.648 467.367 277.306 463.992C278.092 460.059 280.28 460.017 281.324 460.059C282.368 460.102 285.142 460.388 285.142 460.388L272.787 508.208Z" fill="#EBEBEB"/>
<path d="M300.944 463.491C300.257 461.604 298.084 461.933 296.654 462.533C295.224 463.134 293.222 463.963 292.993 465.465C292.764 466.966 295.696 467.824 296.01 469.44C296.325 471.056 293.837 473.144 290.819 475.989C287.802 478.835 281.296 486.471 281.482 487.429C281.667 488.388 284.57 491.219 284.628 492.678C282.725 495.062 281.219 497.737 280.166 500.6C279.337 503.231 278.65 505.362 278.207 506.463C277.764 507.564 274.074 508.422 272.573 508.164C270.099 507.735 264.936 503.603 265.251 495.08C265.566 486.557 270.013 484.684 273.931 481.009C277.849 477.334 278.922 468.982 279.437 466.709C280.056 464.279 281.535 462.156 283.598 460.731C285.384 459.896 287.349 459.513 289.318 459.616C292.793 459.716 294.823 460.36 297.555 459.931C300.629 459.444 301.959 463.32 301.959 463.32C301.959 463.32 301.73 463.391 300.944 463.491Z" fill="#FF6B6C"/>
<path d="M274.331 506.22C273.659 504.79 272.901 503.274 272.358 503.36C271.814 503.445 268.54 503.96 267.324 503.36C266.109 502.759 265.637 501.358 265.065 500.028C264.232 496.719 264.188 493.261 264.936 489.932C266.366 485.184 268.511 483.711 271.743 480.036C274.663 477.07 276.467 473.184 276.848 469.04C277.706 463.634 278.035 461.775 279.908 460.188C279.432 460.161 278.955 460.161 278.478 460.188C277.734 460.855 277.172 461.702 276.848 462.647C276.39 464.077 275.418 472.286 274.317 474.474C273.162 476.773 271.596 478.842 269.698 480.58C267.768 482.696 265.265 484.669 263.892 489.96C262.724 494.929 263.572 500.159 266.252 504.504C268.654 507.964 270.141 508.307 270.728 508.565C271.953 508.748 273.204 508.61 274.36 508.164C274.989 507.807 274.817 507.264 274.331 506.22Z" fill="#455A64"/>
<path d="M281.51 485.671C284.213 488.259 285.471 490.662 285.385 491.863C285.208 492.413 284.844 492.883 284.356 493.193C284.356 493.193 284.012 490.919 280.48 487.215C280.44 486.877 280.522 486.536 280.71 486.253C280.899 485.97 281.183 485.764 281.51 485.671Z" fill="#455A64"/>
<path d="M288.159 488.974C287.641 486.362 286.154 484.043 283.998 482.482C284.01 482.167 284.116 481.862 284.302 481.608C284.488 481.353 284.746 481.159 285.042 481.052C287.279 482.705 288.811 485.14 289.332 487.873C289.332 487.873 288.989 488.902 288.159 488.974Z" fill="#455A64"/>
<path d="M292.092 485.256C292.435 483.311 289.632 479.364 287.873 478.106C287.847 477.929 287.858 477.748 287.904 477.575C287.951 477.402 288.032 477.24 288.143 477.099C288.254 476.959 288.393 476.842 288.55 476.757C288.708 476.672 288.882 476.62 289.06 476.604C291.428 478.397 293.044 481.007 293.593 483.926C293.593 483.926 293.25 485.299 292.092 485.256Z" fill="#455A64"/>
<path d="M295.867 482.01C295.724 480.527 295.285 479.089 294.575 477.779C293.865 476.47 292.899 475.317 291.734 474.388C291.804 474.073 291.967 473.786 292.202 473.565C292.436 473.343 292.732 473.196 293.05 473.144C294.334 474.004 295.394 475.159 296.14 476.513C296.886 477.866 297.298 479.378 297.34 480.923C296.997 481.452 296.473 481.838 295.867 482.01Z" fill="#455A64"/>
<path d="M387.53 438.61C388.96 442.027 388.145 448.377 379.88 455.698C371.614 463.02 355.398 465.708 352.081 459.602C348.763 453.496 356.785 443.529 365.78 438.981C374.775 434.434 384.67 433.29 387.53 438.61Z" fill="#37474F"/>
<path d="M429.872 587.73C429.649 587.457 429.389 587.216 429.1 587.015C428.828 586.8 428.628 586.7 428.385 586.528C419.591 579.95 416.216 575.432 410.653 566.094C409.595 562.919 407.793 558.357 407.364 554.554C406.749 548.333 405.705 539.338 404.933 531.945C403.389 517.145 402.33 501.987 401.401 489.875C399.971 471.914 398.927 469.183 393.379 456.041C387.215 441.455 379.236 424.981 373.073 410.924C379.307 410.51 383.655 405.533 391.033 393.693C391.305 387.973 390.133 384.984 389.475 378.492C382.88 379.889 376.186 380.764 369.455 381.109C356.799 381.924 347.361 381.452 337.766 376.418C335.149 382.439 328.871 390.718 329.472 406.105C330.087 421.835 341.598 438.295 350.207 451.651C356.613 461.575 361.819 470.87 369.927 482.696C369.498 492.234 369.927 498.426 372.858 507.364C374.288 511.654 379.608 522.707 384.298 535.463C387.501 544.215 390.233 551.708 390.676 553.51C391.591 557.242 392.306 560.66 390.89 564.792C390.261 566.594 388.989 569.154 390.361 571.585C392.292 575.003 395.752 575.675 398.484 578.578C400.903 581.001 403.069 583.665 404.947 586.528C406.055 588.294 407.528 589.802 409.267 590.951C411.006 592.1 412.97 592.865 415.029 593.192C417.473 593.763 420.008 593.827 422.477 593.38C424.947 592.932 427.298 591.982 429.386 590.59C429.802 590.309 430.117 589.903 430.287 589.431C430.343 589.134 430.335 588.829 430.264 588.535C430.192 588.242 430.059 587.967 429.872 587.73Z" fill="#FFA8A7"/>
<path d="M329.973 375.832C328.828 385.321 328.317 394.875 328.442 404.432C328.442 417.302 334.663 428.742 340.883 439.567C347.104 450.392 352.08 459.587 352.08 459.587C352.08 459.587 351.551 450.378 362.519 442.256C374.317 433.533 385.399 435.291 387.53 438.595L374.989 409.995C374.989 409.995 387.158 403.817 391.52 393.707C391.52 393.707 391.034 385.656 389.761 377.662C389.761 377.734 356.857 388.659 329.973 375.832Z" fill="#455A64"/>
<path d="M374.345 409.923C377.806 417.874 382.639 427.083 385.156 433.204L379.879 411.84C384.984 406.434 387.33 404.218 389.889 396.982C386.672 401.987 382.11 404.804 374.345 409.923Z" fill="#263238"/>
<path d="M391.448 556.07C390.218 556.47 390.19 557.9 391.005 559.101C391.417 559.727 391.87 560.324 392.363 560.889L391.448 556.07Z" fill="#FF6B6C"/>
<path opacity="0.3" d="M391.448 556.07C390.218 556.47 390.19 557.9 391.005 559.101C391.417 559.727 391.87 560.324 392.363 560.889L391.448 556.07Z" fill="black"/>
<path d="M420.42 578.721C418.018 575.861 412.083 566.408 411.096 563.577C410.11 560.745 411.397 558.658 408.522 559.173C405.648 559.687 401.601 560.016 401.129 561.675C400.657 563.334 402.002 567.252 405.076 572.071C407.661 575.703 410.72 578.973 414.171 581.795L420.42 578.721Z" fill="#FF6B6C"/>
<path opacity="0.1" d="M420.42 578.721C418.018 575.861 412.083 566.408 411.096 563.577C410.11 560.745 411.397 558.658 408.522 559.173C405.648 559.687 401.601 560.016 401.129 561.675C400.657 563.334 402.002 567.252 405.076 572.071C407.661 575.703 410.72 578.973 414.171 581.795L420.42 578.721Z" fill="black"/>
<path d="M433.519 593.45C433.69 594.651 433.519 595.481 429.329 597.011C425.139 598.541 418.704 598.512 413.327 597.182C407.951 595.852 403.317 590.947 401.058 587.501C398.798 584.055 394.237 580.823 391.205 579.136C388.174 577.448 387.559 576.776 387.802 575.747C388.045 574.717 388.96 572 388.96 572L433.519 593.45Z" fill="#EBEBEB"/>
<path d="M391.448 556.07C390.476 556.742 390.919 558.615 392.549 560.188C393.207 561.175 393.607 564.621 395.08 565.15C396.553 565.679 397.94 562.948 399.613 562.948C401.286 562.948 402.859 565.808 405.105 569.34C407.35 572.872 413.685 580.78 414.628 580.78C415.572 580.78 418.99 578.449 420.448 578.678C422.666 580.794 424.995 582.79 427.427 584.655C430.859 587.187 432.06 587.959 433.061 588.631C434.062 589.303 434.277 591.72 433.719 593.15C433.161 594.58 425.225 598.069 416.831 596.11C408.436 594.151 406.034 590.461 403.145 585.871C401.002 582.429 397.995 579.609 394.422 577.691C392.221 576.684 390.235 575.261 388.574 573.501C388.097 571.581 388.097 569.573 388.574 567.653C389.346 564.221 390.333 561.361 389.889 558.601C389.699 557.917 389.719 557.191 389.946 556.518C390.172 555.845 390.596 555.255 391.162 554.826C391.291 555.232 391.386 555.648 391.448 556.07Z" fill="#FF6B6C"/>
<path d="M432.418 590.175C430.888 590.561 429.229 590.976 429.157 591.605C429.086 592.234 429.014 595.509 428.185 596.596C427.792 597.087 427.29 597.479 426.719 597.742C426.149 598.005 425.524 598.132 424.896 598.112C421.081 598.323 417.256 597.976 413.542 597.082C409.539 595.869 405.996 593.476 403.374 590.218C400.2 586.428 399.628 584.598 395.438 581.638C391.248 578.678 389.718 578.263 387.802 576.519C387.642 576.983 387.527 577.462 387.458 577.949C387.948 578.641 388.602 579.201 389.36 579.579C392.114 580.932 394.737 582.536 397.197 584.369C399.281 586.458 401.193 588.71 402.917 591.105C405.684 594.419 409.387 596.821 413.542 597.997C418.289 599.213 424.853 599.427 429.143 597.897C433.433 596.367 433.676 595.466 434.048 594.951C434.459 593.531 434.561 592.039 434.348 590.575C434.076 589.832 433.505 589.889 432.418 590.175Z" fill="#455A64"/>
<path d="M412.87 580.48C415.958 578.306 418.59 577.534 419.762 577.849C420.272 578.129 420.667 578.579 420.878 579.121C420.878 579.121 418.561 579.021 414.2 581.795C413.857 581.772 413.534 581.627 413.29 581.385C413.045 581.144 412.896 580.822 412.87 580.48Z" fill="#455A64"/>
<path d="M417.446 574.531C414.756 574.54 412.168 575.561 410.196 577.391C409.879 577.325 409.59 577.163 409.368 576.928C409.145 576.693 409 576.396 408.952 576.076C411.035 574.204 413.745 573.183 416.545 573.216C416.545 573.216 417.56 573.702 417.446 574.531Z" fill="#455A64"/>
<path d="M414.514 569.926C412.655 569.211 408.193 571.213 406.592 572.715C406.416 572.704 406.244 572.658 406.085 572.58C405.927 572.502 405.786 572.393 405.67 572.26C405.555 572.127 405.466 571.972 405.411 571.805C405.356 571.637 405.334 571.46 405.348 571.285C407.581 569.282 410.485 568.19 413.484 568.224C413.484 568.224 414.771 568.782 414.514 569.926Z" fill="#455A64"/>
<path d="M412.026 565.551C410.529 565.4 409.018 565.555 407.583 566.005C406.147 566.454 404.818 567.19 403.675 568.167C403.378 568.035 403.128 567.817 402.955 567.543C402.782 567.268 402.694 566.948 402.702 566.623C403.808 565.513 405.165 564.685 406.659 564.21C408.152 563.734 409.738 563.625 411.282 563.892C411.723 564.337 411.987 564.926 412.026 565.551Z" fill="#455A64"/>
<path d="M436.851 292.092C435.034 294.008 431.131 297.812 419.19 308.179C410.438 315.787 400.471 325.854 397.311 335.192C397.854 322.079 384.827 301.53 384.827 301.53C388.588 300.529 392.363 299.614 395.338 297.497C407.979 288.531 414.829 281.953 418.289 277.949C419.362 276.676 419.905 275.718 420.305 272.486C420.663 269.626 423.766 244.387 422.736 233.876C422.532 232.008 421.652 230.279 420.263 229.014C416.559 225.611 415.386 222.594 412.855 218.69C410.867 215.63 408.88 214.586 409.366 213.828C410.015 213.011 410.948 212.47 411.979 212.311C413.01 212.152 414.063 212.387 414.929 212.97C416.867 214.188 418.657 215.627 420.263 217.26C419.531 213.193 418.145 209.272 416.158 205.648C411.64 197.326 412.212 192.778 424.109 194.995C431.56 196.339 438.509 202.617 440.998 220.063C441.713 225.082 441.484 232.575 441.455 239.01C441.369 253.653 441.312 265.551 440.726 277.391C440.44 282.554 440.283 288.474 436.851 292.092Z" fill="#FFA8A7"/>
<path d="M337.38 307.922C335.95 313.313 328.943 359.145 327.727 397.683C345.287 405.377 381.052 399.113 391.648 386.243L392.778 366.81C395.466 352.224 396.524 339.353 397.683 333.09C398.941 326.183 398.755 309.095 387.53 302.374C382.644 300.668 377.517 299.755 372.343 299.671C365.608 299.428 353.324 299.471 346.603 300.786C343.343 301.444 338.309 304.59 337.38 307.922Z" fill="#FF6B6C"/>
<path opacity="0.6" d="M337.38 307.922C335.95 313.313 328.943 359.145 327.727 397.683C345.287 405.377 381.052 399.113 391.648 386.243L392.778 366.81C395.466 352.224 396.524 339.353 397.683 333.09C398.941 326.183 398.755 309.095 387.53 302.374C382.644 300.668 377.517 299.755 372.343 299.671C365.608 299.428 353.324 299.471 346.603 300.786C343.343 301.444 338.309 304.59 337.38 307.922Z" fill="white"/>
<path d="M350.864 345.903C350.864 345.903 376.004 347.933 391.648 341.527L388.959 366.538C388.959 366.538 372.443 375.332 348.419 369.626L350.864 345.903Z" fill="#FAFAFA"/>
<path d="M363.22 356.957C363.22 357.185 363.22 357.443 363.22 357.715V358.573L363.134 359.431C363.123 359.69 363.094 359.948 363.048 360.203C362.968 360.864 362.804 361.513 362.562 362.133C362.338 362.671 362.007 363.158 361.59 363.563C361.14 363.996 360.589 364.311 359.988 364.479C359.238 364.683 358.456 364.736 357.686 364.636C356.909 364.569 356.152 364.356 355.455 364.007C354.888 363.715 354.398 363.293 354.025 362.777C353.68 362.273 353.441 361.703 353.324 361.104C353.198 360.444 353.145 359.773 353.167 359.102C353.167 358.63 353.167 358.101 353.267 357.514C353.367 356.928 353.381 356.399 353.439 355.941C353.532 355.281 353.7 354.634 353.939 354.011C354.152 353.468 354.484 352.979 354.911 352.581C355.356 352.162 355.896 351.858 356.484 351.694C357.236 351.501 358.018 351.458 358.787 351.566C359.565 351.621 360.326 351.82 361.032 352.152C361.582 352.413 362.062 352.803 362.43 353.288C362.798 353.773 363.045 354.34 363.148 354.94C363.256 355.607 363.28 356.284 363.22 356.957ZM355.555 359.402C355.508 360.132 355.667 360.86 356.013 361.504C356.211 361.787 356.474 362.019 356.78 362.18C357.086 362.342 357.426 362.429 357.771 362.434C358.107 362.502 358.453 362.489 358.782 362.394C359.111 362.3 359.412 362.127 359.659 361.89C360.116 361.325 360.399 360.64 360.474 359.917C360.474 359.459 360.589 358.944 360.631 358.387C360.674 357.829 360.717 357.314 360.732 356.857C360.785 356.131 360.626 355.406 360.274 354.769C360.072 354.491 359.808 354.265 359.502 354.108C359.196 353.952 358.858 353.87 358.515 353.868C358.182 353.799 357.838 353.81 357.51 353.899C357.182 353.989 356.879 354.154 356.627 354.383C356.17 354.94 355.891 355.623 355.827 356.342C355.755 356.799 355.698 357.314 355.655 357.872C355.612 358.43 355.584 358.93 355.569 359.402H355.555Z" fill="black"/>
<path d="M372.086 356.542C372.44 356.295 372.73 355.966 372.929 355.584C373.071 355.322 373.164 355.036 373.201 354.74C373.243 354.526 373.239 354.306 373.189 354.094C373.14 353.882 373.047 353.683 372.915 353.51C372.721 353.343 372.491 353.222 372.244 353.155C371.996 353.088 371.737 353.077 371.485 353.124C370.904 353.129 370.343 353.336 369.898 353.71C369.528 354.08 369.241 354.523 369.054 355.012C368.996 355.16 368.897 355.289 368.768 355.383C368.671 355.463 368.55 355.508 368.425 355.512H366.995C366.93 355.519 366.865 355.513 366.804 355.493C366.742 355.473 366.685 355.441 366.637 355.398C366.594 355.353 366.564 355.298 366.549 355.237C366.534 355.177 366.535 355.114 366.551 355.054C366.671 354.496 366.889 353.964 367.195 353.481C367.515 352.985 367.911 352.541 368.368 352.166C368.847 351.775 369.382 351.457 369.955 351.222C370.544 350.968 371.173 350.818 371.814 350.779C372.488 350.704 373.17 350.772 373.816 350.979C374.305 351.148 374.747 351.433 375.103 351.808C375.42 352.158 375.646 352.58 375.761 353.038C375.885 353.504 375.915 353.991 375.847 354.468C375.806 354.762 375.749 355.053 375.675 355.34C375.585 355.638 375.456 355.922 375.289 356.184C375.084 356.514 374.845 356.821 374.574 357.099C374.206 357.482 373.809 357.836 373.387 358.158C371.828 359.516 371.056 360.188 369.497 361.504C371.585 361.361 372.629 361.275 374.717 361.06C374.779 361.051 374.842 361.057 374.902 361.077C374.962 361.097 375.016 361.13 375.06 361.175C375.102 361.218 375.133 361.27 375.15 361.327C375.168 361.384 375.171 361.445 375.16 361.504C375.16 362.019 375.06 362.276 374.989 362.791C374.963 362.929 374.892 363.054 374.788 363.148C374.686 363.255 374.549 363.321 374.402 363.334C370.884 363.692 369.14 363.82 365.651 363.978C365.588 363.981 365.525 363.971 365.465 363.949C365.406 363.927 365.353 363.893 365.307 363.849C365.267 363.802 365.237 363.748 365.22 363.688C365.203 363.629 365.198 363.567 365.207 363.506L365.365 362.39C365.393 362.187 365.483 361.998 365.622 361.847C365.732 361.728 365.852 361.618 365.979 361.518C368.353 359.602 369.597 358.587 372.086 356.542Z" fill="black"/>
<path d="M388.373 348.92C388.43 348.901 388.49 348.898 388.548 348.91C388.606 348.923 388.659 348.951 388.702 348.991C388.747 349.03 388.78 349.079 388.8 349.134C388.82 349.189 388.826 349.248 388.817 349.306C388.817 349.821 388.702 350.078 388.631 350.593C388.615 350.743 388.549 350.884 388.445 350.993L388.13 351.351C386.872 352.681 386.228 353.339 384.97 354.64C385.474 354.621 385.978 354.664 386.471 354.769C386.865 354.867 387.232 355.053 387.544 355.312C387.83 355.571 388.043 355.902 388.159 356.27C388.288 356.736 388.312 357.224 388.23 357.7C388.144 358.323 387.93 358.922 387.601 359.459C387.262 359.996 386.842 360.478 386.357 360.889C385.837 361.263 385.27 361.566 384.67 361.79C384.006 362.078 383.31 362.284 382.596 362.405C381.852 362.517 381.095 362.517 380.351 362.405C379.81 362.325 379.29 362.141 378.821 361.861C378.456 361.626 378.164 361.294 377.977 360.903C377.81 360.551 377.731 360.163 377.748 359.774C377.751 359.702 377.769 359.632 377.801 359.567C377.833 359.503 377.878 359.447 377.934 359.402C378.044 359.306 378.177 359.242 378.32 359.216L379.822 359.03C379.872 359.019 379.924 359.019 379.973 359.032C380.023 359.044 380.069 359.068 380.108 359.101C380.197 359.188 380.27 359.289 380.322 359.402C380.379 359.54 380.462 359.666 380.566 359.774C380.7 359.892 380.855 359.984 381.023 360.045C381.263 360.126 381.514 360.169 381.767 360.174C382.15 360.183 382.533 360.154 382.911 360.088C383.604 359.989 384.265 359.729 384.841 359.33C385.08 359.166 385.281 358.954 385.434 358.708C385.586 358.462 385.686 358.187 385.728 357.9C385.787 357.686 385.763 357.457 385.659 357.26C385.555 357.064 385.38 356.914 385.17 356.842C384.572 356.707 383.952 356.707 383.354 356.842L381.781 357.085C381.723 357.098 381.663 357.097 381.606 357.082C381.549 357.067 381.496 357.039 381.452 356.999C381.407 356.959 381.372 356.907 381.352 356.85C381.332 356.792 381.327 356.73 381.338 356.67C381.409 356.156 381.452 355.898 381.524 355.383C381.54 355.233 381.605 355.092 381.709 354.983L382.024 354.64C383.24 353.424 383.84 352.795 385.041 351.551C382.954 351.909 381.91 352.052 379.822 352.323C379.761 352.337 379.697 352.335 379.637 352.317C379.578 352.3 379.523 352.267 379.479 352.223C379.437 352.183 379.406 352.134 379.388 352.079C379.371 352.024 379.367 351.965 379.379 351.909C379.45 351.379 379.493 351.122 379.564 350.607C379.582 350.47 379.648 350.343 379.75 350.25C379.855 350.145 379.99 350.075 380.136 350.05C383.383 349.721 385.041 349.463 388.373 348.92Z" fill="black"/>
<path d="M358.501 246.203C356.895 246.415 355.366 247.018 354.048 247.957C352.729 248.897 351.66 250.146 350.936 251.594C349.349 254.755 350.407 261.147 352.209 269.569C353.205 275.013 354.782 280.335 356.913 285.442C357.674 286.896 358.964 288.002 360.517 288.531L360.603 278.607L360.46 271.671C360.46 271.671 366.637 273.759 368.482 263.706C369.215 259.286 369.602 254.816 369.64 250.336L358.501 246.203Z" fill="#263238"/>
<path d="M365.794 257.257C365.676 260.937 366.653 264.568 368.602 267.692C370.551 270.815 373.383 273.29 376.74 274.802C380.097 276.313 383.827 276.794 387.458 276.184C391.088 275.573 394.456 273.898 397.133 271.371C399.811 268.844 401.678 265.579 402.497 261.99C403.317 258.401 403.053 254.649 401.738 251.211C400.422 247.772 398.116 244.801 395.11 242.675C392.105 240.549 388.536 239.363 384.856 239.267C379.946 239.14 375.186 240.961 371.615 244.331C368.043 247.702 365.951 252.349 365.794 257.257Z" fill="#263238"/>
<path d="M362.877 271.214C362.576 271.331 362.247 271.356 361.933 271.286C361.522 271.15 361.149 270.921 360.844 270.615C360.538 270.31 360.309 269.937 360.174 269.527C359.923 268.701 359.627 267.889 359.287 267.096C358.544 265.666 356.313 265.122 354.783 265.122C353.793 265.157 352.825 265.421 351.955 265.892C351.084 266.364 350.334 267.03 349.763 267.839C346.489 272.129 349.892 279.408 353.267 281.095C358.186 283.584 360.603 278.607 360.603 278.607L360.36 301.044C360.36 301.044 361.547 305.334 370.012 308.58C376.633 311.14 386.686 307.536 380.68 300.972V293.536C384.061 294.318 387.559 294.454 390.99 293.937C394.351 293.25 396.024 290.991 397.554 285.771C400.8 274.299 400.795 262.149 397.54 250.679C393.993 247.748 388.23 248.434 384.098 249.249C381.007 249.901 377.989 250.859 375.089 252.109C374.574 252.324 373.087 252.71 372.786 253.182C372.486 253.654 372.786 254.326 372.786 254.812C372.749 256.175 372.273 257.489 371.428 258.558C369.894 260.039 367.839 260.856 365.708 260.832C365.694 263.427 365.318 266.006 364.593 268.497C364.407 269.555 363.792 270.914 362.877 271.214Z" fill="#FFA8A7"/>
<path d="M401.83 238.538C401.779 238.401 401.692 238.28 401.579 238.187C401.466 238.094 401.331 238.033 401.186 238.009C400.951 238.018 400.725 238.104 400.543 238.252C399.242 239.236 397.859 240.107 396.41 240.855C396.841 239.047 396.923 237.174 396.653 235.335C396.481 234.205 396.253 231.589 394.866 231.274C394.05 231.074 393.307 231.746 392.678 232.304C386.958 237.337 379.808 234.692 373.044 234.692C367.424 234.692 360.589 236.765 357.872 242.128C356.642 244.587 356.356 247.218 358.587 249.006C360.503 250.55 366.895 252.109 369.183 252.867C375.26 254.869 390.904 260.017 399.499 249.85C400.944 247.863 401.922 245.575 402.359 243.157C402.618 241.622 402.434 240.045 401.83 238.61V238.538Z" fill="#263238"/>
<path d="M380.78 293.536C380.78 293.536 372.4 291.763 369.083 289.461C366.911 287.979 365.138 285.985 363.92 283.655C363.92 283.655 364.635 288.431 366.923 291.005C370.956 295.524 380.751 296.897 380.751 296.897L380.78 293.536Z" fill="#F28F8F"/>
<path d="M380.165 268.683C380.137 269.083 379.992 269.466 379.747 269.784C379.503 270.102 379.171 270.341 378.791 270.472C378.412 270.603 378.003 270.619 377.614 270.519C377.226 270.418 376.876 270.206 376.607 269.908C376.338 269.61 376.163 269.24 376.103 268.843C376.044 268.447 376.102 268.041 376.271 267.677C376.44 267.314 376.712 267.007 377.054 266.797C377.395 266.587 377.791 266.482 378.192 266.495C378.742 266.528 379.257 266.776 379.626 267.185C379.995 267.594 380.189 268.132 380.165 268.683Z" fill="#263238"/>
<path d="M377.42 261.604L373.129 264.135C372.801 263.546 372.713 262.852 372.883 262.2C373.054 261.547 373.47 260.985 374.045 260.632C374.328 260.467 374.643 260.361 374.968 260.321C375.294 260.28 375.624 260.306 375.94 260.397C376.255 260.488 376.549 260.642 376.803 260.849C377.057 261.057 377.267 261.313 377.42 261.604Z" fill="#263238"/>
<path d="M379.593 280.709L388.173 283.34C387.788 284.499 386.971 285.464 385.892 286.034C384.813 286.604 383.555 286.735 382.381 286.4C381.818 286.219 381.298 285.926 380.851 285.538C380.404 285.151 380.039 284.678 379.779 284.147C379.519 283.616 379.368 283.037 379.336 282.447C379.304 281.856 379.391 281.265 379.593 280.709Z" fill="#B16668"/>
<path d="M385.313 286.286C385.048 285.156 384.391 284.157 383.459 283.466C382.527 282.774 381.38 282.436 380.222 282.511C379.939 282.543 379.657 282.591 379.378 282.654C379.451 283.512 379.781 284.328 380.324 284.996C380.867 285.664 381.599 286.154 382.424 286.4C383.373 286.686 384.39 286.646 385.313 286.286Z" fill="#F28F8F"/>
<path d="M397.439 262.648L392.992 260.346C393.126 260.047 393.32 259.779 393.562 259.558C393.803 259.337 394.088 259.168 394.397 259.061C394.706 258.954 395.034 258.911 395.361 258.935C395.687 258.959 396.005 259.05 396.295 259.202C396.892 259.519 397.344 260.054 397.557 260.696C397.77 261.338 397.728 262.037 397.439 262.648Z" fill="#263238"/>
<path d="M395.824 267.61C395.796 268.01 395.651 268.392 395.407 268.71C395.164 269.028 394.832 269.267 394.454 269.398C394.075 269.53 393.667 269.547 393.278 269.448C392.89 269.349 392.54 269.138 392.271 268.841C392.001 268.545 391.825 268.176 391.763 267.78C391.702 267.384 391.758 266.979 391.925 266.615C392.092 266.251 392.362 265.944 392.701 265.732C393.041 265.519 393.436 265.412 393.836 265.422C394.389 265.452 394.908 265.698 395.28 266.108C395.652 266.517 395.847 267.057 395.824 267.61Z" fill="#263238"/>
<path d="M386.457 278.449L392.907 276.791L385.571 266.538L386.457 278.449Z" fill="#F28F8F"/>
<path d="M361.275 396.182L353.968 396.997L359.144 391.434C331.817 401.787 290.376 393.922 242.242 402.774C212.898 408.165 177.177 428.786 166.695 440.383V456.985C177.32 444.115 218.504 418.49 243.157 413.556C294.108 403.332 334.677 412.541 357.714 404.49L361.718 402.774L354.683 401.945L361.275 396.182Z" fill="#FF6B6C"/>
<path opacity="0.2" d="M361.275 396.182L353.968 396.997L359.144 391.434C331.817 401.787 290.376 393.922 242.242 402.774C212.898 408.165 177.177 428.786 166.695 440.383V456.985C177.32 444.115 218.504 418.49 243.157 413.556C294.108 403.332 334.677 412.541 357.714 404.49L361.718 402.774L354.683 401.945L361.275 396.182Z" fill="black"/>
<path d="M315.615 410.925C313.484 406.935 312.126 405.719 310.996 401.93C312.183 402.99 313.511 403.881 314.943 404.575C316.673 405.276 318.918 405.076 319.361 403.517C319.805 401.958 317.174 401.272 316.072 399.613C314.341 396.781 312.339 394.123 310.095 391.677C309.484 391.2 308.977 390.605 308.603 389.926C308.23 389.248 307.998 388.501 307.921 387.73C307.121 376.633 307.564 363.263 307.135 350.707C315.1 345.688 331.631 336.865 338.28 332.775C343.457 329.586 347.647 321.249 348.777 312.898C349.063 310.782 349.349 303.46 348.119 300.557C343.829 299.914 338.037 301.401 333.275 304.676C330.415 306.649 324.91 310.896 312.369 320.305C305.219 325.625 295.28 332.575 287.773 341.555C284.427 345.574 290.046 379.093 291.233 386.643C291.877 390.733 293.035 397.025 294.408 402.373C296.725 411.396 302.559 418.575 309.294 419.633C320.048 421.349 318.489 416.316 315.615 410.925Z" fill="#FFA8A7"/>
<path d="M435.878 339.239C423.008 362.748 406.477 380.952 373.358 387.244L381.438 388.788L374.66 393.25L381.552 394.179L376.833 398.827C413.127 390.862 430.516 370.727 443.815 347.461C453.238 330.987 459.344 305.004 469.969 285.742C478.363 270.541 485.699 262.419 492.592 257.657V244.144C481.738 250.407 471.299 262.104 463.048 277.219C450.965 299.47 442.513 327.098 435.878 339.239Z" fill="#FF6B6C"/>
<path opacity="0.2" d="M435.878 339.239C423.008 362.748 406.477 380.952 373.358 387.244L381.438 388.788L374.66 393.25L381.552 394.179L376.833 398.827C413.127 390.862 430.516 370.727 443.815 347.461C453.238 330.987 459.344 305.004 469.969 285.742C478.363 270.541 485.699 262.419 492.592 257.657V244.144C481.738 250.407 471.299 262.104 463.048 277.219C450.965 299.47 442.513 327.098 435.878 339.239Z" fill="black"/>
<path d="M567.01 190.748C567.01 190.748 561.075 187.173 560.789 180.738L565.179 177.206C565.179 177.206 564.579 181.152 569.684 186.801L567.01 190.748Z" fill="#FF6B6C"/>
<path d="M620.834 140.412C620.834 140.412 615.243 136.322 615.515 129.916L620.191 126.784C620.191 126.784 619.247 130.659 623.837 136.794L620.834 140.412Z" fill="#FF6B6C"/>
<path d="M654.94 362.52C654.94 362.52 649.349 358.43 649.635 352.009L654.311 348.892C654.311 348.892 653.367 352.767 657.957 358.902L654.94 362.52Z" fill="#FF6B6C"/>
<path d="M619.319 64.9509C619.319 64.9509 617.059 58.4015 620.949 53.2964L626.569 53.3965C626.569 53.3965 623.58 56.042 623.88 63.6496L619.319 64.9509Z" fill="#FF6B6C"/>
<path d="M664.107 188.274C664.107 188.274 667.21 194.466 664.035 200.043L658.444 200.701C658.444 200.701 661.061 197.683 659.745 190.176L664.107 188.274Z" fill="#FF6B6C"/>
<path d="M135.507 166.052C135.507 166.052 139.439 159.617 136.479 153.282L130.459 152.081C130.459 152.081 133.033 155.584 130.945 163.621L135.507 166.052Z" fill="#FF6B6C"/>
<path d="M306.549 48.6201C306.549 48.6201 306.464 55.5556 311.755 59.1735L317.074 57.3002C317.074 57.3002 313.399 55.7272 311.354 48.4199L306.549 48.6201Z" fill="#FF6B6C"/>
<path d="M53.5393 245.96C53.5393 245.96 59.6025 242.6 60.1173 236.207L55.8273 232.518C55.8273 232.518 56.2849 236.479 50.9653 241.927L53.5393 245.96Z" fill="#FF6B6C"/>
<path d="M81.8391 302.945C81.8391 302.945 75.7902 299.585 75.2754 293.15L79.5654 289.46C79.5654 289.46 79.1078 293.422 84.4274 298.87L81.8391 302.945Z" fill="#FF6B6C"/>
<path d="M91.3487 288.96C91.3487 288.96 88.7461 282.54 92.364 277.234L97.9839 277.048C97.9839 277.048 95.1239 279.837 95.8389 287.416L91.3487 288.96Z" fill="#FF6B6C"/>
<path d="M535.935 47.4189C535.935 47.4189 535.549 54.3258 540.683 58.1725L546.074 56.5423C546.074 56.5423 542.47 54.812 540.683 47.4189H535.935Z" fill="#FF6B6C"/>
<path d="M675.932 95.9531C675.932 95.9531 679.064 102.116 675.932 107.708L670.355 108.394C670.355 108.394 672.944 105.363 671.585 97.8693L675.932 95.9531Z" fill="#FF6B6C"/>
<path d="M584.413 111.54C584.413 111.54 579.336 106.836 580.352 100.501L585.356 97.9409C585.356 97.9409 583.926 101.673 587.83 108.237L584.413 111.54Z" fill="#FF6B6C"/>
<path d="M612.641 222.179C612.641 222.179 615.658 228.414 612.412 233.948L606.807 234.52C606.807 234.52 609.466 231.531 608.237 224.01L612.641 222.179Z" fill="#FF6B6C"/>
<path d="M650.765 282.84C650.765 282.84 648.748 276.205 652.838 271.257L658.444 271.557C658.444 271.557 654.554 274.288 654.568 281.91L650.765 282.84Z" fill="#FF6B6C"/>
<path d="M644.158 300.786C644.158 300.786 638.209 297.254 637.88 290.776L642.242 287.23C642.489 290.996 643.927 294.586 646.346 297.483L644.158 300.786Z" fill="#FF6B6C"/>
<path d="M283.326 82.6543C283.326 82.6543 286.329 88.8891 283.054 94.4089L277.449 94.9666C277.449 94.9666 280.123 91.9922 278.879 84.4704L283.326 82.6543Z" fill="#FF6B6C"/>
<path d="M64.4787 173.559C64.4787 173.559 69.784 169.112 69.0833 162.734L64.207 159.874C64.207 159.874 65.4082 163.678 61.2183 170.041L64.4787 173.559Z" fill="#FF6B6C"/>
<path d="M69.355 363.22C69.355 363.22 70.8708 371.8 78.2496 374.975L84.37 371.4C84.37 371.4 79.4794 370.327 75.1751 361.819L69.355 363.22Z" fill="#FF6B6C"/>
<path d="M116.774 212.441C116.774 212.441 116.46 219.362 121.636 223.152L127.013 221.464C127.013 221.464 122.566 219.777 120.707 212.398L116.774 212.441Z" fill="#FF6B6C"/>
<g opacity="0.25">
<path opacity="0.25" d="M535.935 47.4189C535.935 47.4189 535.549 54.3258 540.683 58.1725L546.074 56.5423C546.074 56.5423 542.47 54.812 540.683 47.4189H535.935Z" fill="black"/>
<path opacity="0.25" d="M675.932 95.9531C675.932 95.9531 679.064 102.116 675.932 107.708L670.355 108.394C670.355 108.394 672.944 105.363 671.585 97.8693L675.932 95.9531Z" fill="black"/>
<path opacity="0.25" d="M584.412 111.54C584.412 111.54 579.336 106.836 580.351 100.501L585.356 97.9409C585.356 97.9409 583.926 101.673 587.83 108.237L584.412 111.54Z" fill="black"/>
<path opacity="0.25" d="M612.641 222.179C612.641 222.179 615.658 228.414 612.412 233.948L606.806 234.52C606.806 234.52 609.466 231.531 608.236 224.01L612.641 222.179Z" fill="black"/>
<path opacity="0.25" d="M650.765 282.84C650.765 282.84 648.748 276.205 652.838 271.257L658.444 271.557C658.444 271.557 654.554 274.288 654.568 281.91L650.765 282.84Z" fill="black"/>
<path opacity="0.25" d="M644.158 300.786C644.158 300.786 638.209 297.254 637.88 290.776L642.242 287.23C642.489 290.996 643.927 294.586 646.346 297.483L644.158 300.786Z" fill="black"/>
<path opacity="0.25" d="M283.326 82.6543C283.326 82.6543 286.329 88.8891 283.054 94.4089L277.449 94.9666C277.449 94.9666 280.123 91.9922 278.879 84.4704L283.326 82.6543Z" fill="black"/>
<path opacity="0.25" d="M64.4787 173.559C64.4787 173.559 69.784 169.112 69.0833 162.734L64.207 159.874C64.207 159.874 65.4082 163.678 61.2183 170.041L64.4787 173.559Z" fill="black"/>
<path opacity="0.25" d="M69.355 363.22C69.355 363.22 70.8708 371.8 78.2496 374.975L84.37 371.4C84.37 371.4 79.4794 370.327 75.1751 361.819L69.355 363.22Z" fill="black"/>
<path opacity="0.25" d="M116.774 212.441C116.774 212.441 116.459 219.362 121.636 223.152L127.012 221.464C127.012 221.464 122.565 219.777 120.706 212.398L116.774 212.441Z" fill="black"/>
</g>
</svg>
