<svg width="622" height="622" viewBox="0 0 622 622" fill="none" xmlns="http://www.w3.org/2000/svg">
<path d="M580.811 393.353H376.932V275.372H580.811V393.353ZM378.176 392.109H579.567V276.616H378.176V392.109Z" fill="#E0E0E0"/>
<path d="M538.752 338.281H404.238V342.224H538.752V338.281Z" fill="#F0F0F0"/>
<path d="M548.019 352.985H404.238V357.289H548.019V352.985Z" fill="#F0F0F0"/>
<path d="M548.019 367.863H404.238V372.167H548.019V367.863Z" fill="#F0F0F0"/>
<path d="M451.249 316.921H404.238V327.159H451.249V316.921Z" fill="#F0F0F0"/>
<path d="M580.189 275.994H377.591V294.778H580.189V275.994Z" fill="#E0E0E0"/>
<path d="M564.602 291.966C564.341 291.718 566.953 288.57 570.424 284.938C573.894 281.305 576.942 278.556 577.191 278.792C577.44 279.029 574.84 282.189 571.369 285.834C567.898 289.478 564.851 292.215 564.602 291.966Z" fill="white"/>
<path d="M577.216 291.967C576.967 292.215 573.932 289.479 570.449 285.834C566.965 282.189 564.365 279.041 564.627 278.793C564.888 278.544 567.911 281.281 571.394 284.938C574.877 288.595 577.452 291.718 577.216 291.967Z" fill="white"/>
<path d="M329.934 42.3579H127.336V159.107H329.934V42.3579Z" fill="#E6E6E6"/>
<path d="M288.508 104.657H153.995V108.601H288.508V104.657Z" fill="#F0F0F0"/>
<path d="M297.776 119.361H153.995V123.666H297.776V119.361Z" fill="#F0F0F0"/>
<path d="M297.776 134.24H153.995V138.544H297.776V134.24Z" fill="#F0F0F0"/>
<path d="M201.005 83.2979H153.995V93.536H201.005V83.2979Z" fill="#F0F0F0"/>
<path d="M329.934 42.3579H127.336V61.1423H329.934V42.3579Z" fill="#E0E0E0"/>
<path d="M313.662 58.2436C313.401 58.0072 316.013 54.8474 319.484 51.215C322.955 47.5825 326.003 44.8332 326.251 45.082C326.5 45.3308 323.9 48.4782 320.43 52.1106C316.959 55.7431 313.911 58.4675 313.662 58.2436Z" fill="white"/>
<path d="M326.251 58.2436C326.003 58.4924 322.967 55.7556 319.484 52.1107C316.001 48.4658 313.401 45.3309 313.662 45.0821C313.923 44.8333 316.946 47.5701 320.43 51.215C323.913 54.8599 326.513 58.0073 326.251 58.2436Z" fill="white"/>
<path d="M253.204 259.237H49.3619V141.244H253.204V259.237ZM50.6059 257.993H251.96V142.488H50.6059V257.993Z" fill="#E0E0E0"/>
<path d="M211.157 204.165H76.6428V208.109H211.157V204.165Z" fill="#F0F0F0"/>
<path d="M220.424 218.869H76.6428V223.173H220.424V218.869Z" fill="#F0F0F0"/>
<path d="M220.424 233.748H76.6428V238.052H220.424V233.748Z" fill="#F0F0F0"/>
<path d="M123.654 182.806H76.6428V193.044H123.654V182.806Z" fill="#F0F0F0"/>
<path d="M252.582 141.866H49.9839V160.65H252.582V141.866Z" fill="#E0E0E0"/>
<path d="M488.457 286.269H249.235V500.436H488.457V286.269Z" fill="#E6E6E6"/>
<path d="M261.265 218.807H73.8687V413.505H261.265V218.807Z" fill="#F0F0F0"/>
<path d="M261.265 218.807H73.8687V240.017H261.265V218.807Z" fill="#E0E0E0"/>
<path d="M89.3441 229.194C89.31 229.963 89.0507 230.705 88.5986 231.329C88.1464 231.952 87.5212 232.428 86.8006 232.699C86.08 232.97 85.2956 233.024 84.5449 232.853C83.7942 232.682 83.1101 232.295 82.5777 231.739C82.0452 231.183 81.6877 230.482 81.5496 229.725C81.4115 228.968 81.4989 228.186 81.8008 227.478C82.1028 226.77 82.6061 226.166 83.2482 225.741C83.8904 225.316 84.6431 225.09 85.413 225.089C86.4777 225.115 87.4888 225.561 88.2253 226.331C88.9619 227.1 89.3641 228.129 89.3441 229.194Z" fill="white"/>
<path d="M105.305 229.194C105.273 229.967 105.015 230.713 104.562 231.34C104.109 231.968 103.482 232.448 102.759 232.721C102.035 232.995 101.247 233.049 100.493 232.878C99.7385 232.707 99.0511 232.318 98.5162 231.76C97.9813 231.201 97.6224 230.497 97.4843 229.736C97.3462 228.975 97.4349 228.191 97.7395 227.48C98.044 226.769 98.5509 226.163 99.197 225.738C99.8432 225.313 100.6 225.087 101.374 225.089C102.438 225.115 103.449 225.561 104.186 226.331C104.922 227.1 105.325 228.129 105.305 229.194Z" fill="white"/>
<path d="M121.265 229.194C121.233 229.967 120.975 230.713 120.522 231.34C120.07 231.968 119.443 232.448 118.719 232.721C117.996 232.995 117.208 233.049 116.453 232.878C115.699 232.707 115.012 232.318 114.477 231.76C113.942 231.201 113.583 230.497 113.445 229.736C113.307 228.975 113.395 228.191 113.7 227.48C114.005 226.769 114.511 226.163 115.158 225.738C115.804 225.313 116.561 225.087 117.334 225.089C118.399 225.115 119.41 225.561 120.146 226.331C120.883 227.1 121.285 228.129 121.265 229.194Z" fill="white"/>
<path d="M554.053 84.9399H314.831V323.365H554.053V84.9399Z" fill="#F0F0F0"/>
<path d="M554.053 84.9399H314.831V112.868H554.053V84.9399Z" fill="#E0E0E0"/>
<path d="M335.208 98.6238C335.164 99.6391 334.823 100.619 334.227 101.442C333.631 102.265 332.807 102.895 331.856 103.254C330.905 103.612 329.869 103.684 328.878 103.459C327.887 103.234 326.984 102.723 326.281 101.99C325.578 101.256 325.105 100.332 324.923 99.3324C324.74 98.3327 324.855 97.3014 325.253 96.3664C325.652 95.4315 326.316 94.6342 327.163 94.0735C328.011 93.5128 329.005 93.2133 330.021 93.2124C331.425 93.2451 332.76 93.8328 333.732 94.847C334.704 95.8611 335.235 97.2192 335.208 98.6238Z" fill="white"/>
<path d="M354.702 94.9666C355.391 95.7156 355.845 96.6509 356.007 97.656C356.169 98.6612 356.032 99.6917 355.612 100.619C355.192 101.547 354.509 102.33 353.647 102.872C352.785 103.414 351.783 103.69 350.765 103.667C349.747 103.643 348.759 103.32 347.923 102.739C347.087 102.157 346.441 101.343 346.065 100.397C345.689 99.4504 345.6 98.4146 345.808 97.4181C346.017 96.4215 346.514 95.5084 347.238 94.7925C348.252 93.8277 349.607 93.3042 351.006 93.3369C352.405 93.3695 353.734 93.9556 354.702 94.9666Z" fill="white"/>
<path d="M377.231 98.6238C377.187 99.6391 376.846 100.619 376.25 101.442C375.654 102.265 374.829 102.895 373.878 103.254C372.927 103.612 371.892 103.684 370.901 103.459C369.91 103.234 369.006 102.723 368.303 101.99C367.6 101.256 367.128 100.332 366.945 99.3324C366.762 98.3327 366.877 97.3014 367.276 96.3664C367.674 95.4315 368.338 94.6342 369.186 94.0735C370.033 93.5128 371.027 93.2133 372.043 93.2124C373.448 93.2451 374.782 93.8328 375.754 94.847C376.726 95.8611 377.257 97.2192 377.231 98.6238Z" fill="white"/>
<path d="M502.377 563.694C502.377 563.868 415.994 564.017 309.47 564.017C202.946 564.017 116.525 563.868 116.525 563.694C116.525 563.519 202.896 563.37 309.47 563.37C416.043 563.37 502.377 563.532 502.377 563.694Z" fill="#263238"/>
<path d="M418.208 411.403C398.988 397.98 394.634 373.063 395.393 350.659C395.517 346.927 395.107 342.971 396.886 339.699C398.665 336.427 402.82 334.176 406.166 335.743C408.94 337.049 410.147 340.284 411.702 342.958C413.777 346.521 416.817 349.423 420.472 351.33C422.848 352.574 425.796 353.321 428.147 352.027C431.382 350.248 431.755 345.807 431.73 342.075C431.73 335.133 431.689 328.2 431.606 321.275C431.382 317.557 431.76 313.827 432.725 310.229C433.882 306.696 436.457 303.424 439.978 302.429C443.498 301.434 447.89 303.486 448.686 307.119C448.823 308.657 448.86 310.203 448.798 311.746C448.897 313.301 449.619 315.006 451.074 315.478C452.53 315.951 454.048 314.869 455.167 313.774C458.999 310.042 461.611 305.178 464.037 300.376C466.463 295.574 468.839 290.636 472.322 286.543C475.805 282.45 480.619 279.203 486.006 278.892C491.392 278.581 497.003 281.89 498.346 287.115C499.69 292.34 496.642 297.677 493.37 301.919C488.433 308.215 482.614 313.767 476.091 318.402C474.818 319.097 473.802 320.183 473.193 321.499C472.384 323.987 474.735 326.475 477.186 327.259C479.96 328.18 482.971 327.893 485.894 328.242C488.817 328.59 491.927 329.859 493.034 332.596C494.552 336.402 491.368 340.383 488.245 342.996C481.975 348.22 474.856 352.331 467.197 355.149C464.46 356.145 461.586 357.028 459.372 358.944C457.158 360.859 455.839 364.206 457.17 366.831C458.501 369.455 461.922 370.289 464.796 369.754C467.669 369.219 470.22 367.677 472.956 366.644C478.069 364.716 484.662 365.064 487.884 369.48C488.882 371.002 489.514 372.734 489.73 374.54C489.946 376.347 489.74 378.179 489.128 379.893C487.883 383.303 485.967 386.429 483.493 389.086C475.345 398.82 464.759 406.217 452.816 410.52C440.961 414.625 429.976 415.745 418.195 411.428" fill="#FF725E"/>
<path d="M492.873 281.965C492.873 281.965 492.761 282.089 492.512 282.313L491.405 283.296C490.435 284.167 489.004 285.436 487.2 287.115C482.086 291.864 477.337 296.991 472.994 302.454C470.22 305.899 467.346 309.806 464.286 314.048C461.225 318.29 458.066 322.868 454.931 327.732C451.589 332.861 448.528 338.168 445.763 343.63C444.319 346.479 443.051 349.452 441.744 352.487L437.888 361.755C432.805 373.429 428.377 385.377 424.627 397.545C421.606 407.5 419.523 417.717 418.407 428.06C417.683 435.041 417.567 442.071 418.059 449.071C418.258 451.559 418.444 453.463 418.618 454.756C418.693 455.378 418.743 455.876 418.793 456.237V456.747C418.739 456.585 418.702 456.418 418.681 456.249C418.618 455.888 418.544 455.403 418.444 454.781C418.22 453.537 417.984 451.572 417.76 449.084C417.16 442.07 417.202 435.016 417.884 428.01C418.932 417.623 420.969 407.359 423.968 397.358C427.687 385.157 432.102 373.178 437.191 361.481L441.147 352.251C442.453 349.228 443.735 346.23 445.19 343.369C447.975 337.89 451.061 332.57 454.433 327.433C457.618 322.457 460.827 317.954 463.85 313.749C466.873 309.544 469.797 305.613 472.558 302.18C476.946 296.732 481.759 291.64 486.951 286.953C488.793 285.299 490.26 284.055 491.256 283.221L492.413 282.288C492.554 282.165 492.709 282.056 492.873 281.965Z" fill="#263238"/>
<path d="M445.352 343.344C445.177 342.831 445.056 342.302 444.991 341.764C444.792 340.731 444.568 339.276 444.307 337.385C443.772 333.653 443.225 328.54 442.64 322.88C442.055 317.22 441.396 312.095 440.849 308.4C440.563 306.559 440.314 305.078 440.14 304.046C440.004 303.517 439.933 302.974 439.928 302.429C440.142 302.927 440.297 303.449 440.388 303.984C440.662 305.004 440.973 306.472 441.321 308.325C442.031 312.057 442.727 317.133 443.312 322.805C443.897 328.478 444.394 333.454 444.78 337.323C444.966 339.064 445.128 340.545 445.252 341.727C445.349 342.26 445.383 342.803 445.352 343.344Z" fill="#263238"/>
<path d="M493.221 334.412C492.616 334.544 491.999 334.619 491.38 334.636C490.136 334.748 488.37 334.897 486.18 335.146C481.801 335.619 475.78 336.489 469.175 337.733C462.569 338.977 456.635 340.383 452.368 341.465C450.241 342.013 448.524 342.51 447.392 342.846C446.788 343.061 446.162 343.211 445.526 343.294C446.101 343.005 446.701 342.768 447.318 342.585C448.487 342.174 450.179 341.602 452.294 340.993C456.536 339.749 462.469 338.268 469.1 336.999C474.717 335.925 480.384 335.137 486.081 334.636C488.282 334.449 490.061 334.375 491.305 334.35C491.944 334.306 492.586 334.327 493.221 334.412Z" fill="#263238"/>
<path d="M424.577 396.488C424.445 396.308 424.336 396.111 424.254 395.903L423.433 394.174C422.724 392.669 421.766 390.442 420.621 387.717C418.307 382.244 415.359 374.581 412.224 366.072C409.089 357.563 406.203 349.9 404.014 344.364C402.944 341.677 402.061 339.475 401.402 337.833L400.705 336.054C400.608 335.849 400.541 335.631 400.506 335.407C400.638 335.587 400.747 335.784 400.829 335.992L401.65 337.721C402.347 339.226 403.317 341.453 404.462 344.177C406.776 349.651 409.724 357.314 412.859 365.823C415.994 374.332 418.88 381.995 421.069 387.531C422.139 390.218 423.022 392.42 423.669 394.062C423.955 394.771 424.192 395.306 424.378 395.841C424.475 396.046 424.542 396.264 424.577 396.488Z" fill="#263238"/>
<path d="M488.121 375.999C487.922 376.113 487.708 376.201 487.486 376.26L485.645 376.882L478.84 379.084C473.093 380.95 465.156 383.612 456.448 386.548C447.74 389.484 439.766 392.096 433.982 393.838C431.096 394.721 428.745 395.393 427.115 395.841L425.236 396.326C425.018 396.395 424.793 396.441 424.565 396.463C424.764 396.348 424.977 396.261 425.199 396.202L427.04 395.58L433.845 393.378C439.592 391.512 447.529 388.85 456.237 385.914C464.945 382.978 472.907 380.365 478.691 378.624C481.59 377.741 483.928 377.069 485.571 376.621L487.449 376.136C487.667 376.066 487.893 376.021 488.121 375.999Z" fill="#263238"/>
<path d="M462.196 74.2419L455.789 76.5308L453.04 68.1587C447.989 52.7207 431.892 44.5227 417.101 49.7351C402.31 54.9474 394.435 71.8783 399.486 87.3163L402.235 95.6884L395.803 97.9898C393.351 98.9411 391.359 100.801 390.243 103.182C389.126 105.564 388.97 108.285 389.807 110.778L407.634 165.253C408.004 166.487 408.618 167.635 409.441 168.627C410.263 169.619 411.276 170.436 412.42 171.029C413.565 171.622 414.816 171.979 416.101 172.079C417.386 172.179 418.678 172.019 419.9 171.61L486.292 147.862C488.777 146.912 490.797 145.036 491.926 142.628C493.056 140.22 493.208 137.467 492.35 134.949L474.511 80.4743C474.132 79.2433 473.508 78.1014 472.677 77.1168C471.847 76.1321 470.826 75.3248 469.677 74.7432C468.527 74.1615 467.273 73.8173 465.987 73.7312C464.702 73.6451 463.412 73.8188 462.196 74.2419ZM411.59 82.9499C410.228 78.9358 410.472 74.5504 412.272 70.7125C414.071 66.8746 417.286 63.882 421.243 62.3617C423.197 61.6932 425.266 61.4251 427.325 61.5735C429.385 61.7218 431.394 62.2835 433.232 63.2251C435.069 64.1667 436.699 65.4688 438.022 67.0538C439.346 68.6388 440.337 70.4742 440.936 72.4505L443.673 80.8226L414.327 91.322L411.59 82.9499ZM448.91 131.292L453.463 145.2C453.546 145.478 453.519 145.779 453.387 146.038C453.255 146.298 453.028 146.496 452.754 146.593L446.372 148.869C446.118 148.94 445.847 148.909 445.615 148.784C445.383 148.659 445.208 148.449 445.128 148.198L440.538 134.352C438.007 134.214 435.578 133.306 433.577 131.75C431.576 130.194 430.098 128.063 429.342 125.644C428.26 122.446 428.457 118.953 429.892 115.896C431.328 112.84 433.89 110.458 437.042 109.248C438.598 108.716 440.246 108.503 441.886 108.622C443.527 108.74 445.127 109.188 446.591 109.938C448.054 110.688 449.352 111.725 450.407 112.987C451.461 114.249 452.251 115.71 452.729 117.284C453.529 119.742 453.595 122.38 452.919 124.874C452.243 127.369 450.854 129.612 448.922 131.329L448.91 131.292Z" fill="#FF725E"/>
<path d="M455.503 76.3814C455.503 76.5555 443.623 81.0215 428.844 86.3334C414.065 91.6453 402.011 95.9122 401.949 95.7878C401.887 95.6634 413.829 91.1601 428.62 85.8358C443.411 80.5115 455.441 76.2197 455.503 76.3814Z" fill="#263238"/>
<path d="M469.61 78.6704C469.665 78.7784 469.711 78.8907 469.747 79.0063C469.846 79.2551 469.958 79.5785 470.108 79.9766C470.431 80.8847 470.879 82.1412 471.439 83.7086L476.216 97.6165C478.206 103.513 480.582 110.504 483.219 118.267C484.463 122.161 485.931 126.216 487.3 130.483C488.032 132.682 488.349 134.998 488.233 137.313C488.127 138.516 487.785 139.687 487.225 140.758C486.627 141.826 485.829 142.768 484.874 143.533C482.952 144.936 480.819 146.023 478.554 146.755L472.148 149.056L460.019 153.397L439.48 160.712L425.61 165.589L421.878 166.833L420.882 167.156C420.776 167.203 420.663 167.233 420.547 167.243C420.547 167.243 420.646 167.243 420.858 167.094L421.828 166.708L425.56 165.303L439.356 160.227L459.857 152.763L471.961 148.384L478.368 146.07C480.568 145.369 482.639 144.314 484.501 142.948C485.389 142.238 486.133 141.364 486.69 140.373C487.217 139.382 487.535 138.294 487.623 137.176C487.738 134.945 487.434 132.713 486.727 130.595C485.384 126.365 483.966 122.273 482.684 118.379C480.097 110.604 477.708 103.588 475.818 97.6912C473.927 91.7946 472.334 87.055 471.24 83.7211C470.717 82.0914 470.319 80.8225 469.996 79.902L469.697 78.9068C469.66 78.8314 469.63 78.7521 469.61 78.6704Z" fill="#263238"/>
<path d="M434.579 61.5158C434.579 61.5158 433.92 61.1924 432.7 60.6948C430.963 60.0271 429.125 59.657 427.264 59.6001C424.506 59.5055 421.762 60.0239 419.228 61.1178C416.147 62.4799 413.513 64.6832 411.627 67.4746C409.729 70.2581 408.711 73.5475 408.704 76.9166C408.73 79.6779 409.149 82.4215 409.948 85.0648C410.595 87.3288 411.266 89.1327 411.714 90.3891C411.978 91.0273 412.195 91.6843 412.361 92.3546C412.008 91.7579 411.712 91.1289 411.478 90.4762C410.968 89.2322 410.234 87.4657 409.512 85.1892C408.627 82.5181 408.145 79.7299 408.082 76.9166C408.049 73.4202 409.091 69.9981 411.067 67.1138C413.019 64.2204 415.761 61.9491 418.967 60.5704C421.579 59.4705 424.41 58.9853 427.239 59.1522C429.14 59.2491 431.008 59.6918 432.75 60.4584C433.216 60.6734 433.665 60.9229 434.094 61.2048C434.271 61.2826 434.434 61.3875 434.579 61.5158Z" fill="#263238"/>
<path d="M435.151 110.194C435.35 110.073 435.558 109.969 435.773 109.883C436.396 109.602 437.041 109.373 437.701 109.198C438.75 108.889 439.831 108.705 440.923 108.651C442.409 108.571 443.894 108.796 445.29 109.31C448.474 110.43 451.398 113.677 452.841 118.018C453.533 120.348 453.533 122.829 452.841 125.159C452.074 127.688 450.698 129.99 448.835 131.864L448.91 131.528C450.564 136.069 452.368 140.995 454.234 146.133L454.346 146.444L454.035 146.556L451.186 147.501L444.966 149.579L444.655 149.678L444.556 149.367C442.852 144.217 440.986 139.415 439.58 134.7L439.854 134.912C437.422 134.71 435.103 133.797 433.186 132.287C431.451 130.951 430.029 129.253 429.018 127.311C428.106 125.589 427.652 123.661 427.7 121.713C427.757 119.722 428.254 117.768 429.155 115.992C430.057 114.215 431.339 112.66 432.912 111.438C433.559 110.912 434.286 110.492 435.064 110.194C434.361 110.61 433.68 111.063 433.024 111.55C431.296 113.011 429.973 114.891 429.18 117.011C428.499 118.609 428.181 120.338 428.248 122.073C428.314 123.809 428.764 125.509 429.566 127.05C430.559 128.918 431.947 130.548 433.634 131.827C435.462 133.262 437.673 134.127 439.99 134.315H440.202L440.264 134.501C441.632 139.129 443.511 143.968 445.24 149.143L444.83 148.944L451.05 146.867L453.886 145.909L453.687 146.332C451.833 141.194 450.042 136.255 448.4 131.715V131.528L448.549 131.379C450.358 129.582 451.706 127.376 452.48 124.947C453.14 122.719 453.14 120.347 452.48 118.118C451.124 113.938 448.325 110.766 445.29 109.646C443.946 109.128 442.512 108.887 441.073 108.937C439.998 108.962 438.93 109.108 437.888 109.373C436.034 109.833 435.164 110.256 435.151 110.194Z" fill="#263238"/>
<path d="M396.699 469.386L272.436 468.814C265.26 468.774 258.393 465.888 253.343 460.789C248.293 455.691 245.474 448.796 245.503 441.62L246.822 130.11C246.837 126.555 247.552 123.037 248.927 119.758C250.302 116.48 252.309 113.504 254.835 111.002C257.36 108.499 260.354 106.519 263.645 105.174C266.937 103.83 270.461 103.147 274.016 103.165L398.267 103.737C405.443 103.773 412.311 106.656 417.363 111.753C422.415 116.849 425.238 123.742 425.212 130.919L423.893 442.416C423.878 445.973 423.163 449.491 421.789 452.771C420.414 456.052 418.407 459.029 415.882 461.533C413.357 464.038 410.363 466.02 407.072 467.367C403.78 468.715 400.256 469.401 396.699 469.386Z" fill="#455A64"/>
<path d="M398.08 114.448H373.996C373.21 114.463 372.435 114.632 371.715 114.946C370.994 115.26 370.343 115.714 369.798 116.28C369.252 116.846 368.824 117.514 368.537 118.245C368.25 118.977 368.11 119.758 368.124 120.544V124.91C368.139 125.695 367.999 126.476 367.712 127.207C367.425 127.938 366.996 128.605 366.451 129.17C365.905 129.735 365.254 130.187 364.533 130.5C363.813 130.813 363.038 130.98 362.253 130.993L315.304 130.782C313.716 130.74 312.209 130.069 311.116 128.916C310.022 127.764 309.43 126.225 309.47 124.637V120.27C309.51 118.684 308.92 117.146 307.829 115.995C306.737 114.843 305.234 114.17 303.648 114.125H295.176L274.091 114.025C269.075 113.995 264.252 115.954 260.678 119.472C257.104 122.991 255.069 127.782 255.02 132.797L253.776 436.856C253.765 439.344 254.243 441.81 255.185 444.113C256.126 446.416 257.512 448.511 259.264 450.278C261.015 452.046 263.097 453.451 265.391 454.413C267.686 455.376 270.147 455.877 272.635 455.889L396.637 456.461C399.127 456.473 401.594 455.993 403.899 455.051C406.203 454.109 408.3 452.722 410.068 450.97C411.837 449.217 413.243 447.134 414.206 444.838C415.169 442.542 415.671 440.079 415.683 437.59L416.927 133.531C416.956 128.502 414.988 123.667 411.454 120.088C407.92 116.51 403.109 114.481 398.08 114.448Z" fill="white"/>
<path d="M381.398 415.894L289.193 415.496C288.235 415.496 287.464 414.451 287.476 413.182L287.575 389.061C287.575 387.817 288.359 386.747 289.317 386.747L381.522 387.17C382.053 387.262 382.528 387.555 382.848 387.988C383.168 388.422 383.308 388.962 383.239 389.496L383.152 413.593C383.152 414.874 382.356 415.906 381.398 415.894Z" fill="#FF725E"/>
<path d="M316.718 401.963C316.295 401.963 315.889 401.895 315.499 401.76C315.114 401.624 314.816 401.445 314.604 401.223L314.84 400.759C315.046 400.965 315.32 401.133 315.661 401.264C316.003 401.388 316.355 401.451 316.718 401.451C317.228 401.451 317.61 401.358 317.865 401.174C318.12 400.984 318.247 400.74 318.247 400.442C318.247 400.215 318.176 400.033 318.036 399.898C317.9 399.762 317.732 399.659 317.531 399.589C317.331 399.513 317.052 399.431 316.694 399.345C316.266 399.236 315.924 399.133 315.669 399.036C315.415 398.933 315.195 398.778 315.011 398.572C314.832 398.366 314.742 398.087 314.742 397.735C314.742 397.447 314.818 397.187 314.97 396.954C315.122 396.715 315.355 396.526 315.669 396.385C315.984 396.244 316.374 396.173 316.84 396.173C317.165 396.173 317.483 396.219 317.792 396.312C318.106 396.398 318.377 396.52 318.605 396.678L318.401 397.157C318.163 397 317.908 396.884 317.637 396.808C317.366 396.726 317.1 396.686 316.84 396.686C316.342 396.686 315.965 396.783 315.71 396.978C315.461 397.168 315.336 397.415 315.336 397.718C315.336 397.946 315.404 398.13 315.539 398.271C315.68 398.407 315.854 398.512 316.06 398.588C316.271 398.659 316.553 398.737 316.905 398.824C317.323 398.927 317.659 399.03 317.914 399.133C318.174 399.231 318.393 399.383 318.572 399.589C318.751 399.789 318.841 400.063 318.841 400.41C318.841 400.697 318.762 400.96 318.605 401.199C318.453 401.432 318.217 401.619 317.897 401.76C317.577 401.895 317.184 401.963 316.718 401.963ZM320.152 396.222H320.753V401.914H320.152V396.222ZM327.362 396.222V401.914H326.866L323.207 397.295V401.914H322.605V396.222H323.101L326.768 400.841V396.222H327.362ZM333.229 399.068H333.806V401.239C333.54 401.472 333.226 401.651 332.863 401.776C332.499 401.901 332.117 401.963 331.716 401.963C331.147 401.963 330.635 401.838 330.179 401.589C329.724 401.339 329.366 400.995 329.106 400.556C328.846 400.112 328.716 399.616 328.716 399.068C328.716 398.521 328.846 398.027 329.106 397.588C329.366 397.144 329.724 396.797 330.179 396.547C330.635 396.298 331.15 396.173 331.724 396.173C332.158 396.173 332.556 396.244 332.92 396.385C333.283 396.52 333.589 396.724 333.838 396.995L333.464 397.377C333.014 396.932 332.443 396.71 331.749 396.71C331.288 396.71 330.871 396.813 330.496 397.019C330.128 397.22 329.838 397.501 329.626 397.865C329.415 398.222 329.309 398.624 329.309 399.068C329.309 399.513 329.415 399.914 329.626 400.272C329.838 400.629 330.128 400.911 330.496 401.117C330.865 401.323 331.28 401.426 331.741 401.426C332.326 401.426 332.822 401.28 333.229 400.987V399.068ZM339.93 401.963C339.193 401.963 338.618 401.751 338.206 401.329C337.794 400.906 337.588 400.291 337.588 399.483V396.222H338.19V399.458C338.19 400.12 338.339 400.613 338.637 400.938C338.935 401.264 339.366 401.426 339.93 401.426C340.499 401.426 340.933 401.264 341.231 400.938C341.529 400.613 341.678 400.12 341.678 399.458V396.222H342.264V399.483C342.264 400.291 342.058 400.906 341.646 401.329C341.239 401.751 340.667 401.963 339.93 401.963ZM346.207 396.222C346.934 396.222 347.503 396.396 347.915 396.743C348.327 397.089 348.533 397.567 348.533 398.174C348.533 398.781 348.327 399.258 347.915 399.605C347.503 399.946 346.934 400.117 346.207 400.117H344.679V401.914H344.077V396.222H346.207ZM346.191 399.589C346.755 399.589 347.186 399.467 347.484 399.223C347.782 398.973 347.931 398.624 347.931 398.174C347.931 397.713 347.782 397.361 347.484 397.117C347.186 396.867 346.755 396.743 346.191 396.743H344.679V399.589H346.191Z" fill="#E8E8E3"/>
<path d="M307.584 203.83L275.589 203.685L275.562 209.556L307.557 209.701L307.584 203.83Z" fill="#FF725E"/>
<path opacity="0.1" d="M307.584 203.83L275.589 203.685L275.562 209.556L307.557 209.701L307.584 203.83Z" fill="black"/>
<path d="M401.377 239.88C401.628 239.855 401.875 239.796 402.111 239.706C402.455 239.572 402.754 239.343 402.974 239.046C403.194 238.749 403.326 238.395 403.355 238.027C403.355 236.049 403.355 233.163 403.355 229.456C403.355 227.602 403.355 225.525 403.355 223.236C403.355 222.676 403.355 222.091 403.355 221.507C403.436 220.939 403.312 220.361 403.006 219.877C402.835 219.645 402.612 219.455 402.355 219.323C402.098 219.192 401.815 219.121 401.526 219.118H399.585H381.609L277.561 218.732C277.295 218.728 277.031 218.788 276.793 218.907C276.555 219.026 276.349 219.201 276.193 219.417C275.892 219.903 275.778 220.482 275.869 221.046C275.869 222.29 275.869 223.534 275.869 224.778C275.869 227.266 275.869 229.754 275.869 232.242C275.869 233.486 275.869 234.73 275.869 235.974C275.818 236.554 275.818 237.136 275.869 237.716C275.935 237.964 276.056 238.194 276.224 238.388C276.393 238.583 276.603 238.735 276.84 238.835C277.085 238.933 277.347 238.98 277.611 238.972H283.943L311.572 239.122L358.347 239.408L389.882 239.656L398.453 239.756H400.68C401.19 239.756 401.439 239.756 401.439 239.756H400.68H398.453H389.882H358.347L311.572 239.607L283.943 239.495H277.611C277.263 239.509 276.915 239.45 276.591 239.321C276.263 239.181 275.972 238.968 275.739 238.699C275.506 238.429 275.338 238.11 275.247 237.766C275.175 237.439 275.15 237.104 275.173 236.77V235.85C275.173 234.606 275.173 233.362 275.173 232.118C275.173 229.63 275.173 227.142 275.173 224.654C275.173 223.41 275.173 222.166 275.173 220.922C275.149 220.591 275.149 220.258 275.173 219.927C275.219 219.561 275.361 219.213 275.583 218.919C275.798 218.619 276.082 218.375 276.411 218.208C276.74 218.041 277.105 217.957 277.474 217.961L381.522 218.533L399.498 218.658H401.439C401.781 218.658 402.118 218.741 402.421 218.899C402.724 219.057 402.984 219.286 403.18 219.566C403.531 220.107 403.673 220.757 403.579 221.395C403.579 221.979 403.579 222.564 403.579 223.124C403.579 225.388 403.579 227.465 403.579 229.344C403.579 233.076 403.491 235.937 403.467 237.927C403.436 238.31 403.297 238.676 403.066 238.982C402.834 239.289 402.52 239.523 402.16 239.656C401.925 239.802 401.654 239.88 401.377 239.88Z" fill="#E0E0E0"/>
<path d="M343.717 224.978H285.199V230.464H343.717V224.978Z" fill="#FF725E"/>
<path opacity="0.2" d="M343.717 224.978H285.199V230.464H343.717V224.978Z" fill="white"/>
<path d="M307.366 257.395L275.371 257.25L275.344 263.121L307.339 263.266L307.366 257.395Z" fill="#FF725E"/>
<path opacity="0.1" d="M307.366 257.395L275.371 257.25L275.344 263.121L307.339 263.266L307.366 257.395Z" fill="black"/>
<path d="M400.568 293.447C400.819 293.416 401.069 293.37 401.314 293.31C401.662 293.2 401.982 293.016 402.252 292.771C402.522 292.526 402.737 292.227 402.882 291.892C403.078 291.39 403.154 290.849 403.106 290.312C403.106 289.715 403.106 289.068 403.106 288.347C403.106 286.904 403.106 285.261 403.106 283.371V275.471C403.165 274.899 403.039 274.323 402.745 273.829C402.438 273.322 401.956 272.946 401.389 272.772C400.769 272.661 400.138 272.628 399.511 272.672H381.609L277.922 272.287C277.364 272.288 276.826 272.492 276.407 272.86C275.989 273.228 275.718 273.736 275.646 274.289C275.646 275.471 275.646 276.777 275.646 278.021C275.646 280.509 275.646 282.997 275.646 285.485C275.646 286.729 275.646 287.973 275.646 289.217C275.599 289.799 275.624 290.384 275.72 290.959C275.875 291.463 276.195 291.901 276.628 292.203C277.088 292.495 277.628 292.634 278.171 292.601H279.9H283.495L311.025 292.738L357.638 293.024L389.061 293.273L397.607 293.372H399.834H400.58H399.834H397.607H389.061H357.638L311 293.323L283.47 293.223H278.059C277.386 293.263 276.718 293.084 276.156 292.713C275.59 292.321 275.176 291.745 274.986 291.083C274.875 290.451 274.841 289.808 274.887 289.168C274.887 287.924 274.887 286.68 274.887 285.436C274.887 282.948 274.887 280.46 274.887 277.972C274.887 276.728 274.887 275.484 274.887 274.24C274.977 273.528 275.324 272.874 275.862 272.4C276.401 271.926 277.093 271.665 277.81 271.665L381.497 272.237L399.399 272.374C400.065 272.333 400.734 272.379 401.389 272.51C402.035 272.722 402.581 273.165 402.919 273.754C403.241 274.302 403.38 274.938 403.317 275.571C403.317 276.155 403.317 276.728 403.317 277.3C403.317 279.552 403.317 281.617 403.317 283.52C403.317 285.423 403.317 287.028 403.317 288.496C403.317 289.205 403.317 289.864 403.317 290.474C403.362 291.03 403.273 291.589 403.056 292.103C402.895 292.447 402.661 292.751 402.371 292.996C402.081 293.241 401.742 293.42 401.377 293.522C401.105 293.544 400.831 293.519 400.568 293.447Z" fill="#E0E0E0"/>
<path d="M307.125 313.286L275.129 313.141L275.103 319.012L307.098 319.157L307.125 313.286Z" fill="#FF725E"/>
<path opacity="0.1" d="M307.125 313.286L275.129 313.141L275.103 319.012L307.098 319.157L307.125 313.286Z" fill="black"/>
<path d="M400.319 349.315C400.571 349.286 400.82 349.24 401.066 349.178C401.412 349.068 401.73 348.886 402 348.644C402.271 348.402 402.486 348.105 402.633 347.773C402.828 347.27 402.905 346.73 402.857 346.193C402.857 345.583 402.857 344.949 402.857 344.215C402.857 342.784 402.857 341.13 402.857 339.239V331.339C402.916 330.768 402.79 330.192 402.496 329.697C402.182 329.2 401.702 328.829 401.14 328.652C400.521 328.537 399.89 328.5 399.262 328.54H381.361L277.673 328.155C277.116 328.156 276.577 328.36 276.159 328.728C275.74 329.097 275.469 329.605 275.397 330.158C275.397 331.402 275.397 332.646 275.397 333.89C275.397 336.378 275.397 338.866 275.397 341.354C275.397 342.598 275.397 343.842 275.397 345.086C275.35 345.663 275.375 346.244 275.471 346.815C275.62 347.322 275.941 347.762 276.379 348.059C276.836 348.357 277.378 348.497 277.922 348.457H283.333L310.863 348.606L357.476 348.892L388.899 349.141L397.446 349.241H399.672C400.17 349.241 400.419 349.241 400.419 349.241C400.419 349.241 400.17 349.241 399.672 349.241H397.446H388.899H357.476L310.863 349.104L283.333 348.992H277.922C277.249 349.037 276.579 348.858 276.019 348.482C275.453 348.09 275.04 347.514 274.849 346.852C274.738 346.22 274.704 345.577 274.75 344.936C274.75 343.692 274.75 342.448 274.75 341.204C274.75 338.716 274.75 336.228 274.75 333.74C274.75 332.496 274.75 331.252 274.75 329.946C274.838 329.236 275.182 328.582 275.718 328.108C276.254 327.634 276.945 327.372 277.661 327.371L381.348 327.943L399.249 328.08C399.916 328.039 400.585 328.085 401.24 328.217C401.886 328.428 402.431 328.871 402.77 329.461C403.092 330.009 403.231 330.645 403.168 331.277C403.168 331.862 403.168 332.447 403.168 333.006C403.168 335.258 403.168 337.323 403.168 339.226C403.168 341.13 403.168 342.735 403.168 344.202C403.168 344.912 403.168 345.571 403.168 346.18C403.216 346.737 403.126 347.296 402.907 347.81C402.745 348.153 402.512 348.458 402.222 348.702C401.932 348.947 401.593 349.126 401.227 349.228C400.936 349.328 400.625 349.358 400.319 349.315Z" fill="#E0E0E0"/>
<path d="M342.468 280.095L283.951 279.83L283.926 285.316L342.443 285.581L342.468 280.095Z" fill="#FF725E"/>
<path opacity="0.2" d="M342.468 280.095L283.951 279.83L283.926 285.316L342.443 285.581L342.468 280.095Z" fill="white"/>
<path d="M289.242 339.164C289.206 339.665 289.023 340.143 288.717 340.541C288.411 340.938 287.994 341.237 287.52 341.4C287.045 341.563 286.533 341.583 286.048 341.458C285.562 341.333 285.123 341.068 284.787 340.696C284.45 340.324 284.23 339.862 284.154 339.366C284.078 338.87 284.149 338.362 284.358 337.906C284.568 337.451 284.907 337.066 285.332 336.801C285.758 336.536 286.253 336.402 286.754 336.415C287.447 336.454 288.097 336.764 288.563 337.279C289.029 337.793 289.273 338.471 289.242 339.164Z" fill="#FF725E"/>
<path d="M297.167 339.202C297.191 339.552 297.143 339.904 297.026 340.236C296.908 340.567 296.724 340.871 296.484 341.128C296.245 341.385 295.954 341.59 295.632 341.73C295.31 341.87 294.962 341.943 294.61 341.943C294.259 341.943 293.911 341.87 293.589 341.73C293.266 341.59 292.976 341.385 292.736 341.128C292.496 340.871 292.312 340.567 292.195 340.236C292.077 339.904 292.029 339.552 292.054 339.202C292.029 338.851 292.077 338.499 292.195 338.167C292.312 337.836 292.496 337.532 292.736 337.275C292.976 337.018 293.266 336.813 293.589 336.673C293.911 336.533 294.259 336.46 294.61 336.46C294.962 336.46 295.31 336.533 295.632 336.673C295.954 336.813 296.245 337.018 296.484 337.275C296.724 337.532 296.908 337.836 297.026 338.167C297.143 338.499 297.191 338.851 297.167 339.202Z" fill="#FF725E"/>
<path d="M305.103 339.239C305.067 339.739 304.884 340.218 304.578 340.615C304.272 341.013 303.855 341.312 303.381 341.475C302.906 341.638 302.395 341.658 301.909 341.533C301.423 341.408 300.984 341.143 300.648 340.771C300.311 340.399 300.091 339.936 300.015 339.44C299.939 338.944 300.01 338.437 300.219 337.981C300.429 337.525 300.768 337.141 301.194 336.876C301.619 336.611 302.114 336.476 302.615 336.49C303.307 336.531 303.955 336.843 304.42 337.357C304.886 337.871 305.131 338.546 305.103 339.239Z" fill="#FF725E"/>
<path d="M313.028 339.276C312.991 339.776 312.808 340.255 312.502 340.652C312.196 341.05 311.78 341.349 311.305 341.512C310.831 341.675 310.319 341.695 309.833 341.57C309.347 341.445 308.909 341.18 308.572 340.808C308.235 340.436 308.015 339.973 307.939 339.477C307.863 338.982 307.934 338.474 308.144 338.018C308.353 337.562 308.692 337.178 309.118 336.913C309.544 336.648 310.038 336.514 310.54 336.527C311.232 336.569 311.88 336.88 312.345 337.394C312.81 337.908 313.055 338.583 313.028 339.276Z" fill="#FF725E"/>
<path d="M320.952 339.301C320.918 339.802 320.737 340.282 320.432 340.682C320.127 341.081 319.712 341.381 319.237 341.547C318.763 341.712 318.25 341.733 317.763 341.61C317.277 341.486 316.837 341.222 316.499 340.85C316.161 340.478 315.94 340.015 315.863 339.519C315.786 339.023 315.857 338.515 316.066 338.058C316.275 337.602 316.614 337.217 317.04 336.951C317.467 336.685 317.962 336.551 318.464 336.564C319.154 336.606 319.8 336.916 320.264 337.427C320.729 337.938 320.976 338.611 320.952 339.301Z" fill="#FF725E"/>
<path d="M328.889 339.338C328.855 339.837 328.676 340.315 328.374 340.713C328.072 341.111 327.66 341.412 327.189 341.579C326.718 341.746 326.209 341.772 325.723 341.654C325.238 341.535 324.798 341.277 324.457 340.911C324.117 340.546 323.89 340.088 323.806 339.596C323.722 339.103 323.784 338.597 323.983 338.139C324.183 337.681 324.513 337.291 324.931 337.018C325.35 336.745 325.839 336.6 326.339 336.602C327.039 336.628 327.701 336.93 328.179 337.443C328.657 337.956 328.912 338.638 328.889 339.338Z" fill="#FF725E"/>
<path d="M336.813 339.376C336.837 339.727 336.79 340.079 336.672 340.41C336.555 340.741 336.37 341.045 336.131 341.302C335.891 341.559 335.601 341.764 335.278 341.904C334.956 342.045 334.608 342.117 334.257 342.117C333.905 342.117 333.557 342.045 333.235 341.904C332.912 341.764 332.622 341.559 332.382 341.302C332.143 341.045 331.958 340.741 331.841 340.41C331.724 340.079 331.676 339.727 331.7 339.376C331.676 339.025 331.724 338.673 331.841 338.342C331.958 338.01 332.143 337.707 332.382 337.45C332.622 337.192 332.912 336.987 333.235 336.847C333.557 336.707 333.905 336.635 334.257 336.635C334.608 336.635 334.956 336.707 335.278 336.847C335.601 336.987 335.891 337.192 336.131 337.45C336.37 337.707 336.555 338.01 336.672 338.342C336.79 338.673 336.837 339.025 336.813 339.376Z" fill="#FF725E"/>
<path d="M344.737 339.413C344.703 339.912 344.524 340.389 344.222 340.788C343.92 341.186 343.509 341.487 343.038 341.654C342.567 341.821 342.057 341.847 341.572 341.728C341.086 341.61 340.646 341.352 340.306 340.986C339.965 340.62 339.739 340.163 339.655 339.671C339.57 339.178 339.632 338.672 339.832 338.214C340.032 337.756 340.361 337.366 340.78 337.093C341.198 336.82 341.687 336.675 342.187 336.676C342.888 336.702 343.55 337.005 344.028 337.518C344.506 338.031 344.761 338.712 344.737 339.413Z" fill="#FF725E"/>
<path d="M352.662 339.45C352.627 339.951 352.446 340.431 352.142 340.83C351.837 341.23 351.421 341.53 350.947 341.695C350.472 341.86 349.96 341.882 349.473 341.759C348.986 341.635 348.547 341.371 348.209 340.999C347.871 340.627 347.65 340.164 347.573 339.668C347.496 339.172 347.566 338.664 347.775 338.207C347.985 337.75 348.324 337.365 348.75 337.1C349.176 336.834 349.671 336.7 350.174 336.713C350.863 336.755 351.509 337.065 351.974 337.576C352.439 338.087 352.686 338.76 352.662 339.45Z" fill="#FF725E"/>
<g opacity="0.2">
<path opacity="0.2" d="M289.242 339.164C289.206 339.665 289.023 340.143 288.717 340.541C288.411 340.938 287.994 341.237 287.52 341.4C287.045 341.563 286.533 341.583 286.048 341.458C285.562 341.333 285.123 341.068 284.787 340.696C284.45 340.324 284.23 339.862 284.154 339.366C284.078 338.87 284.149 338.362 284.358 337.906C284.568 337.451 284.907 337.066 285.332 336.801C285.758 336.536 286.253 336.402 286.754 336.415C287.447 336.454 288.097 336.764 288.563 337.279C289.029 337.793 289.273 338.471 289.242 339.164Z" fill="white"/>
<path opacity="0.2" d="M297.167 339.202C297.191 339.552 297.143 339.904 297.026 340.236C296.908 340.567 296.724 340.871 296.484 341.128C296.245 341.385 295.954 341.59 295.632 341.73C295.31 341.87 294.962 341.943 294.61 341.943C294.259 341.943 293.911 341.87 293.589 341.73C293.266 341.59 292.976 341.385 292.736 341.128C292.496 340.871 292.312 340.567 292.195 340.236C292.077 339.904 292.029 339.552 292.054 339.202C292.029 338.851 292.077 338.499 292.195 338.167C292.312 337.836 292.496 337.532 292.736 337.275C292.976 337.018 293.266 336.813 293.589 336.673C293.911 336.533 294.259 336.46 294.61 336.46C294.962 336.46 295.31 336.533 295.632 336.673C295.954 336.813 296.245 337.018 296.484 337.275C296.724 337.532 296.908 337.836 297.026 338.167C297.143 338.499 297.191 338.851 297.167 339.202Z" fill="white"/>
<path opacity="0.2" d="M305.103 339.239C305.067 339.739 304.884 340.218 304.578 340.615C304.272 341.013 303.855 341.312 303.381 341.475C302.906 341.638 302.395 341.658 301.909 341.533C301.423 341.408 300.984 341.143 300.648 340.771C300.311 340.399 300.091 339.936 300.015 339.44C299.939 338.944 300.01 338.437 300.219 337.981C300.429 337.525 300.768 337.141 301.194 336.876C301.619 336.611 302.114 336.476 302.615 336.49C303.307 336.531 303.955 336.843 304.42 337.357C304.886 337.871 305.131 338.546 305.103 339.239Z" fill="white"/>
<path opacity="0.2" d="M313.028 339.276C312.991 339.776 312.808 340.255 312.502 340.652C312.196 341.05 311.78 341.349 311.305 341.512C310.831 341.675 310.319 341.695 309.833 341.57C309.347 341.445 308.909 341.18 308.572 340.808C308.235 340.436 308.015 339.973 307.939 339.477C307.863 338.982 307.934 338.474 308.144 338.018C308.353 337.562 308.692 337.178 309.118 336.913C309.544 336.648 310.038 336.514 310.54 336.527C311.232 336.569 311.88 336.88 312.345 337.394C312.81 337.908 313.055 338.583 313.028 339.276Z" fill="white"/>
<path opacity="0.2" d="M320.952 339.301C320.918 339.802 320.737 340.282 320.432 340.682C320.127 341.081 319.712 341.382 319.237 341.547C318.763 341.712 318.25 341.734 317.763 341.61C317.277 341.486 316.837 341.222 316.499 340.85C316.161 340.478 315.94 340.016 315.863 339.519C315.786 339.023 315.857 338.515 316.066 338.058C316.275 337.602 316.614 337.217 317.04 336.951C317.467 336.685 317.962 336.551 318.464 336.564C319.154 336.606 319.8 336.916 320.264 337.427C320.729 337.938 320.976 338.611 320.952 339.301Z" fill="white"/>
<path opacity="0.2" d="M328.889 339.338C328.855 339.837 328.676 340.315 328.374 340.713C328.072 341.111 327.66 341.412 327.189 341.579C326.718 341.746 326.209 341.772 325.723 341.654C325.238 341.535 324.798 341.277 324.457 340.911C324.117 340.546 323.89 340.088 323.806 339.596C323.722 339.103 323.784 338.597 323.983 338.139C324.183 337.681 324.513 337.291 324.931 337.018C325.35 336.745 325.839 336.6 326.339 336.602C327.039 336.628 327.701 336.93 328.179 337.443C328.657 337.956 328.912 338.638 328.889 339.338Z" fill="white"/>
<path opacity="0.2" d="M336.813 339.376C336.837 339.727 336.79 340.079 336.672 340.41C336.555 340.741 336.37 341.045 336.131 341.302C335.891 341.559 335.601 341.764 335.278 341.904C334.956 342.045 334.608 342.117 334.257 342.117C333.905 342.117 333.557 342.045 333.235 341.904C332.912 341.764 332.622 341.559 332.382 341.302C332.143 341.045 331.958 340.741 331.841 340.41C331.724 340.079 331.676 339.727 331.7 339.376C331.676 339.025 331.724 338.673 331.841 338.342C331.958 338.01 332.143 337.707 332.382 337.45C332.622 337.192 332.912 336.987 333.235 336.847C333.557 336.707 333.905 336.635 334.257 336.635C334.608 336.635 334.956 336.707 335.278 336.847C335.601 336.987 335.891 337.192 336.131 337.45C336.37 337.707 336.555 338.01 336.672 338.342C336.79 338.673 336.837 339.025 336.813 339.376Z" fill="white"/>
<path opacity="0.2" d="M344.737 339.413C344.703 339.912 344.524 340.389 344.222 340.788C343.92 341.186 343.509 341.487 343.038 341.654C342.567 341.821 342.057 341.847 341.572 341.728C341.086 341.61 340.646 341.352 340.306 340.986C339.965 340.62 339.739 340.163 339.655 339.671C339.57 339.178 339.632 338.672 339.832 338.214C340.032 337.756 340.361 337.366 340.78 337.093C341.198 336.82 341.687 336.675 342.187 336.676C342.888 336.702 343.55 337.005 344.028 337.518C344.506 338.031 344.761 338.712 344.737 339.413Z" fill="white"/>
<path opacity="0.2" d="M352.662 339.451C352.627 339.952 352.446 340.432 352.142 340.831C351.837 341.23 351.421 341.531 350.947 341.696C350.472 341.861 349.96 341.883 349.473 341.759C348.986 341.635 348.547 341.371 348.209 340.999C347.871 340.628 347.65 340.165 347.573 339.669C347.496 339.172 347.566 338.664 347.775 338.208C347.985 337.751 348.324 337.366 348.75 337.1C349.176 336.835 349.671 336.7 350.174 336.714C350.863 336.756 351.509 337.065 351.974 337.576C352.439 338.088 352.686 338.76 352.662 339.451Z" fill="white"/>
</g>
<path d="M341.403 159.867C342.268 159.486 343.001 158.86 343.512 158.066C344.023 157.272 344.289 156.345 344.277 155.401C344.309 154.787 344.216 154.173 344.003 153.596C343.791 153.02 343.463 152.492 343.04 152.047C342.617 151.601 342.107 151.246 341.543 151.003C340.978 150.76 340.37 150.635 339.755 150.635C339.14 150.635 338.532 150.76 337.968 151.003C337.403 151.246 336.893 151.601 336.47 152.047C336.047 152.492 335.719 153.02 335.507 153.596C335.294 154.173 335.201 154.787 335.233 155.401C335.214 156.354 335.478 157.292 335.992 158.096C336.505 158.9 337.246 159.533 338.119 159.916C331.153 160.961 331.464 168.525 331.464 168.525L347.934 168.6C347.934 168.6 348.32 160.899 341.403 159.867Z" fill="#FF725E"/>
<path opacity="0.1" d="M341.403 159.867C342.268 159.486 343.001 158.86 343.512 158.066C344.023 157.272 344.289 156.345 344.277 155.401C344.309 154.787 344.216 154.173 344.003 153.596C343.791 153.02 343.463 152.492 343.04 152.047C342.617 151.601 342.107 151.246 341.543 151.003C340.978 150.76 340.37 150.635 339.755 150.635C339.14 150.635 338.532 150.76 337.968 151.003C337.403 151.246 336.893 151.601 336.47 152.047C336.047 152.492 335.719 153.02 335.507 153.596C335.294 154.173 335.201 154.787 335.233 155.401C335.214 156.354 335.478 157.292 335.992 158.096C336.505 158.9 337.246 159.533 338.119 159.916C331.153 160.961 331.464 168.525 331.464 168.525L347.934 168.6C347.934 168.6 348.32 160.899 341.403 159.867Z" fill="black"/>
<path d="M368.167 173.477L309.464 173.211L309.432 180.227L368.136 180.493L368.167 173.477Z" fill="#FF725E"/>
<path opacity="0.2" d="M368.167 173.477L309.464 173.211L309.432 180.227L368.136 180.493L368.167 173.477Z" fill="white"/>
<path d="M152.353 209.838H151.768L150.076 209.962C149.161 210.017 148.25 210.138 147.352 210.323C146.77 210.405 146.193 210.517 145.623 210.659L143.694 211.194C140.413 212.201 137.316 213.734 134.526 215.735C130.84 218.41 127.762 221.836 125.495 225.786C124.162 228.063 123.102 230.489 122.335 233.014C121.529 235.758 121.066 238.59 120.954 241.448C120.88 242.949 120.905 244.453 121.029 245.951C121.029 246.71 121.24 247.469 121.34 248.24C121.423 249.018 121.569 249.787 121.775 250.542C122.894 255.534 125.164 260.195 128.403 264.154C131.643 268.113 135.763 271.26 140.435 273.344C143.816 274.803 147.441 275.618 151.121 275.745C154.922 275.954 158.728 275.409 162.317 274.14L163.412 273.73H163.561L163.686 273.804L179.372 281.766L178.912 282.164C177.233 276.964 175.615 271.926 174.048 267.087V266.9L174.185 266.763C177.99 262.931 180.815 258.237 182.42 253.079C183.874 248.365 184.298 243.393 183.664 238.5C183.1 234.151 181.702 229.953 179.547 226.134C177.688 222.854 175.291 219.911 172.456 217.426C170.116 215.46 167.527 213.812 164.755 212.525C162.658 211.62 160.474 210.933 158.237 210.472L155.749 210.062L153.945 209.925L152.85 209.85H152.477C152.601 209.837 152.726 209.837 152.85 209.85H153.957L155.761 209.925L158.249 210.286C160.514 210.712 162.728 211.375 164.855 212.264C167.674 213.536 170.31 215.18 172.692 217.153C175.58 219.626 178.028 222.57 179.932 225.861C182.149 229.72 183.59 233.976 184.174 238.388C184.861 243.356 184.466 248.414 183.017 253.216C181.402 258.481 178.533 263.275 174.658 267.186L174.732 266.863C176.3 271.702 177.929 276.74 179.621 281.928L179.858 282.687L179.148 282.326L163.462 274.377H163.735L162.616 274.787C158.957 276.075 155.081 276.633 151.208 276.429C147.448 276.286 143.748 275.442 140.298 273.941C133.717 271.123 128.242 266.224 124.711 259.996C123.086 257.12 121.9 254.017 121.19 250.79C120.996 250.017 120.851 249.231 120.755 248.439C120.656 247.656 120.494 246.884 120.457 246.113C120.12 241.687 120.588 237.236 121.837 232.976C122.623 230.417 123.713 227.961 125.084 225.662C127.406 221.675 130.548 218.228 134.302 215.548C137.138 213.543 140.287 212.021 143.62 211.045L145.573 210.547C146.148 210.414 146.729 210.31 147.314 210.236C148.222 210.068 149.141 209.968 150.064 209.937L151.768 209.875C151.962 209.849 152.157 209.837 152.353 209.838Z" fill="#FF725E"/>
<path d="M159.443 238.848H157.142L152.166 231.857V227.266C152.166 227.266 148.608 227.042 149.031 233.051C149.454 239.059 149.031 237.529 149.031 237.529C149.031 237.529 141.48 237.529 140.858 238.213C140.236 238.898 140.199 246.187 140.112 250.255C140.064 251.236 140.345 252.204 140.911 253.007C141.477 253.809 142.295 254.399 143.234 254.684C143.498 254.757 143.769 254.795 144.043 254.796C145.934 254.796 155.55 253.266 155.55 253.266H159.518L159.443 238.848Z" fill="#FF725E"/>
<path d="M166.024 237.617L164.606 253.341H160.675V237.94L166.024 237.617Z" fill="#FF725E"/>
<path d="M212.911 557.735V547.099L193.84 546.962L193.678 563.047L194.86 563.134C200.122 563.47 221.631 563.967 225.164 562.873C229.095 561.654 212.911 557.735 212.911 557.735Z" fill="#FF725E"/>
<path d="M225.612 561.877C225.612 562.051 218.471 562.201 209.676 562.201C200.881 562.201 193.741 562.051 193.741 561.877C193.741 561.703 200.881 561.554 209.676 561.554C218.471 561.554 225.612 561.703 225.612 561.877Z" fill="#263238"/>
<path d="M213.246 559.912C213.085 559.825 213.246 559.265 213.632 558.668C214.018 558.071 214.54 557.822 214.665 557.946C214.789 558.071 214.528 558.543 214.155 559.053C213.781 559.563 213.408 559.999 213.246 559.912Z" fill="#263238"/>
<path d="M214.466 560.608C214.291 560.608 214.379 559.912 214.752 559.252C215.125 558.593 215.623 558.195 215.759 558.294C215.896 558.394 215.672 558.954 215.324 559.538C214.976 560.123 214.627 560.671 214.466 560.608Z" fill="#263238"/>
<path d="M199.488 561.828C199.413 561.828 199.127 561.604 198.717 561.131C198.215 560.523 197.657 559.965 197.05 559.464C196.452 558.987 195.74 558.674 194.985 558.556C194.4 558.481 194.027 558.556 193.989 558.481C193.952 558.407 194.313 558.145 194.997 558.096C195.9 558.077 196.781 558.376 197.485 558.942C198.145 559.479 198.701 560.133 199.127 560.87C199.413 561.417 199.562 561.778 199.488 561.828Z" fill="#263238"/>
<path d="M213.309 557.909C213.396 558.058 213.072 558.432 212.525 558.631C211.978 558.83 211.492 558.755 211.468 558.631C211.443 558.506 211.828 558.245 212.301 558.071C212.774 557.897 213.209 557.76 213.309 557.909Z" fill="#263238"/>
<path d="M213.01 556.876C213.01 557.063 212.513 557.212 211.866 557.225C211.219 557.237 210.709 557.088 210.721 556.914C210.734 556.739 211.244 556.578 211.866 556.565C212.488 556.553 212.985 556.702 213.01 556.876Z" fill="#263238"/>
<path d="M259.872 557.735V547.099L240.801 546.962L240.639 562.885L241.821 562.972C247.083 563.308 268.604 563.967 272.125 562.873C276.056 561.654 259.872 557.735 259.872 557.735Z" fill="#FF725E"/>
<path d="M272.573 561.902C272.573 562.076 265.445 562.226 256.637 562.226C247.83 562.226 240.714 562.076 240.714 561.902C240.714 561.728 247.842 561.579 256.637 561.579C265.432 561.579 272.573 561.728 272.573 561.902Z" fill="#263238"/>
<path d="M260.208 559.912C260.058 559.825 260.208 559.265 260.593 558.668C260.979 558.071 261.501 557.822 261.626 557.946C261.75 558.071 261.489 558.543 261.116 559.053C260.742 559.563 260.369 559.999 260.208 559.912Z" fill="#263238"/>
<path d="M261.427 560.608C261.265 560.608 261.34 559.912 261.725 559.252C262.111 558.593 262.596 558.195 262.733 558.294C262.87 558.394 262.633 558.954 262.285 559.538C261.937 560.123 261.601 560.671 261.427 560.608Z" fill="#263238"/>
<path d="M246.449 561.828C246.374 561.828 246.101 561.604 245.678 561.131C245.176 560.523 244.618 559.965 244.011 559.464C243.413 558.987 242.701 558.674 241.946 558.556C241.373 558.481 240.988 558.556 240.95 558.481C240.913 558.407 241.274 558.145 241.958 558.096C242.861 558.077 243.742 558.376 244.446 558.942C245.109 559.476 245.666 560.13 246.088 560.87C246.374 561.417 246.523 561.778 246.449 561.828Z" fill="#263238"/>
<path d="M260.27 557.909C260.357 558.058 260.033 558.432 259.486 558.631C258.939 558.83 258.453 558.755 258.429 558.631C258.404 558.506 258.789 558.245 259.262 558.071C259.735 557.897 260.17 557.76 260.27 557.909Z" fill="#263238"/>
<path d="M259.996 556.876C259.996 557.063 259.498 557.212 258.852 557.225C258.205 557.237 257.707 557.088 257.719 556.914C257.732 556.739 258.23 556.578 258.852 556.565C259.474 556.553 259.996 556.702 259.996 556.876Z" fill="#263238"/>
<path d="M330.133 241.883C329.635 241.373 328.404 241.622 328.404 241.622C328.527 240.906 328.527 240.174 328.404 239.458C328.18 238.761 326.612 238.898 326.612 238.898C326.54 238.311 326.54 237.718 326.612 237.131C326.625 237.001 326.597 236.871 326.532 236.757C326.468 236.643 326.37 236.553 326.251 236.497C325.51 236.194 324.713 236.05 323.913 236.074C322.955 235.39 326.836 229.953 328.279 228.212C329.722 226.47 329.461 225.114 328.18 225.114C327.296 225.114 322.768 230.339 321.375 232.093C319.982 233.847 316.287 238.724 316.163 234.83C316.038 230.936 314.471 228 313.488 227.503C312.505 227.005 311.46 228.174 311.995 229.257C312.465 230.486 312.758 231.776 312.866 233.088C313.001 234.133 312.955 235.194 312.729 236.223C312.317 238.138 311.755 240.018 311.05 241.846H310.95C310.95 241.846 283.806 267.883 281.841 269.737C280.087 271.403 244.807 267.759 237.728 267.012C235.323 266.66 232.894 266.494 230.463 266.515C227.391 266.651 226.843 267.087 223.783 267.124C216.055 267.21 208.344 267.888 200.719 269.152C197.267 269.739 194.042 271.263 191.396 273.557C188.751 275.852 186.786 278.829 185.717 282.164C178.589 304.432 162.442 357.14 159.593 386.747C157.44 390.651 155.497 394.666 153.771 398.777C151.768 404.225 152.253 404.412 152.925 404.536C154.741 404.872 156.806 395.094 157.577 397.458C158.349 399.822 153.659 409.114 155.562 409.388C158.05 409.736 160.028 399.436 160.265 398.615C160.501 397.794 161.732 398.055 161.509 398.826C161.148 399.921 157.652 411.528 160.09 411.901C161.434 412.1 161.583 409.649 161.583 409.649C161.583 409.649 164.071 398.54 165.203 398.764C166.335 398.988 165.129 405.544 164.556 407.733C163.984 409.923 164.78 411.03 165.95 410.495C166.746 410.122 168.649 403.467 169.172 401.302C169.694 399.137 171 393.141 172.754 396.612C174.508 400.083 177.17 402.098 178.265 402.148C178.512 402.119 178.744 402.018 178.933 401.856C179.121 401.694 179.257 401.48 179.323 401.241C179.388 401.001 179.381 400.747 179.301 400.512C179.221 400.277 179.073 400.071 178.875 399.921C177.933 399.002 177.125 397.955 176.474 396.811C175.894 395.92 175.473 394.935 175.23 393.9C174.729 391.837 174.437 389.728 174.359 387.606L174.16 386.362C176.947 372.566 184.97 332.073 196.552 306.211L201.304 315.988L203.369 323.229L190.705 354.49L244.72 353.781L236.659 322.756L246.449 290.412C257.035 290.648 284.217 291.046 288.745 288.994C294.442 286.506 323.913 249.285 323.913 249.285C325.834 247.792 327.673 246.198 329.424 244.508C329.424 244.508 331.215 243.003 330.133 241.883Z" fill="#FFBE9D"/>
<path d="M188.329 331.389C189.897 326.04 197.945 299.592 197.945 299.592C197.945 299.592 201.901 321.151 200.856 323.751C199.895 325.977 198.759 328.123 197.46 330.17C188.329 344.065 189.523 351.019 189.523 351.019L244.695 349.34C244.819 341.627 240.254 323.689 239.308 320.827C238.363 317.966 241.51 308.599 241.51 308.599C241.51 308.599 247.73 302.267 247.506 299.008C247.388 296.08 247.026 293.167 246.424 290.3L280.012 291.544L278.955 268.778L230.712 263.952C229.033 268.691 213.844 266.365 213.844 266.365C197.448 266.912 196.428 269.923 189.61 275.222C182.793 280.522 171.51 326.002 171.51 326.002L188.329 331.389Z" fill="#FF725E"/>
<path d="M220.947 326.002C219.991 326.173 219.017 326.223 218.048 326.152C216.245 326.152 213.769 326.027 211.045 325.754C208.32 325.48 205.857 325.094 204.103 324.746C203.136 324.621 202.188 324.379 201.279 324.024C202.252 324.025 203.222 324.116 204.178 324.298C205.944 324.522 208.395 324.833 211.107 325.107C213.819 325.38 216.282 325.567 218.061 325.691C219.03 325.704 219.997 325.808 220.947 326.002Z" fill="#263238"/>
<path d="M224.729 321.312C223.772 321.781 222.761 322.128 221.718 322.345C216.755 323.649 211.634 324.256 206.504 324.149C205.442 324.183 204.381 324.083 203.344 323.85C204.392 323.718 205.448 323.664 206.504 323.688C208.457 323.626 211.144 323.489 214.105 323.141C217.066 322.793 219.703 322.295 221.569 321.897C222.605 321.62 223.662 321.425 224.729 321.312Z" fill="#263238"/>
<path d="M243.289 300.389C243.264 301.337 243.135 302.28 242.903 303.2C242.58 304.929 242.082 307.293 241.448 309.88C240.814 312.468 240.204 314.856 239.657 316.474C239.436 317.399 239.111 318.297 238.686 319.148C238.756 318.203 238.931 317.268 239.209 316.362C239.681 314.421 240.216 312.182 240.814 309.731C241.411 307.28 241.983 305.041 242.456 303.101C242.624 302.167 242.904 301.256 243.289 300.389Z" fill="#263238"/>
<path d="M188.914 328.217C186.036 327.772 183.196 327.111 180.417 326.239C177.578 325.575 174.792 324.702 172.083 323.626C174.959 324.078 177.799 324.739 180.579 325.604C183.419 326.266 186.205 327.139 188.914 328.217Z" fill="#263238"/>
<path d="M247.021 290.026C246.552 290.107 246.072 290.107 245.603 290.026C244.304 289.893 243.028 289.587 241.809 289.118C239.774 288.353 237.921 287.171 236.37 285.648C234.819 284.125 233.604 282.294 232.802 280.273C231.916 278.05 231.538 275.657 231.695 273.269C231.75 271.3 232.339 269.382 233.399 267.721C234.145 266.602 235.258 265.779 236.547 265.395C236.891 265.3 237.247 265.254 237.604 265.258C237.853 265.258 237.977 265.258 237.977 265.258C237.977 265.258 237.455 265.258 236.621 265.594C235.439 266.031 234.437 266.849 233.772 267.92C232.081 270.582 231.608 275.446 233.412 279.987C234.251 282.128 235.566 284.051 237.256 285.61C238.641 286.886 240.236 287.913 241.97 288.645C243.598 289.289 245.292 289.752 247.021 290.026Z" fill="#263238"/>
<path d="M276.019 291.096C275.708 287.281 275.608 283.452 275.72 279.626C275.623 275.804 275.739 271.979 276.068 268.169C276.38 271.98 276.48 275.805 276.367 279.626C276.472 283.453 276.355 287.283 276.019 291.096Z" fill="#263238"/>
<path d="M230.389 265.345C230.526 262.571 230.812 259.436 230.812 259.436C230.812 259.436 237.679 258.677 238.089 251.586C238.5 244.495 238.089 228.137 238.089 228.137L225.649 221.768L211.841 232.628L213.968 268.082L226.632 268.89C227.6 268.917 228.539 268.559 229.243 267.894C229.948 267.23 230.36 266.313 230.389 265.345Z" fill="#FFBE9D"/>
<path d="M231.62 245.976C231.62 245.976 231.62 246.113 231.508 246.274C231.416 246.392 231.296 246.485 231.16 246.545C231.023 246.606 230.874 246.633 230.725 246.623C229.929 246.623 229.157 245.702 228.884 244.632C228.753 244.114 228.753 243.571 228.884 243.052C228.909 242.826 228.991 242.61 229.121 242.423C229.251 242.236 229.426 242.085 229.63 241.983C229.797 241.913 229.985 241.913 230.152 241.983C230.276 242.044 230.377 242.145 230.439 242.269C230.526 242.48 230.439 242.617 230.439 242.604C230.439 242.592 230.439 242.48 230.314 242.356C230.249 242.267 230.154 242.205 230.046 242.182C229.938 242.159 229.825 242.176 229.729 242.231C229.577 242.324 229.45 242.453 229.361 242.607C229.272 242.762 229.223 242.936 229.219 243.115C229.115 243.577 229.115 244.058 229.219 244.52C229.468 245.491 230.14 246.274 230.737 246.349C230.854 246.365 230.973 246.356 231.086 246.324C231.2 246.292 231.305 246.237 231.396 246.162C231.546 246.063 231.595 245.963 231.62 245.976Z" fill="#EB996E"/>
<path d="M242.356 224.305C241.398 221.046 237.927 219.429 234.768 218.533C229.953 217.165 224.753 216.568 220.051 218.297C215.349 220.026 209.701 223.061 209.701 228.249C206.927 228.025 205.335 230.451 204.24 233.461C203.54 235.295 203.121 237.225 202.996 239.184C202.648 245.976 200.744 255.356 196.341 260.332C193.853 263.106 190.407 265.022 188.988 268.48C187.744 271.478 188.391 275.036 187.234 278.071C186.202 280.746 183.925 282.649 182.258 284.975C180.56 287.614 179.561 290.642 179.354 293.773C179.147 296.905 179.74 300.037 181.077 302.876C182.423 305.643 184.318 308.106 186.647 310.117C188.976 312.127 191.69 313.642 194.624 314.57C200.435 316.338 206.631 316.398 212.475 314.744C216.861 313.695 220.953 311.667 224.442 308.81C228.013 305.894 230.466 301.833 231.384 297.316C232.267 292.24 230.849 287.078 229.792 282.027C226.483 266.066 227.428 265.233 231.608 250.417C231.707 250.156 231.757 249.882 231.832 249.621C231.906 249.36 231.944 249.235 231.994 249.036C232.112 248.45 232.175 247.855 232.18 247.257C231.57 247.484 230.907 247.532 230.27 247.396C229.633 247.259 229.049 246.943 228.585 246.486C228.12 245.998 227.796 245.394 227.647 244.737C227.498 244.08 227.53 243.394 227.739 242.754C228.033 242.053 228.47 241.422 229.023 240.902C229.576 240.381 230.232 239.982 230.949 239.731C232.329 239.159 233.81 238.86 235.166 238.226C238.039 236.857 240.03 234.021 241.386 231.048C242.501 228.987 242.845 226.597 242.356 224.305Z" fill="#263238"/>
<path d="M232.118 246.312C232.381 246.7 232.598 247.118 232.765 247.556C233.138 248.34 233.636 249.447 234.183 250.728L234.283 250.965H234.021L232.777 251.077C231.919 251.077 231.197 251.238 230.351 251.226C230.278 251.209 230.21 251.174 230.153 251.124C230.096 251.074 230.053 251.011 230.028 250.94C229.991 250.827 229.991 250.705 230.028 250.591C230.057 250.424 230.094 250.258 230.14 250.094L230.364 249.211C230.476 248.621 230.652 248.046 230.886 247.494C230.863 248.094 230.776 248.691 230.625 249.273L230.451 250.156C230.389 250.455 230.277 250.915 230.451 250.878C231.073 250.878 231.956 250.741 232.777 250.691L234.021 250.579L233.86 250.853C233.325 249.609 232.877 248.439 232.616 247.631C232.386 247.218 232.219 246.773 232.118 246.312Z" fill="#FF725E"/>
<path d="M189.523 351.019L244.695 349.34L268.704 443.063L264.288 550.569H235.116L238.686 445.352L217.352 380.104L220.636 554.737L191.153 555.172L188.055 391.026C187.919 386.461 186.426 376.173 186.986 371.645L189.523 351.019Z" fill="#263238"/>
<path d="M224.691 381.435C223.788 381.492 222.882 381.437 221.992 381.273C220.325 381.074 218.048 380.726 215.548 380.228C213.047 379.731 210.808 379.158 209.191 378.698C208.327 378.508 207.49 378.207 206.703 377.802C206.703 377.616 210.758 378.586 215.734 379.594C220.71 380.601 224.716 381.248 224.691 381.435Z" fill="#455A64"/>
<path d="M263.989 544.673C263.989 544.847 257.384 544.996 249.235 544.996C241.087 544.996 234.469 544.847 234.469 544.673C234.469 544.498 241.075 544.349 249.235 544.349C257.396 544.349 263.989 544.486 263.989 544.673Z" fill="#455A64"/>
<path d="M220.375 550.196C220.375 550.383 213.956 550.52 206.044 550.52C198.132 550.52 191.725 550.383 191.725 550.196C191.725 550.009 198.144 549.873 206.044 549.873C213.943 549.873 220.375 550.022 220.375 550.196Z" fill="#455A64"/>
<path d="M216.568 549.748C216.394 549.748 215.623 511.595 214.839 464.534C214.055 417.474 213.595 379.295 213.757 379.295C213.918 379.295 214.714 417.436 215.486 464.522C216.257 511.607 216.755 549.748 216.568 549.748Z" fill="#455A64"/>
<path d="M260.071 544.673C260.057 544.503 260.057 544.332 260.071 544.162V542.67C260.071 541.326 260.17 539.398 260.245 536.947C260.419 531.971 260.668 524.744 260.979 515.886C261.651 498.072 262.596 473.516 263.628 446.409C263.628 446.148 263.628 445.899 263.628 445.675V445.762C257.097 419.638 251.188 395.927 246.897 378.773L241.921 358.483C241.348 356.107 240.913 354.253 240.602 352.96C240.453 352.35 240.353 351.877 240.266 351.517C240.218 351.355 240.188 351.188 240.179 351.019C240.244 351.176 240.294 351.338 240.328 351.504C240.428 351.853 240.552 352.325 240.726 352.922C241.062 354.166 241.547 356.057 242.169 358.421C243.413 363.223 245.168 370.139 247.357 378.661C251.686 395.803 257.657 419.451 264.275 445.613V445.7C264.275 445.924 264.275 446.185 264.275 446.434C263.168 473.541 262.161 498.085 261.427 515.899C261.041 524.769 260.718 531.946 260.494 536.947C260.369 539.435 260.27 541.326 260.207 542.67C260.207 543.304 260.133 543.802 260.12 544.162C260.122 544.334 260.106 544.505 260.071 544.673Z" fill="#455A64"/>
<path d="M250.554 443.486C248.459 444.175 246.3 444.654 244.11 444.916C241.423 445.377 239.134 445.7 238.102 445.75V445.501C238.437 445.601 238.612 445.663 238.612 445.713C238.612 445.762 238.4 445.713 238.052 445.713H237.305L238.052 445.489C239.022 445.203 241.311 444.73 243.998 444.245C246.153 443.777 248.349 443.523 250.554 443.486Z" fill="#455A64"/>
<path d="M250.044 447.056C248.104 447.145 246.159 447.058 244.235 446.795C242.291 446.755 240.356 446.543 238.45 446.161C242.338 445.843 246.251 446.146 250.044 447.056Z" fill="#455A64"/>
<path opacity="0.2" d="M189.287 352.997C189.94 353.836 190.763 354.528 191.702 355.027C192.641 355.527 193.675 355.823 194.736 355.896C196.958 356.159 199.205 356.117 201.416 355.771C215.66 354.191 230.75 352.736 244.695 349.34C226.644 350.347 207.574 350.012 189.523 351.019L189.337 352.562" fill="black"/>
<g opacity="0.2">
<path opacity="0.2" d="M207.885 378.437L218.061 417.922L217.352 380.104L207.885 378.437Z" fill="black"/>
</g>
</svg>
