<svg width="696" height="696" viewBox="0 0 696 696" fill="none" xmlns="http://www.w3.org/2000/svg">
<path d="M174.32 541.822C270.243 587.536 425.757 587.55 521.68 541.822C617.603 496.095 617.589 421.985 521.68 376.272C425.771 330.558 270.243 330.558 174.32 376.272C78.3974 421.985 78.4113 496.109 174.32 541.822Z" fill="#F5F5F5"/>
<path d="M521.346 508.038C539.012 508.038 553.334 501.214 553.334 492.796C553.334 484.377 539.012 477.553 521.346 477.553C503.679 477.553 489.358 484.377 489.358 492.796C489.358 501.214 503.679 508.038 521.346 508.038Z" fill="#EBEBEB"/>
<path d="M167.04 494.981L178.357 488.453C184.675 483.297 189.485 476.53 192.277 468.867C195.771 459.235 195.283 451.913 192.778 448.238C189.702 443.714 181.725 444.507 181.405 454.029C180.737 472.793 175.267 485.808 167.04 494.981Z" fill="#FF6B6C"/>
<path opacity="0.2" d="M167.04 494.981L178.357 488.453C184.675 483.297 189.485 476.53 192.277 468.867C195.771 459.235 195.283 451.913 192.778 448.238C189.702 443.714 181.725 444.507 181.405 454.029C180.737 472.793 175.267 485.808 167.04 494.981Z" fill="black"/>
<path d="M167.04 495.677C166.893 495.675 166.75 495.627 166.632 495.539C166.514 495.45 166.427 495.327 166.383 495.186C166.34 495.045 166.342 494.894 166.39 494.755C166.438 494.615 166.529 494.495 166.65 494.411C192.82 476.315 187.753 451.078 187.697 450.827C187.678 450.736 187.677 450.641 187.694 450.55C187.712 450.458 187.747 450.37 187.798 450.292C187.849 450.214 187.915 450.147 187.992 450.094C188.069 450.041 188.156 450.004 188.247 449.985C188.339 449.966 188.433 449.965 188.525 449.982C188.616 449.999 188.704 450.034 188.782 450.085C188.86 450.136 188.928 450.202 188.98 450.28C189.033 450.357 189.07 450.443 189.089 450.535C189.089 450.799 194.435 476.899 167.485 495.552C167.355 495.641 167.198 495.685 167.04 495.677Z" fill="white"/>
<path d="M144.364 508.08C144.364 508.08 140.425 504.878 141.371 500.535C142.318 496.192 144.865 493.074 140.508 487.478C136.151 481.883 134.94 474.421 140.146 470.385C144.114 467.253 150.308 471.679 152.535 463.425C154.178 457.383 153.621 444.006 161.319 439.552C169.017 435.097 173.847 441.807 172.636 450.883C171.578 458.998 170.074 466.807 171.244 468.979C173.499 473.155 177.355 472.584 177.174 480.212C177.021 487.311 170.297 493.186 170.297 493.186L144.364 508.08Z" fill="#FF6B6C"/>
<path d="M157.296 501.273C157.126 501.271 156.962 501.209 156.834 501.096C156.706 500.984 156.623 500.829 156.6 500.661C154.609 484.165 159.384 455.685 163.281 447.222C163.314 447.128 163.367 447.042 163.436 446.97C163.504 446.898 163.588 446.842 163.68 446.805C163.772 446.768 163.871 446.752 163.971 446.756C164.07 446.761 164.167 446.787 164.256 446.832C164.339 446.869 164.414 446.923 164.476 446.99C164.538 447.057 164.586 447.135 164.617 447.221C164.648 447.306 164.662 447.397 164.657 447.488C164.652 447.579 164.63 447.669 164.59 447.751C160.734 456.103 156.127 484.667 158.034 500.438C158.053 500.62 158 500.803 157.885 500.947C157.77 501.09 157.604 501.182 157.421 501.203L157.296 501.273Z" fill="white"/>
<path d="M156.92 488.425C156.814 488.43 156.708 488.406 156.614 488.355C151.784 486.003 148.721 477.609 148.596 477.219C148.562 477.133 148.546 477.04 148.548 476.947C148.55 476.854 148.571 476.762 148.609 476.678C148.648 476.593 148.703 476.517 148.771 476.453C148.839 476.39 148.919 476.341 149.007 476.31C149.094 476.278 149.187 476.264 149.28 476.269C149.373 476.274 149.464 476.297 149.548 476.338C149.632 476.379 149.706 476.436 149.768 476.506C149.829 476.576 149.875 476.658 149.905 476.746C149.905 476.829 152.897 484.959 157.226 487.061C157.368 487.129 157.483 487.244 157.551 487.387C157.619 487.529 157.637 487.69 157.601 487.844C157.566 487.998 157.479 488.135 157.355 488.233C157.231 488.331 157.078 488.384 156.92 488.383V488.425Z" fill="white"/>
<path d="M156.837 493.993C156.697 493.993 156.561 493.951 156.446 493.871C156.332 493.791 156.245 493.678 156.196 493.548C156.127 493.378 156.128 493.187 156.198 493.018C156.268 492.848 156.403 492.714 156.572 492.643C164.701 489.386 169.768 479.711 169.824 479.6C169.909 479.436 170.056 479.312 170.232 479.256C170.408 479.199 170.599 479.216 170.764 479.301C170.928 479.385 171.052 479.532 171.108 479.708C171.164 479.885 171.148 480.076 171.063 480.24C170.84 480.658 165.704 490.485 157.143 493.937C157.047 493.983 156.942 494.002 156.837 493.993Z" fill="white"/>
<path d="M440.986 419.103C440.986 419.103 434.903 409.248 434.304 398.544C433.705 387.839 436.058 383.385 439.287 382.104C442.517 380.823 442.767 384.763 444.424 387.087C446.08 389.412 449.463 388.09 450.716 380.837C451.969 373.585 456.534 361.349 466.028 358.969C476.468 356.38 470.872 368.63 468.241 373.404C465.61 378.179 463.578 384.693 465.304 386.461C467.03 388.229 469.717 384.958 472.264 387.992C475.368 391.653 465.721 404.835 460.181 408.023L440.986 419.103Z" fill="#FF6B6C"/>
<path d="M449.324 414.969C449.232 414.965 449.142 414.944 449.059 414.905C448.976 414.867 448.901 414.813 448.839 414.745C448.777 414.678 448.729 414.599 448.698 414.514C448.666 414.428 448.652 414.336 448.655 414.245C449.598 397.025 454.968 380.34 464.246 365.803C464.298 365.728 464.366 365.663 464.444 365.614C464.522 365.565 464.609 365.533 464.7 365.519C464.791 365.504 464.884 365.508 464.974 365.531C465.063 365.554 465.147 365.594 465.22 365.65C465.366 365.759 465.464 365.92 465.492 366.099C465.521 366.279 465.478 366.462 465.373 366.611C456.261 380.935 450.988 397.363 450.061 414.315C450.056 414.406 450.033 414.496 449.993 414.578C449.953 414.66 449.897 414.734 449.828 414.795C449.76 414.856 449.68 414.902 449.593 414.932C449.507 414.962 449.415 414.974 449.324 414.969Z" fill="white"/>
<path d="M450.117 406.743C450.001 406.741 449.886 406.713 449.783 406.659C445.885 404.501 443.728 398.098 443.644 397.834C443.614 397.747 443.6 397.655 443.606 397.563C443.611 397.471 443.634 397.381 443.674 397.298C443.714 397.215 443.77 397.141 443.839 397.08C443.908 397.019 443.989 396.973 444.076 396.943C444.251 396.886 444.442 396.901 444.607 396.984C444.771 397.068 444.896 397.213 444.953 397.388C444.953 397.388 447.041 403.555 450.521 405.434C450.679 405.527 450.794 405.678 450.843 405.854C450.893 406.031 450.872 406.219 450.785 406.381C450.722 406.5 450.625 406.599 450.506 406.663C450.387 406.728 450.252 406.755 450.117 406.743Z" fill="white"/>
<path d="M450.799 402.525C450.645 402.523 450.496 402.47 450.375 402.374C450.254 402.279 450.168 402.145 450.131 401.996C450.108 401.908 450.103 401.817 450.116 401.727C450.129 401.637 450.159 401.551 450.206 401.473C450.253 401.395 450.314 401.327 450.388 401.274C450.461 401.22 450.544 401.182 450.632 401.161C460.682 398.613 464.162 393.351 464.19 393.296C464.239 393.218 464.304 393.151 464.379 393.098C464.454 393.045 464.539 393.008 464.629 392.988C464.719 392.967 464.812 392.965 464.903 392.981C464.993 392.997 465.08 393.031 465.158 393.08C465.235 393.129 465.302 393.194 465.355 393.269C465.408 393.344 465.446 393.429 465.466 393.519C465.486 393.609 465.488 393.702 465.472 393.792C465.456 393.883 465.423 393.97 465.373 394.047C465.22 394.284 461.601 399.81 450.98 402.511L450.799 402.525Z" fill="white"/>
<path d="M289.536 397.472C289.536 397.472 276.187 394.214 275.491 369.214C274.753 342.237 278.762 310.75 262.963 308.203C247.163 305.655 238.394 324.907 238.589 347.387C238.77 367.07 246.704 409.805 289.48 418.185L289.536 397.472Z" fill="#FF6B6C"/>
<path opacity="0.2" d="M289.536 397.472C289.536 397.472 276.187 394.214 275.491 369.214C274.753 342.237 278.762 310.75 262.963 308.203C247.163 305.655 238.394 324.907 238.589 347.387C238.77 367.07 246.704 409.805 289.48 418.185L289.536 397.472Z" fill="black"/>
<path d="M289.536 415.623H289.411C279.792 413.869 271.955 408.566 266.123 399.88C248.834 374.086 254.277 325.923 256.072 317.515C256.112 317.336 256.22 317.179 256.374 317.078C256.527 316.977 256.713 316.939 256.894 316.972C257.074 317.015 257.231 317.126 257.332 317.282C257.433 317.437 257.47 317.625 257.436 317.807C255.669 326.159 250.254 373.71 267.278 399.1C269.756 403.038 273.025 406.417 276.878 409.024C280.732 411.631 285.085 413.409 289.661 414.245C289.752 414.262 289.839 414.296 289.916 414.347C289.993 414.397 290.06 414.463 290.112 414.539C290.164 414.616 290.2 414.702 290.218 414.792C290.236 414.883 290.236 414.976 290.218 415.066C290.189 415.225 290.104 415.368 289.979 415.47C289.854 415.572 289.697 415.626 289.536 415.623Z" fill="white"/>
<path d="M289.536 479.781C275.741 481.646 253.344 481.618 240.412 471.429C227.481 461.239 230.181 452.47 235.15 448.809C240.12 445.148 244.435 440.972 235.888 432.843C227.341 424.713 213.616 411.656 209.162 392.071C204.707 372.486 206.907 360.236 215.649 356.157C224.126 352.204 226.367 358.496 231.559 371.469C236.751 384.443 248.43 373.321 258.425 377.371C268.419 381.422 268.016 389.44 268.642 396.33C269.268 403.221 272.567 405.128 278.233 405.128C283.898 405.128 289.536 408.385 289.536 414.872V479.781Z" fill="#FF6B6C"/>
<path d="M289.536 457.035C289.476 457.048 289.415 457.048 289.355 457.035C288.756 456.868 274.488 452.72 253.706 433.636C231.573 413.312 221.133 382.828 221.022 382.521C220.968 382.346 220.985 382.157 221.068 381.993C221.151 381.83 221.294 381.705 221.467 381.644C221.641 381.587 221.83 381.6 221.994 381.68C222.158 381.761 222.284 381.903 222.344 382.076C222.442 382.382 232.784 412.533 254.652 432.606C275.143 451.439 289.578 455.657 289.731 455.699C289.819 455.724 289.9 455.767 289.972 455.824C290.043 455.882 290.102 455.952 290.146 456.032C290.19 456.113 290.218 456.201 290.228 456.291C290.238 456.382 290.23 456.474 290.204 456.562C290.159 456.702 290.069 456.825 289.949 456.91C289.828 456.995 289.684 457.039 289.536 457.035Z" fill="white"/>
<path d="M259.51 438.48C259.371 438.482 259.233 438.44 259.119 438.36C259.004 438.28 258.917 438.166 258.87 438.034C254.402 426.564 253.386 402.023 253.302 400.979C253.298 400.796 253.366 400.617 253.49 400.483C253.615 400.348 253.787 400.266 253.97 400.255C254.152 400.258 254.327 400.328 254.46 400.451C254.594 400.574 254.677 400.743 254.694 400.924C254.694 401.174 255.738 426.272 260.123 437.533C260.156 437.619 260.173 437.711 260.17 437.803C260.168 437.895 260.148 437.986 260.11 438.07C260.073 438.154 260.019 438.23 259.952 438.293C259.885 438.356 259.806 438.406 259.719 438.438C259.652 438.462 259.582 438.476 259.51 438.48Z" fill="white"/>
<path d="M259.399 454.975C258.116 454.985 256.833 454.92 255.557 454.78C255.466 454.769 255.377 454.74 255.297 454.695C255.217 454.65 255.146 454.59 255.089 454.517C255.033 454.445 254.991 454.362 254.966 454.273C254.941 454.185 254.934 454.092 254.945 454.001C254.956 453.909 254.985 453.821 255.03 453.741C255.075 453.66 255.135 453.59 255.208 453.533C255.28 453.476 255.363 453.434 255.452 453.409C255.54 453.384 255.633 453.377 255.724 453.388C255.85 453.388 268.809 454.864 274.753 448.808C274.815 448.735 274.891 448.675 274.977 448.633C275.063 448.591 275.157 448.567 275.253 448.562C275.349 448.558 275.444 448.573 275.534 448.608C275.623 448.642 275.705 448.695 275.773 448.762C275.841 448.829 275.895 448.91 275.931 448.999C275.966 449.088 275.983 449.184 275.98 449.279C275.977 449.375 275.954 449.469 275.913 449.556C275.872 449.643 275.814 449.72 275.741 449.783C271.44 454.223 263.937 454.975 259.399 454.975Z" fill="white"/>
<path d="M249.377 191.386L247.873 182.714L240.134 187.809C239.427 186.417 238.424 185.196 237.197 184.232L240.899 174.209L233.939 172.664L228.845 182.408C227.001 182.719 225.214 183.301 223.541 184.134L221.328 176.784L213.059 183.285L213.602 191.915C211.919 193.802 210.392 195.822 209.037 197.957L202.216 197.609L197.427 208.341L203.288 210.847C202.676 213.066 202.289 215.342 202.132 217.64L194.685 224.488L196.174 233.174L203.928 228.08C204.631 229.47 205.634 230.687 206.865 231.643L203.232 241.679L210.192 243.211L217.486 236.111C219.17 235.847 218.753 232.673 220.59 231.768L222.803 239.09L231.058 232.604L230.849 229.207C232.52 227.342 238.839 223.235 240.203 221.092L241.916 218.308L246.704 207.575L244.477 203.539L241.999 198.277L249.377 191.386ZM224.112 219.936C217.764 224.92 215.76 226.019 214.688 219.352C213.616 212.684 217.249 202.55 223.597 197.553C229.944 192.556 232.366 192.208 233.508 198.861C234.649 205.515 230.473 215.009 224.112 219.936Z" fill="#E0E0E0"/>
<path d="M233.995 172.664L243.029 177.87L237.934 187.586L228.9 182.38L233.995 172.664Z" fill="#F5F5F5"/>
<path d="M256.907 187.92L249.168 193.015L240.134 187.809L247.873 182.714L256.907 187.92Z" fill="#F5F5F5"/>
<path d="M255.669 212.739L249.808 210.248L240.774 205.042L246.634 207.533L255.669 212.739Z" fill="#E0E0E0"/>
<path d="M203.218 241.679L212.252 246.871L215.955 236.849L206.921 231.643L203.218 241.679Z" fill="#E0E0E0"/>
<path d="M231.754 244.296L222.734 239.09L220.521 231.768L229.555 236.974L231.754 244.296Z" fill="#E0E0E0"/>
<path d="M258.397 196.592L256.907 187.92L249.168 193.015C248.455 191.622 247.448 190.401 246.217 189.437L249.919 179.415L243.029 177.87L237.92 187.614C236.077 187.925 234.29 188.506 232.617 189.34L230.418 182.018L222.149 188.518L222.692 197.149C221.006 199.048 219.479 201.083 218.126 203.232L211.291 202.884L206.503 213.616L212.363 216.122C211.757 218.348 211.37 220.627 211.208 222.929L203.775 229.68L205.264 238.366L213.004 233.271C213.716 234.66 214.723 235.876 215.955 236.835L212.252 246.857L219.212 248.402L224.307 238.658C226.157 238.351 227.95 237.764 229.624 236.918L231.823 244.24L240.092 237.753L239.549 229.123C241.233 227.237 242.76 225.216 244.115 223.082L250.95 223.416L255.738 212.684L249.794 210.192C250.41 207.968 250.802 205.687 250.963 203.385L258.397 196.592ZM233.16 225.198C226.826 230.181 220.757 228.831 219.602 222.177C218.446 215.523 222.664 206.072 229.012 201.088C235.359 196.105 241.414 197.469 242.57 204.123C243.725 210.777 239.507 220.214 233.16 225.198Z" fill="#EBEBEB"/>
<path d="M230.418 181.99L221.384 176.784L213.115 183.285L222.149 188.491L230.418 181.99Z" fill="#F5F5F5"/>
<path d="M213.115 183.285L213.658 191.915L222.692 197.121L222.149 188.491L213.115 183.285Z" fill="#E0E0E0"/>
<path d="M218.126 203.162L209.092 197.956L202.271 197.622L211.292 202.828L218.126 203.162Z" fill="#F5F5F5"/>
<path d="M202.271 197.622L197.483 208.34L206.503 213.547L211.292 202.828L202.271 197.622Z" fill="#E0E0E0"/>
<path d="M211.208 222.845L202.188 217.639L194.741 224.488L203.761 229.694L211.208 222.845Z" fill="#F5F5F5"/>
<path d="M205.264 238.38L196.23 233.174L194.741 224.488L203.761 229.694L205.264 238.38Z" fill="#E0E0E0"/>
<path d="M243.029 177.87L233.995 172.664L240.899 174.209L249.92 179.415L243.029 177.87Z" fill="#F5F5F5"/>
<path d="M208.925 152.02V139.061L198.61 143.71C198.064 141.511 197.121 139.431 195.826 137.571L202.327 124.473L194.393 119.893L186.291 132.073C184.034 131.876 181.759 132.098 179.582 132.727L178.44 121.466L167.221 127.953L166.093 140.481C163.652 142.644 161.406 145.02 159.384 147.58L151.282 144.796L143.348 158.549L149.835 164.117C148.636 167.148 147.705 170.278 147.051 173.471L136.736 180.723V193.697L147.051 189.048C147.597 191.246 148.541 193.327 149.835 195.186L143.376 208.299L151.31 212.879L159.412 200.699C161.669 200.895 163.944 200.673 166.121 200.044L167.249 211.306L178.468 204.819L179.61 192.291C183.111 191.013 186.214 188.833 188.602 185.971L194.421 188.018L202.355 174.279L197.483 170.103C198.541 166.62 198.933 162.97 198.638 159.342L208.925 152.02ZM172.831 184.398C164.228 189.368 158.911 185.79 158.911 175.893C158.911 165.996 166.024 153.76 174.64 148.791C183.257 143.822 188.463 147.399 188.463 157.38C188.463 167.36 181.447 179.415 172.831 184.398Z" fill="#E0E0E0"/>
<path d="M203.413 125.085L194.393 119.893L186.291 132.073L195.311 137.279L203.413 125.085Z" fill="#F5F5F5"/>
<path d="M217.959 144.267L208.925 139.061L198.61 143.71L207.644 148.916L217.959 144.267Z" fill="#F5F5F5"/>
<path d="M176.241 216.512L167.221 211.306L166.094 200.044L175.114 205.25L176.241 216.512Z" fill="#E0E0E0"/>
<path d="M143.334 208.299L152.368 213.505L158.869 200.406L149.835 195.2L143.334 208.299Z" fill="#E0E0E0"/>
<path d="M217.959 157.296V144.337L207.645 148.944C207.104 146.744 206.16 144.662 204.861 142.806L211.361 129.707L203.427 125.113L195.325 137.307C193.068 137.103 190.792 137.325 188.616 137.961L187.475 126.672L176.255 133.159L175.114 145.687C172.675 147.854 170.43 150.23 168.404 152.786L160.303 150.002L152.368 163.755L158.869 169.323C157.664 172.352 156.732 175.483 156.085 178.677L145.77 185.93V198.903L156.085 194.254C156.625 196.455 157.569 198.536 158.869 200.393L152.368 213.491L160.303 218.071L168.404 205.891C170.662 206.088 172.937 205.866 175.114 205.237L176.255 216.498L187.475 210.011L188.602 197.483C191.044 195.32 193.289 192.944 195.312 190.384L203.413 193.168L211.347 179.429L204.847 173.861C206.051 170.832 206.983 167.702 207.631 164.507L217.959 157.296ZM181.865 189.674C173.248 194.644 166.261 190.607 166.261 180.668C166.261 170.729 173.22 158.633 181.865 153.649C190.509 148.666 197.455 152.717 197.455 162.656C197.455 172.594 190.467 184.621 181.865 189.605V189.674Z" fill="#EBEBEB"/>
<path d="M159.384 147.608L168.404 152.814L160.303 149.988L151.282 144.768L159.384 147.608Z" fill="#F0F0F0"/>
<path d="M151.282 144.782L143.345 158.54L152.376 163.75L160.313 149.992L151.282 144.782Z" fill="#F5F5F5"/>
<path d="M143.334 158.521L152.368 163.727L158.869 169.323L149.835 164.131L143.334 158.521Z" fill="#E0E0E0"/>
<path d="M147.051 173.485L156.085 178.691L145.77 185.943L136.736 180.737L147.051 173.485Z" fill="#F5F5F5"/>
<path d="M136.736 180.737L145.77 185.943V198.917L136.736 193.711V180.737Z" fill="#E0E0E0"/>
<path d="M187.475 126.672L178.44 121.466L167.221 127.953L176.241 133.159L187.475 126.672Z" fill="#F5F5F5"/>
<path d="M303.289 498.406L434.137 422.848C434.425 422.747 434.675 422.558 434.851 422.309C435.028 422.06 435.123 421.762 435.123 421.456C435.123 421.151 435.028 420.853 434.851 420.603C434.675 420.354 434.425 420.165 434.137 420.064L422.04 413.104C421.291 412.727 420.464 412.531 419.625 412.531C418.786 412.531 417.959 412.727 417.21 413.104L286.32 488.592C286.032 488.694 285.782 488.882 285.606 489.131C285.429 489.381 285.334 489.679 285.334 489.984C285.334 490.29 285.429 490.588 285.606 490.837C285.782 491.087 286.032 491.275 286.32 491.376L298.459 498.336C299.202 498.724 300.027 498.932 300.865 498.945C301.704 498.957 302.534 498.772 303.289 498.406Z" fill="#E0E0E0"/>
<path d="M430.546 131.127L312.56 199.251C310.806 200.396 309.346 201.937 308.299 203.751C307.252 205.565 306.646 207.6 306.532 209.691V489.581C306.532 493.422 309.233 494.982 312.56 493.061L430.546 424.936C432.302 423.794 433.763 422.253 434.811 420.439C435.858 418.624 436.462 416.588 436.573 414.496V134.607C436.573 130.765 433.886 129.206 430.546 131.127Z" fill="#455A64"/>
<path d="M312.56 199.251L430.545 131.126C433.524 129.4 435.988 130.472 436.489 133.465C436.211 131.583 435.537 129.782 434.513 128.179C433.489 126.577 432.136 125.209 430.545 124.166L425.646 121.382C423.778 120.435 421.713 119.941 419.618 119.941C417.524 119.941 415.459 120.435 413.591 121.382L295.591 189.451C293.814 190.566 292.348 192.113 291.332 193.947L308.3 203.691C309.316 201.871 310.783 200.342 312.56 199.251Z" fill="#37474F"/>
<path d="M289.536 479.781C289.65 481.872 290.255 483.907 291.303 485.72C292.35 487.534 293.809 489.076 295.563 490.221L300.477 493.005C302.178 493.855 304.039 494.337 305.939 494.419C307.839 494.5 309.734 494.18 311.502 493.478C308.718 494.564 306.504 492.963 306.504 489.525V209.691C306.574 207.591 307.183 205.544 308.272 203.747L291.304 194.003C290.23 195.786 289.622 197.811 289.536 199.891V479.781Z" fill="#263238"/>
<path d="M315.803 236.542L427.344 172.162C429.348 171.021 430.963 171.954 430.963 174.25V381.408C430.896 382.663 430.534 383.885 429.905 384.974C429.276 386.062 428.398 386.987 427.344 387.672L315.845 452.052C313.84 453.207 312.226 452.275 312.226 449.964V242.806C312.289 241.555 312.646 240.336 313.267 239.248C313.889 238.16 314.757 237.233 315.803 236.542Z" fill="white"/>
<path d="M371.553 175.796C370.937 176.2 370.425 176.743 370.057 177.381C369.69 178.02 369.477 178.735 369.437 179.471C369.437 180.863 370.383 181.378 371.553 180.696C372.171 180.294 372.685 179.751 373.052 179.113C373.42 178.474 373.631 177.757 373.668 177.021C373.668 175.671 372.722 175.128 371.553 175.796Z" fill="#37474F"/>
<path d="M371.553 429.766C369.119 431.358 367.095 433.501 365.644 436.021C364.193 438.541 363.356 441.367 363.201 444.271C363.201 449.602 366.945 451.774 371.553 449.101C373.985 447.508 376.009 445.365 377.46 442.846C378.911 440.326 379.748 437.5 379.905 434.596C379.933 429.265 376.174 427.094 371.553 429.766Z" fill="#37474F"/>
<path d="M351.522 197.344C350.298 198.156 349.283 199.244 348.558 200.521C347.832 201.798 347.417 203.227 347.346 204.694C347.346 207.394 349.239 208.494 351.522 207.144C352.758 206.339 353.787 205.254 354.525 203.977C355.262 202.7 355.688 201.267 355.767 199.794C355.767 197.093 353.874 195.994 351.522 197.344Z" fill="#37474F"/>
<path d="M361.92 196.425C361.92 198.235 363.312 198.917 364.941 197.956L392.781 181.851C393.643 181.312 394.366 180.578 394.891 179.707C395.416 178.836 395.728 177.854 395.801 176.839C395.801 175.044 394.409 174.362 392.781 175.322L364.941 191.428C364.08 191.965 363.358 192.697 362.833 193.565C362.308 194.434 361.996 195.413 361.92 196.425Z" fill="#37474F"/>
<path d="M298.946 245.507C299.934 246.151 300.756 247.018 301.346 248.039C301.936 249.059 302.277 250.205 302.342 251.382C302.342 253.553 300.825 254.43 298.946 253.344C297.961 252.699 297.142 251.831 296.555 250.81C295.967 249.79 295.628 248.646 295.563 247.47C295.563 245.313 297.081 244.436 298.946 245.507Z" fill="#37474F"/>
<path d="M298.946 271.649C299.934 272.292 300.756 273.159 301.346 274.18C301.936 275.201 302.277 276.346 302.342 277.523C302.342 279.681 300.825 280.558 298.946 279.486C297.961 278.84 297.142 277.972 296.555 276.952C295.967 275.931 295.628 274.787 295.563 273.612C295.563 271.44 297.081 270.563 298.946 271.649Z" fill="#37474F"/>
<path d="M297.888 246.036C298.876 246.68 299.698 247.547 300.288 248.567C300.878 249.588 301.22 250.733 301.284 251.911C301.284 254.068 299.767 254.945 297.888 253.873C296.9 253.23 296.078 252.363 295.488 251.342C294.898 250.321 294.556 249.176 294.491 247.999C294.505 245.827 296.023 244.992 297.888 246.036Z" fill="#455A64"/>
<path d="M297.888 272.164C298.878 272.809 299.701 273.678 300.291 274.702C300.881 275.725 301.222 276.873 301.284 278.052C301.284 280.21 299.767 281.087 297.888 280.001C296.898 279.36 296.074 278.494 295.483 277.472C294.893 276.451 294.553 275.305 294.491 274.127C294.505 271.969 296.023 271.092 297.888 272.164Z" fill="#455A64"/>
<path d="M453.541 180.807C453.541 178.496 451.927 177.563 449.922 178.719L436.573 186.417L338.423 243.099C337.369 243.784 336.491 244.708 335.862 245.797C335.233 246.886 334.871 248.107 334.804 249.363V456.465C334.804 458.775 336.418 459.708 338.423 458.553L436.615 401.856L449.922 394.173C450.976 393.488 451.854 392.563 452.483 391.475C453.112 390.386 453.474 389.164 453.541 387.909V180.807Z" fill="white"/>
<path d="M454.933 180.807C455.021 180.109 454.901 179.401 454.588 178.771C454.275 178.14 453.783 177.617 453.174 177.264C452.565 176.912 451.866 176.748 451.163 176.791C450.461 176.834 449.787 177.084 449.226 177.508L436.489 184.872L337.727 241.944C336.455 242.746 335.398 243.846 334.646 245.148C333.895 246.451 333.471 247.916 333.412 249.419V456.465C333.356 457.16 333.49 457.857 333.798 458.482C334.107 459.107 334.58 459.637 335.166 460.014C335.664 460.304 336.232 460.453 336.808 460.446C337.624 460.421 338.42 460.186 339.119 459.764L437.951 402.692L450.66 395.356C451.924 394.546 452.976 393.444 453.727 392.143C454.477 390.843 454.906 389.381 454.975 387.881L454.933 180.807ZM436.517 400.312L435.376 400.98L337.783 457.328C337.619 457.454 337.429 457.542 337.226 457.585C337.024 457.628 336.815 457.626 336.613 457.578C336.432 457.467 336.251 457.077 336.251 456.437V249.363C336.324 248.352 336.624 247.371 337.13 246.494C337.637 245.616 338.336 244.865 339.175 244.296L436.67 187.92L450.59 179.861C450.754 179.735 450.944 179.647 451.147 179.603C451.349 179.56 451.558 179.562 451.76 179.61C451.941 179.721 452.122 180.111 452.122 180.751V387.909C452.049 388.92 451.749 389.901 451.243 390.778C450.736 391.656 450.037 392.407 449.198 392.976L436.489 400.312H436.517Z" fill="#FF6B6C"/>
<path d="M394.172 228.928C406.7 221.718 416.792 227.536 416.792 241.999C416.792 256.462 406.659 274.015 394.172 281.17C381.686 288.325 371.552 282.562 371.552 268.113C371.552 253.664 381.686 236.153 394.172 228.928Z" fill="#FF6B6C"/>
<path d="M394.173 240.287C398.223 237.949 401.508 239.842 401.508 244.463C401.371 247.009 400.635 249.487 399.36 251.695C398.086 253.903 396.308 255.78 394.173 257.172C390.122 259.511 386.837 257.618 386.837 252.996C386.974 250.45 387.71 247.973 388.985 245.765C390.259 243.556 392.037 241.68 394.173 240.287Z" fill="#FF6B6C"/>
<path d="M408.468 265.232C408.468 257.548 403.081 254.43 396.414 258.272L392.238 260.68C385.584 264.522 380.183 273.876 380.183 281.56V283.634C384.039 284.901 388.883 284.219 394.103 281.17C399.885 277.603 404.775 272.761 408.399 267.014L408.468 265.232Z" fill="#FF6B6C"/>
<path opacity="0.7" d="M394.173 240.287C398.223 237.949 401.508 239.842 401.508 244.463C401.371 247.009 400.635 249.487 399.36 251.695C398.086 253.903 396.308 255.78 394.173 257.172C390.122 259.511 386.837 257.618 386.837 252.996C386.974 250.45 387.71 247.973 388.985 245.765C390.259 243.556 392.037 241.68 394.173 240.287Z" fill="white"/>
<path opacity="0.7" d="M408.468 265.232C408.468 257.548 403.081 254.43 396.414 258.272L392.238 260.68C385.584 264.522 380.183 273.876 380.183 281.56V283.634C384.039 284.901 388.883 284.219 394.103 281.17C399.885 277.603 404.775 272.761 408.399 267.014L408.468 265.232Z" fill="white"/>
<path d="M350.408 312.977L379.515 296.176C380.907 295.41 381.923 296.023 381.923 297.568V298.528C381.879 299.365 381.638 300.179 381.219 300.905C380.801 301.631 380.217 302.247 379.515 302.704L350.408 319.506C349.086 320.271 348 319.645 348 318.114V317.153C348.045 316.317 348.287 315.503 348.705 314.778C349.124 314.052 349.707 313.435 350.408 312.977Z" fill="#FF6B6C"/>
<path opacity="0.1" d="M350.408 312.977L379.515 296.176C380.907 295.41 381.923 296.023 381.923 297.568V298.528C381.879 299.365 381.638 300.179 381.219 300.905C380.801 301.631 380.217 302.247 379.515 302.704L350.408 319.506C349.086 320.271 348 319.645 348 318.114V317.153C348.045 316.317 348.287 315.503 348.705 314.778C349.124 314.052 349.707 313.435 350.408 312.977Z" fill="black"/>
<path d="M349.211 333.259L437.269 282.423C437.923 282.033 438.466 282.339 438.466 283.119V293.392C438.442 293.809 438.321 294.214 438.113 294.577C437.905 294.939 437.616 295.248 437.269 295.48L349.211 346.316C348.543 346.705 348 346.385 348 345.62V335.347C348.024 334.928 348.146 334.521 348.356 334.158C348.567 333.795 348.86 333.487 349.211 333.259Z" fill="#FF6B6C"/>
<path opacity="0.2" d="M349.211 333.259L437.269 282.423C437.923 282.033 438.466 282.339 438.466 283.119V293.392C438.442 293.809 438.321 294.214 438.113 294.577C437.905 294.939 437.616 295.248 437.269 295.48L349.211 346.316C348.543 346.705 348 346.385 348 345.62V335.347C348.024 334.928 348.146 334.521 348.356 334.158C348.567 333.795 348.86 333.487 349.211 333.259Z" fill="white"/>
<path d="M350.408 358.677L379.515 341.875C380.907 341.109 381.923 341.736 381.923 343.267V344.228C381.88 345.064 381.639 345.879 381.221 346.605C380.802 347.331 380.218 347.947 379.515 348.404L350.408 365.205C349.086 365.984 348 365.358 348 363.813V362.853C348.047 362.017 348.29 361.204 348.708 360.478C349.126 359.753 349.708 359.136 350.408 358.677Z" fill="#FF6B6C"/>
<path opacity="0.1" d="M350.408 358.677L379.515 341.875C380.907 341.109 381.923 341.736 381.923 343.267V344.228C381.88 345.064 381.639 345.879 381.221 346.605C380.802 347.331 380.218 347.947 379.515 348.404L350.408 365.205C349.086 365.984 348 365.358 348 363.813V362.853C348.047 362.017 348.29 361.204 348.708 360.478C349.126 359.753 349.708 359.136 350.408 358.677Z" fill="black"/>
<path d="M349.211 378.958L437.269 328.122C437.923 327.733 438.466 328.053 438.466 328.818V339.091C438.442 339.508 438.321 339.914 438.113 340.276C437.905 340.638 437.616 340.948 437.269 341.179L349.211 392.015C348.543 392.405 348 392.099 348 391.319V381.046C348.024 380.628 348.146 380.221 348.356 379.858C348.567 379.495 348.86 379.187 349.211 378.958Z" fill="#FF6B6C"/>
<path opacity="0.2" d="M349.211 378.958L437.269 328.122C437.923 327.733 438.466 328.053 438.466 328.818V339.091C438.442 339.508 438.321 339.914 438.113 340.276C437.905 340.638 437.616 340.948 437.269 341.179L349.211 392.015C348.543 392.405 348 392.099 348 391.319V381.046C348.024 380.628 348.146 380.221 348.356 379.858C348.567 379.495 348.86 379.187 349.211 378.958Z" fill="white"/>
<path d="M384.331 384.791L419.131 364.732C420.523 363.952 421.553 364.579 421.553 366.124V376.87C421.507 377.708 421.264 378.523 420.843 379.249C420.422 379.975 419.836 380.59 419.131 381.046L384.331 401.119C382.939 401.884 381.923 401.258 381.923 399.727V388.967C381.971 388.131 382.214 387.318 382.632 386.593C383.05 385.868 383.632 385.251 384.331 384.791Z" fill="#FF6B6C"/>
<path opacity="0.1" d="M384.331 384.791L419.131 364.732C420.523 363.952 421.553 364.579 421.553 366.124V376.87C421.507 377.708 421.264 378.523 420.843 379.249C420.422 379.975 419.836 380.59 419.131 381.046L384.331 401.119C382.939 401.884 381.923 401.258 381.923 399.727V388.967C381.971 388.131 382.214 387.318 382.632 386.593C383.05 385.868 383.632 385.251 384.331 384.791Z" fill="black"/>
<path d="M466.738 339.439C466.738 339.439 449.644 315.859 448.642 312.991C447.848 310.875 448.642 307.729 448.892 306.268C449.143 304.806 449.366 301.549 449.616 300.7C450.034 299.113 447.987 299.433 446.832 300.881C445.677 302.328 445.287 305.224 444.688 305.697C444.09 306.17 439.538 299.53 437.158 296.468C434.777 293.406 433.288 291.54 431.826 292.682C430.782 293.503 431.562 295.285 433.288 297.902C434.296 299.311 435.225 300.775 436.072 302.287C436.336 302.857 434.917 302.899 434.151 304.082C433.552 305.001 434.151 306.49 433.316 307.2C432.802 307.592 432.45 308.158 432.326 308.792C432.203 309.426 432.317 310.083 432.648 310.639C434.197 313.072 436.195 315.188 438.536 316.875C441.097 318.643 442.127 319.269 443.644 321.677C445.162 324.085 458.775 348.682 459.694 350.158C460.613 351.633 462.381 354.64 465.067 354.723C467.754 354.807 489.747 335.876 490.875 334.929C494.494 331.908 495.65 331.477 496.262 334.191C496.474 335.156 496.632 336.132 496.735 337.114C497.167 340.567 499.519 352.9 499.519 352.9C499.519 352.9 510.655 358.287 519.801 355.684C528.946 353.081 532.036 349.197 532.036 349.197L527.457 341.736C528.696 338.66 534.417 326.187 536.268 317.459L507.593 312.824C507.008 312.699 506.062 312.462 504.809 312.142C503.236 311.724 499.241 310.346 496.22 312.991C486.365 321.58 466.766 339.439 466.766 339.439" fill="#FFA8A7"/>
<path d="M523.587 484.124L518.45 491.265C520.785 492.355 523.336 492.902 525.912 492.865C530.519 493.032 531.786 491.473 531.953 491.167C532.732 489.497 531.521 486.49 531.187 483.901L523.587 484.124Z" fill="#37474F"/>
<path d="M518.743 487.84C518.743 487.84 512.507 487.437 508.205 486.908C503.904 486.379 500.494 488.467 501.496 490.235C502.498 492.002 504.878 493.478 508.581 494.717C511.741 495.789 515.541 496.554 518.826 497.501C522.111 498.447 524.394 499.686 526.301 499.018C528.431 498.28 529.35 497.431 529.169 495.872C528.704 493.655 528.128 491.462 527.443 489.302L518.743 487.84Z" fill="#37474F"/>
<path d="M531.953 476.955C531.953 476.955 531.173 483.442 531.118 484.834C531.062 486.226 524.784 486.671 523.587 484.124L523.392 476.189L531.953 476.955Z" fill="#F28F8F"/>
<path d="M525.633 480.936L527.874 490.791C527.874 490.791 528.083 491.989 522.96 492.754C517.838 493.52 509.792 490.068 508.414 489.372C507.036 488.676 506.883 487.27 511.922 487.548C516.961 487.826 518.743 487.84 518.743 487.84L517.1 483.483L525.633 480.936Z" fill="#FFA8A7"/>
<path d="M536.184 317.376L539.734 316.388C539.734 316.388 547.153 339.871 547.975 342.14C548.796 344.409 549.729 346.803 548.128 349.601C546.221 352.928 536.184 366.305 536.184 366.305L529.809 360.069L537.047 346.817L530.644 333.871L536.184 317.376Z" fill="#F28F8F"/>
<path d="M499.728 286.877C498.896 285.315 498.473 283.567 498.5 281.798C498.527 280.028 499.002 278.294 499.881 276.757C503.417 270.201 511.295 267.013 520.678 268.224C525.021 268.795 530.143 272.4 532.941 277.788C536.031 283.759 536.324 295.786 537.117 300.338L499.728 286.877Z" fill="#37474F"/>
<path d="M499.477 289.453C499.477 289.453 497.25 293.698 497.64 294.088C498.217 294.425 498.848 294.661 499.505 294.784L499.477 289.453Z" fill="#FFA8A7"/>
<path d="M506.243 276.034C503.821 277.607 499.645 280.502 499.464 290.037C499.269 299.781 500.661 302.997 502.108 304.124C503.083 304.89 508.804 304.5 511.254 303.929C513.704 303.359 520.761 299.865 523.309 294.561C526.301 288.325 525.689 279.249 521.248 276.465C518.988 275.129 516.426 274.388 513.801 274.313C511.177 274.237 508.576 274.829 506.243 276.034Z" fill="#FFA8A7"/>
<path d="M531.953 349.142C536.24 355.823 540.305 361.67 541.196 369.214C543.033 385.069 537.02 403.193 535.725 414.928C538.16 418.265 539.563 422.243 539.762 426.37C539.762 431.228 531.953 476.955 531.953 476.955C531.953 476.955 526.273 478.681 523.392 476.189L518.033 392.071L520.817 381.826L531.953 349.142Z" fill="#FF6B6C"/>
<path opacity="0.2" d="M531.953 349.142C536.24 355.823 540.305 361.67 541.196 369.214C543.033 385.069 537.02 403.193 535.725 414.928C538.16 418.265 539.563 422.243 539.762 426.37C539.762 431.228 531.953 476.955 531.953 476.955C531.953 476.955 526.273 478.681 523.392 476.189L518.033 392.071L520.817 381.826L531.953 349.142Z" fill="black"/>
<path d="M518.033 392.071L520.817 381.826C526.147 380.423 531.289 378.38 536.129 375.743C536.129 375.743 533.233 381.018 524.909 383.914L520.608 397.068L520.246 427.205L518.033 392.071Z" fill="#FF6B6C"/>
<path opacity="0.3" d="M518.033 392.071L520.817 381.826C526.147 380.423 531.289 378.38 536.129 375.743C536.129 375.743 533.233 381.018 524.909 383.914L520.608 397.068L520.246 427.205L518.033 392.071Z" fill="black"/>
<path d="M531.953 349.142C534.25 352.9 539.734 359.303 538.565 365.47C537.173 372.931 533.136 378.179 520.859 381.826L509.333 423.586C509.333 423.586 515.332 429.154 517.17 434.541C519.007 439.928 525.633 480.964 525.633 480.964C525.633 480.964 523.573 484.319 517.1 483.511C517.1 483.511 494.536 432.007 492.949 428.653C491.023 425.255 490.348 421.29 491.042 417.447C491.752 412.046 499.394 352.928 499.394 352.928L531.953 349.142Z" fill="#FF6B6C"/>
<path opacity="0.2" d="M531.953 349.142C534.25 352.9 539.734 359.303 538.565 365.47C537.173 372.931 533.136 378.179 520.859 381.826L509.333 423.586C509.333 423.586 515.332 429.154 517.17 434.541C519.007 439.928 525.633 480.964 525.633 480.964C525.633 480.964 523.573 484.319 517.1 483.511C517.1 483.511 494.536 432.007 492.949 428.653C491.023 425.255 490.348 421.29 491.042 417.447C491.752 412.046 499.394 352.928 499.394 352.928L531.953 349.142Z" fill="black"/>
<path d="M536.185 317.376L507.509 312.741C506.925 312.615 505.978 312.379 504.725 312.059C504.725 312.059 503.5 330.043 496.137 334.164C496.318 335.027 496.471 335.987 496.61 337.087C497.042 340.539 499.394 352.872 499.394 352.872C499.394 352.872 510.53 358.259 519.675 355.656C528.821 353.053 531.911 349.169 531.911 349.169L527.331 341.708C528.612 338.604 534.375 326.132 536.185 317.376Z" fill="#FF6B6C"/>
<path opacity="0.7" d="M536.185 317.376L507.509 312.741C506.925 312.615 505.978 312.379 504.725 312.059C504.725 312.059 503.5 330.043 496.137 334.164C496.318 335.027 496.471 335.987 496.61 337.087C497.042 340.539 499.394 352.872 499.394 352.872C499.394 352.872 510.53 358.259 519.675 355.656C528.821 353.053 531.911 349.169 531.911 349.169L527.331 341.708C528.612 338.604 534.375 326.132 536.185 317.376Z" fill="white"/>
<path d="M528.626 338.743C524.818 341.03 520.828 342.999 516.697 344.631C520.446 344.556 524.117 343.542 527.373 341.68L528.626 338.743Z" fill="#FF6B6C"/>
<path d="M505.533 276.507C505.533 276.507 504.141 285.555 507.426 290.872C507.426 290.872 508.651 287.267 511.699 287.949C514.748 288.631 514.915 292.654 512.771 294.909C512.226 295.542 511.514 296.008 510.716 296.254C509.919 296.5 509.068 296.516 508.261 296.301C508.261 296.301 507.774 302.843 507.509 308.328C507.245 313.812 505.797 325.77 511.964 330.6C518.13 335.43 533.609 337.128 540.862 326.995C544.898 321.357 539.539 311.39 537.048 300.213C534.751 289.94 533.456 274.711 522.557 272.261C511.657 269.811 505.533 276.507 505.533 276.507Z" fill="#37474F"/>
<path d="M545.525 152.883L543.228 154.275C543.421 153.458 543.528 152.623 543.548 151.784C543.548 147.121 540.277 145.241 536.24 147.608C535.012 148.349 533.915 149.29 532.997 150.392C532.997 144.128 528.598 141.58 523.169 144.712C520.308 146.578 517.928 149.092 516.22 152.05C514.513 155.007 513.527 158.326 513.342 161.737C513.342 162.057 513.342 162.363 513.342 162.669C511.943 162.493 510.528 162.819 509.347 163.588C507.22 164.974 505.449 166.842 504.18 169.041C502.91 171.239 502.176 173.706 502.039 176.241C502.038 176.831 502.099 177.418 502.22 177.995L500.995 178.705C497.668 180.626 494.967 184.37 494.967 187.057C494.967 189.744 497.668 190.384 500.995 188.449L545.539 162.767C548.866 160.846 551.566 157.101 551.566 154.415C551.566 151.728 548.852 150.949 545.525 152.883Z" fill="#EBEBEB"/>
</svg>
